<?xml version="1.0" encoding="utf-8"?>
<!-- Generator: Adobe Illustrator 16.0.0, SVG Export Plug-In . SVG Version: 6.00 Build 0)  -->
<!DOCTYPE svg PUBLIC "-//W3C//DTD SVG 1.1//EN" "http://www.w3.org/Graphics/SVG/1.1/DTD/svg11.dtd">
<svg version="1.1" id="Layer_1" xmlns="http://www.w3.org/2000/svg" xmlns:xlink="http://www.w3.org/1999/xlink" x="0px" y="0px"
	 width="612px" height="792px" viewBox="0 0 612 792" enable-background="new 0 0 612 792" xml:space="preserve">
<g>
	<g>
		<path fill-rule="evenodd" clip-rule="evenodd" d="M275.446,415.024c0-14.438,0-28.878,0-43.316c21.278,0,42.556,0,63.833,0
			c0,14.438,0,28.877,0,43.316c-8.866,0-17.732,0-26.599,0c-0.26,1.044-0.519,2.09-0.778,3.135
			c4.534,2.003,9.068,4.009,15.961,7.055c-14.76,0-26.542,0-38.323,0c-0.017-0.463-0.033-0.926-0.05-1.389
			c4.453-1.857,8.905-3.712,13.358-5.568c-0.267-1.078-0.536-2.155-0.803-3.232C293.179,415.024,284.313,415.024,275.446,415.024z
			 M333.98,377.483c-18.213,0-35.4,0-52.646,0c0,10.339,0,19.938,0,29.288c18.045,0,35.241,0,52.646,0
			C333.98,396.783,333.98,387.716,333.98,377.483z"/>
		<path fill-rule="evenodd" clip-rule="evenodd" fill="#FFFFFF" d="M275.446,415.024c8.866,0,17.733,0,26.599,0
			c0.267,1.077,0.536,2.154,0.803,3.232c-4.453,1.856-8.905,3.711-13.358,5.568c0.017,0.463,0.033,0.926,0.05,1.389
			c11.782,0,23.563,0,38.323,0c-6.893-3.046-11.427-5.052-15.961-7.055c0.26-1.045,0.519-2.091,0.778-3.135
			c8.866,0,17.732,0,26.599,0c0,4.56,0,9.119,0,13.679c-21.277,0-42.555,0-63.833,0
			C275.446,424.144,275.446,419.584,275.446,415.024z"/>
		<path fill-rule="evenodd" clip-rule="evenodd" fill="#FFFFFF" d="M333.98,377.483c0,10.232,0,19.3,0,29.288
			c-17.405,0-34.601,0-52.646,0c0-9.351,0-18.949,0-29.288C298.58,377.483,315.768,377.483,333.98,377.483z"/>
	</g>
</g>
</svg>
