<?xml version="1.0" encoding="utf-8"?>
<!-- Generator: Adobe Illustrator 16.0.0, SVG Export Plug-In . SVG Version: 6.00 Build 0)  -->
<!DOCTYPE svg PUBLIC "-//W3C//DTD SVG 1.1//EN" "http://www.w3.org/Graphics/SVG/1.1/DTD/svg11.dtd">
<svg version="1.1" id="Layer_1" xmlns="http://www.w3.org/2000/svg" xmlns:xlink="http://www.w3.org/1999/xlink" x="0px" y="0px"
	 width="612px" height="792px" viewBox="0 0 612 792" enable-background="new 0 0 612 792" xml:space="preserve">
<g>
	<g>
		<path fill-rule="evenodd" clip-rule="evenodd" fill="#FFFFFF" d="M318,403c0,2,0,4,0,6c-7,0-14,0-21,0c0-0.667,0-1.333,0-2
			c1.668,1.37,3.635,1.002,5.495,0.961c0.861-0.841,1.691-1.652,2.674-2.612c0-4.311,0-8.752,0-13.05
			c3.671-1.07,7.153-2.086,10.743-3.133c0,3.291,0,6.401,0,9.438c-1.696,0.582-3.296,1.131-4.568,1.567
			c-0.605,1.289-1.062,2.258-1.501,3.195c0.617,0.591,1.096,1.049,1.58,1.514c1.424,0,2.871,0,3.896,0
			C316.434,404.098,317.217,403.549,318,403z"/>
		<path fill-rule="evenodd" clip-rule="evenodd" d="M318,403c-0.783,0.549-1.566,1.098-2.682,1.881c-1.025,0-2.473,0-3.896,0
			c-0.484-0.465-0.963-0.923-1.58-1.514c0.439-0.938,0.896-1.906,1.501-3.195c1.272-0.437,2.872-0.985,4.568-1.567
			c0-3.037,0-6.147,0-9.438c-3.59,1.047-7.071,2.063-10.743,3.133c0,4.298,0,8.739,0,13.05c-0.982,0.96-1.813,1.771-2.674,2.612
			c-1.859,0.041-3.827,0.409-5.495-0.961c0-0.667,0-1.333,0-2c1.592-1.806,3.271-3.461,6.064-3.09c0-4.762,0-9.188,0-13.558
			c2.589-0.945,4.856-2.362,7.612-2.402c0.857-0.013,1.71-0.609,2.561-0.952c0.909-0.366,2.423,0.939,2.764-0.998c0.5,0,1,0,1.5,0
			c0.166,0,0.478-0.012,0.479,0.002c0.027,0.331,0.021,0.665,0.021,0.998C318,391,318,397,318,403z"/>
		<path fill-rule="evenodd" clip-rule="evenodd" fill="#FFFFFF" d="M316,384c-0.341,1.938-1.854,0.632-2.764,0.998
			c-0.851,0.343-1.703,0.939-2.561,0.952c-2.756,0.04-5.022,1.457-7.612,2.402c0,4.369,0,8.796,0,13.558
			c-2.793-0.371-4.472,1.284-6.064,3.09c0-7,0-14,0-21C303.333,384,309.666,384,316,384z"/>
	</g>
</g>
<g>
	<g>
		<path fill-rule="evenodd" clip-rule="evenodd" fill="#FFFFFF" d="M346.991,408.826c0,7.316,0,14.635,0,21.975
			c-23.269,0-46.536,0-69.897,0c0-27.189,0-54.401,0-81.967c23.07,0,46.235-0.002,69.4,0.041c0.166,0.001,0.331,0.626,0.497,0.959
			c-2.711,0.681-5.449,1.269-8.128,2.06c-13.599,4.018-27.183,8.089-41.482,12.353c0,14.591,0,29.001,0,43.384
			c-2.946,0.398-5.12,0.506-7.19,1.025c-2.239,0.561-4.517,1.256-6.541,2.334c-5.45,2.908-7.19,12.18-2.734,15.107
			c4.879,3.205,10.295,2.504,15.27,0.146c4.52-2.143,7.742-5.307,7.57-11.168c-0.327-11.141-0.101-22.298-0.132-33.449
			c-0.011-3.905,1.024-6.357,5.629-7.217c6.659-1.243,13.11-3.585,19.677-5.361c3.44-0.931,6.938-1.654,11.363-2.696
			c0,10.302,0.099,19.736-0.16,29.161c-0.024,0.889-2.217,1.866-3.534,2.545c-4.203,2.172-8.864,3.707-12.545,6.533
			c-1.893,1.453-3.435,5.627-2.681,7.664c0.863,2.332,4.24,4.707,6.887,5.229C336.294,419.066,342.949,416.471,346.991,408.826z"/>
		<path fill-rule="evenodd" clip-rule="evenodd" d="M346.991,408.826c-4.042,7.645-10.697,10.24-18.73,8.658
			c-2.646-0.521-6.023-2.896-6.887-5.229c-0.754-2.037,0.788-6.211,2.681-7.664c3.681-2.826,8.342-4.361,12.545-6.533
			c1.317-0.68,3.51-1.656,3.534-2.545c0.259-9.425,0.16-18.859,0.16-29.161c-4.426,1.042-7.923,1.766-11.363,2.696
			c-6.566,1.776-13.018,4.119-19.677,5.361c-4.605,0.859-5.64,3.312-5.629,7.217c0.031,11.151-0.195,22.309,0.132,33.449
			c0.172,5.861-3.05,9.025-7.57,11.168c-4.975,2.357-10.391,3.059-15.27-0.146c-4.457-2.928-2.716-12.199,2.734-15.107
			c2.024-1.078,4.302-1.773,6.541-2.334c2.071-0.52,4.245-0.627,7.19-1.025c0-14.383,0-28.793,0-43.384
			c14.3-4.264,27.884-8.335,41.482-12.353c2.679-0.791,5.417-1.379,8.128-2.06C346.991,369.498,346.991,389.161,346.991,408.826z"/>
	</g>
</g>
</svg>
