<?xml version="1.0" encoding="utf-8"?>
<!-- Generator: Adobe Illustrator 16.0.0, SVG Export Plug-In . SVG Version: 6.00 Build 0)  -->
<!DOCTYPE svg PUBLIC "-//W3C//DTD SVG 1.1//EN" "http://www.w3.org/Graphics/SVG/1.1/DTD/svg11.dtd">
<svg version="1.1" id="Layer_1" xmlns="http://www.w3.org/2000/svg" xmlns:xlink="http://www.w3.org/1999/xlink" x="0px" y="0px"
	 width="612px" height="792px" viewBox="0 0 612 792" enable-background="new 0 0 612 792" xml:space="preserve">
<g>
	<g>
		<path fill-rule="evenodd" clip-rule="evenodd" fill="#FFFFFF" d="M312,409c-3.334,0-6.667,0-10,0
			c-0.022-2.146,0.259-4.357-0.189-6.41c-0.244-1.117-1.728-1.963-2.652-2.931c-0.386,0.311-0.772,0.62-1.159,0.93
			c0,2.804,0,5.607,0,8.411c-5.025,0.748-2.33-3.136-3-5c0.667-1.351,1.837-2.672,1.917-4.056
			c0.413-7.228,3.627-11.005,9.835-11.104c6.527-0.104,9.893,3.65,10.33,11.104c0.082,1.385,1.251,2.705,1.918,4.056
			c-0.67,1.864,2.025,5.748-3,5c0-2.938,0-5.878,0-8.816c-0.539-0.226-1.079-0.452-1.619-0.678
			c-0.783,1.185-1.984,2.282-2.252,3.573C311.736,404.98,312.01,407.02,312,409z"/>
		<path fill-rule="evenodd" clip-rule="evenodd" d="M319,404c-0.667-1.351-1.836-2.671-1.918-4.056
			c-0.438-7.453-3.803-11.207-10.33-11.104c-6.208,0.099-9.422,3.876-9.835,11.104c-0.079,1.384-1.25,2.705-1.917,4.056
			c0-3.333,0-6.667,0-10c3.333-3,6.667-6,10-9c1.334,0,2.666,0,4,0c3.334,3,6.666,6,10,9C319,397.333,319,400.667,319,404z"/>
		<path fill-rule="evenodd" clip-rule="evenodd" d="M298,409c0-2.804,0-5.607,0-8.411c0.386-0.31,0.772-0.619,1.159-0.93
			c0.925,0.968,2.408,1.813,2.652,2.931c0.448,2.053,0.167,4.265,0.189,6.41C300.667,409,299.333,409,298,409z"/>
		<path fill-rule="evenodd" clip-rule="evenodd" d="M312,409c0.01-1.98-0.264-4.02,0.129-5.921c0.268-1.291,1.469-2.389,2.252-3.573
			c0.54,0.226,1.08,0.452,1.619,0.678c0,2.938,0,5.878,0,8.816C314.666,409,313.334,409,312,409z"/>
		<path fill-rule="evenodd" clip-rule="evenodd" fill="#FFFFFF" d="M305,385c-3.333,3-6.667,6-10,9c0-3,0-6,0-9
			C298.333,385,301.667,385,305,385z"/>
		<path fill-rule="evenodd" clip-rule="evenodd" fill="#FFFFFF" d="M319,394c-3.334-3-6.666-6-10-9c3.334,0,6.666,0,10,0
			C319,388,319,391,319,394z"/>
	</g>
</g>
</svg>
