<?xml version="1.0" encoding="utf-8"?>
<!-- Generator: Adobe Illustrator 16.0.0, SVG Export Plug-In . SVG Version: 6.00 Build 0)  -->
<!DOCTYPE svg PUBLIC "-//W3C//DTD SVG 1.1//EN" "http://www.w3.org/Graphics/SVG/1.1/DTD/svg11.dtd">
<svg version="1.1" id="Layer_1" xmlns="http://www.w3.org/2000/svg" xmlns:xlink="http://www.w3.org/1999/xlink" x="0px" y="0px"
	 width="500px" height="200px" viewBox="0 0 500 200" enable-background="new 0 0 500 200" xml:space="preserve">
<g>
	<g>
		<path fill-rule="evenodd" clip-rule="evenodd" fill="#FFFFFF" d="M50.007,31c143.64,0,287.279,0,431.099,0
			c0,3.271,0,6.545,0,9.819c0,42.659-0.035,85.317,0.079,127.976c0.008,2.8-0.595,3.313-3.341,3.312
			c-152.305-0.084-304.61-0.074-456.915-0.077c-0.31,0-0.62-0.041-0.923-0.062c0-46.993,0-93.98,0.003-140.968
			c9.668,0,19.333,0,28.998,0c-2.022,1.288-1.969,2.951-1.472,5.156c4.355,19.317,8.572,38.667,12.803,58.012
			c1.047,4.789,1.996,9.6,2.91,14.013c-7.01-0.866-13.563-2.297-20.128-2.354c-12.669-0.11-21.648,8.877-22.401,21.494
			c-0.682,11.409,4.382,20.627,11.224,29.113c7.389,9.165,17.539,12.826,28.813,14.133c9.04,1.048,16.792-1.723,23.105-8.186
			c4.622-4.731,5.855-10.687,5.272-17.11c-0.179-1.97-1.042-2.684-2.983-1.722c-0.885,0.44-1.873,0.705-2.841,0.936
			c-5.737,1.364-12.833-1.271-15.448-5.713c-0.986-1.673-1.64-3.491,0.013-5.011c1.716-1.576,3.35-0.632,4.858,0.663
			c1.255,1.079,2.473,2.306,3.926,3.024c2.897,1.433,5.79,1.103,8.465-0.803c2.665-1.899,1.827-4.326,1.062-6.751
			c-0.45-1.43-0.945-2.847-1.349-4.289c-0.728-2.598-2.386-3.612-5.095-3.84c-7.182-0.603-12.23-4.554-13.956-10.864
			c-1.803-6.594-0.091-12.4,5.377-16.45c2.76-2.044,2.816-3.881,1.94-6.683c-2.382-7.626-4.738-15.267-6.781-22.988
			c-1.37-5.176,0.037-6.794,5.133-5.758c12.925,2.627,24.764,7.077,30.738,20.351c0.592,1.315,1.698,2.484,2.801,3.452
			c0.64,0.561,1.752,0.583,2.652,0.847c0.109-0.787,0.316-1.576,0.298-2.36c-0.015-0.649-0.299-1.292-0.459-1.939
			c-3.393-13.675-11.851-23.253-24.188-29.565c-5.034-2.576-10.279-4.736-15.383-7.179C61.445,39.534,55.068,36.273,50.007,31z
			 M71.776,105.807c0.066,4.86,2.89,8.439,6.596,9.248c1.959,0.428,2.749-0.297,2.202-2.309c-0.87-3.199-1.837-6.379-2.938-9.505
			c-0.44-1.252-1.345-2.34-2.039-3.502c-1,1.044-2.209,1.962-2.937,3.17C72.01,103.987,71.894,105.386,71.776,105.807z"/>
		<path fill-rule="evenodd" clip-rule="evenodd" d="M50.007,31c5.062,5.273,11.438,8.534,17.906,11.629
			c5.104,2.443,10.35,4.604,15.383,7.179c12.338,6.312,20.796,15.89,24.188,29.565c0.16,0.646,0.444,1.29,0.459,1.939
			c0.019,0.784-0.188,1.573-0.298,2.36c-0.9-0.265-2.012-0.287-2.652-0.847c-1.104-0.968-2.209-2.137-2.801-3.452
			c-5.975-13.274-17.813-17.724-30.738-20.351c-5.097-1.036-6.503,0.582-5.133,5.758c2.043,7.721,4.399,15.362,6.781,22.988
			c0.875,2.802,0.82,4.639-1.94,6.683c-5.469,4.05-7.181,9.856-5.377,16.45c1.726,6.311,6.774,10.262,13.956,10.864
			c2.708,0.228,4.367,1.242,5.095,3.84c0.404,1.442,0.898,2.859,1.349,4.289c0.765,2.425,1.604,4.852-1.062,6.751
			c-2.675,1.905-5.568,2.235-8.465,0.803c-1.453-0.719-2.671-1.945-3.926-3.024c-1.508-1.295-3.142-2.239-4.858-0.663
			c-1.653,1.52-0.999,3.338-0.013,5.011c2.615,4.442,9.711,7.077,15.448,5.713c0.968-0.23,1.957-0.495,2.841-0.936
			c1.941-0.962,2.805-0.248,2.983,1.722c0.583,6.424-0.65,12.379-5.272,17.11c-6.313,6.463-14.065,9.233-23.105,8.186
			c-11.275-1.307-21.424-4.968-28.813-14.133c-6.842-8.486-11.906-17.704-11.224-29.113c0.753-12.617,9.732-21.604,22.401-21.494
			c6.565,0.058,13.118,1.488,20.128,2.354c-0.914-4.413-1.863-9.224-2.91-14.013c-4.231-19.346-8.447-38.695-12.803-58.012
			c-0.497-2.205-0.55-3.868,1.472-5.156C49.34,31,49.673,31,50.007,31z"/>
		<path fill-rule="evenodd" clip-rule="evenodd" d="M71.776,105.807c0.118-0.421,0.234-1.819,0.883-2.897
			c0.728-1.208,1.938-2.126,2.937-3.17c0.694,1.162,1.599,2.25,2.039,3.502c1.102,3.126,2.069,6.306,2.938,9.505
			c0.546,2.012-0.243,2.736-2.202,2.309C74.666,114.246,71.842,110.667,71.776,105.807z"/>
	</g>
</g>
</svg>
