<?xml version="1.0" encoding="utf-8"?>
<!-- Generator: Adobe Illustrator 16.0.0, SVG Export Plug-In . SVG Version: 6.00 Build 0)  -->
<!DOCTYPE svg PUBLIC "-//W3C//DTD SVG 1.1//EN" "http://www.w3.org/Graphics/SVG/1.1/DTD/svg11.dtd">
<svg version="1.1" id="Layer_1" xmlns="http://www.w3.org/2000/svg" xmlns:xlink="http://www.w3.org/1999/xlink" x="0px" y="0px"
	 width="500px" height="200px" viewBox="0 0 500 200" enable-background="new 0 0 500 200" xml:space="preserve">
<g>
	<g>
		<path fill-rule="evenodd" clip-rule="evenodd" fill="#FFFFFF" d="M251.058,202.046c-81.853,0-163.704,0-245.556,0
			c-1.167,0-2.34-0.073-3.499,0.024c-0.871,0.072-1.16-0.157-1.017-1.026C1.065,200.557,1,200.046,1,199.546
			C1,134.197,1,68.849,1.002,3.501c0-2.485,0.014-2.499,2.499-2.499C77.684,1,151.868,1,226.052,1c90.521,0,181.041,0,271.562,0
			c1.168,0,2.341,0.073,3.499-0.024c0.871-0.072,1.159,0.158,1.017,1.027c-0.08,0.487-0.015,0.998-0.015,1.499
			c0,65.348,0.001,130.696-0.002,196.045c0,2.484-0.014,2.498-2.498,2.498C416.762,202.046,333.909,202.046,251.058,202.046z
			 M94.059,108.063l-0.079-0.077c-0.215-1.447-0.284-2.937-0.676-4.335c-0.802-2.855-1.802-5.655-2.677-8.492
			c-1.104-3.58-0.622-4.257,2.941-3.968c0.936,0.076,1.977,0.348,2.732,0.871c1.762,1.222,3.414,2.613,5.045,4.012
			c1.116,0.956,2.222,1.492,3.566,0.531c1.351-0.965,1.927-2.783,1.305-4.32c-0.949-2.348-2.221-4.383-4.65-5.593
			c-3.881-1.934-7.652-4.024-12.193-2.015c-0.908,0.402-1.862,0.334-2.275-1.045c-2.222-7.414-4.593-14.783-6.753-22.214
			c-0.684-2.352-0.934-4.84-1.271-7.28c-0.198-1.435,0.583-2.246,2.037-2.083c2.446,0.273,4.936,0.442,7.307,1.045
			c7.917,2.016,15.659,4.581,21.155,11.094c2.323,2.751,3.997,6.045,6.037,9.044c0.825,1.213,1.703,2.46,2.808,3.396
			c1.254,1.062,2.728,0.295,2.68-1.346c-0.042-1.467-0.213-2.985-0.652-4.378c-3.916-12.436-11.543-21.852-23.183-27.826
			c-4.707-2.416-9.625-4.414-14.378-6.744c-6.532-3.202-13.311-6.032-18.503-11.418c-0.9-0.935-2.111-1.417-3.073-0.449
			c-0.712,0.715-0.939,1.935-1.305,2.957c-0.096,0.271,0.084,0.646,0.155,0.969c1.602,7.211,3.229,14.416,4.804,21.633
			c3.363,15.409,6.689,30.827,10.051,46.236c1.256,5.753,1.314,5.641-4.539,3.966c-6.035-1.728-12.032-2.944-18.477-1.405
			c-6.912,1.652-12.04,5.25-15.574,11.274c-4.442,7.571-4.039,15.586-1.088,23.332c2.714,7.125,6.847,13.438,12.308,19.074
			c7.458,7.695,16.879,9.986,26.72,11.472c5.726,0.864,11.08-0.861,16.186-3.614c7.513-4.05,11.826-9.916,11.597-18.692
			c-0.035-1.331,0.057-2.669-0.043-3.995c-0.107-1.417,0.21-2.535,1.288-3.57c0.94-0.902,1.666-2.053,2.378-3.164
			c3.374-5.262,3.22-10.519,0.073-15.862C103.17,110.546,99.042,108.63,94.059,108.063z M368.22,111.895c0-6.327,0-12.655,0-18.983
			c0-1.332,0.042-2.667-0.015-3.996c-0.084-2.002-1.497-3.811-2.98-3.909c-1.674-0.112-3.169,1.753-3.268,4.125
			c-0.042,0.998-0.01,1.999-0.01,2.998c0,8.493,0.019,16.986-0.011,25.478c-0.01,2.65-0.147,5.302-0.227,7.952
			c-2.104-2.033-4.239-4.037-6.296-6.117c-0.688-0.697-1.122-1.639-1.766-2.389c-8.212-9.556-16.434-19.103-24.674-28.633
			c-0.869-1.004-1.834-1.935-2.823-2.824c-1.229-1.104-2.406-0.727-3.564,0.229c-1.464,1.208-1.517,2.812-1.514,4.525
			c0.028,14.153,0.014,28.309,0.021,42.462c0,0.828-0.059,1.692,0.149,2.477c0.435,1.64,2.384,3.077,3.679,2.753
			c1.709-0.428,2.331-1.667,2.313-3.359c-0.029-2.831-0.001-5.663-0.001-8.493c0.002-8.992-0.006-17.984,0.023-26.977
			c0.002-0.623,0.28-1.246,0.431-1.869c0.565,0.257,1.301,0.367,1.672,0.794c6.091,7.005,12.155,14.033,18.184,21.092
			c2.688,3.147,5.241,6.41,7.936,9.551c2.378,2.77,4.785,5.523,7.366,8.099c0.667,0.666,2.123,1.033,3.054,0.82
			c1.224-0.28,2.408-1.145,2.305-2.826c-0.062-0.995,0.014-1.998,0.014-2.996C368.221,125.216,368.22,118.556,368.22,111.895z
			 M314.232,111.521c0-6.833,0.001-13.664,0-20.496c0-1-0.016-2-0.012-3c0.006-1.519-0.72-2.569-2.149-2.985
			c-1.568-0.455-2.628,0.564-3.245,1.735c-0.508,0.965-0.662,2.19-0.709,3.31c-0.105,2.495-0.035,4.997-0.068,7.497
			c-0.005,0.304-0.207,0.605-0.318,0.908c-0.278-0.133-0.601-0.214-0.825-0.408c-0.503-0.435-0.957-0.927-1.433-1.394
			c-7.015-6.902-16.979-7.528-25.255-3.083c-13.661,7.337-15.861,23.863-8.185,34.65c7.877,11.07,24.028,13.314,33.45,4.113
			c0.686-0.669,1.497-1.207,2.25-1.806c0.117,0.97,0.26,1.937,0.349,2.908c0.254,2.759,1.714,4.708,3.513,4.652
			c1.686-0.052,2.614-1.58,2.628-4.608C314.255,126.186,314.232,118.854,314.232,111.521z M452.863,114.208
			c0.109,1.989-0.146,4.083,0.384,5.953c4.49,15.84,22.021,23.648,37.097,13.119c0.936-0.653,1.821-1.524,2.413-2.489
			c0.838-1.367,0.83-2.846-0.469-4.07c-1.2-1.134-2.36-0.898-3.558,0.039c-1.174,0.918-2.334,1.873-3.6,2.648
			c-5.341,3.274-10.855,3.604-16.497,0.785c-2.556-1.277-2.589-1.355-0.67-3.284c7.393-7.429,14.811-14.833,22.215-22.25
			c0.822-0.823,1.705-1.607,2.401-2.529c1.001-1.326,1.007-2.824,0-4.136c-0.699-0.913-1.527-1.843-2.505-2.405
			c-5.96-3.42-11.943-5.846-19.233-3.881C459.961,94.643,452.967,102.979,452.863,114.208z M111.867,114.61
			c-1.228,10.341,8.44,23.415,22.958,23.503c13.768,0.083,23.677-12.046,23.621-23.665c-0.054-11.211-9.434-23.345-23.275-23.506
			C120.654,90.773,110.568,103.909,111.867,114.61z M372.928,114.346c-1.314,10.854,8.752,23.85,23.191,23.766
			c13.941-0.082,23.305-12.366,23.388-23.396c0.087-11.769-9.825-23.782-23.509-23.777
			C381.345,90.945,371.694,104.235,372.928,114.346z M216.065,114.218c0,6.165-0.045,12.331,0.037,18.494
			c0.017,1.269,0.223,2.716,0.876,3.738c0.52,0.813,1.852,1.523,2.83,1.53c1.454,0.01,2.29-1.193,2.375-2.702
			c0.056-0.998,0.027-1.999,0.027-2.999c0.002-4.998-0.086-9.999,0.04-14.995c0.058-2.289,0.34-4.613,0.852-6.845
			c2.058-8.985,10.045-14.481,19.29-13.248c7.583,1.012,15.061,9.147,14.585,17.036c-0.291,4.814-0.059,9.66-0.052,14.492
			c0.003,2.166-0.082,4.339,0.074,6.495c0.131,1.796,1.42,2.967,2.814,2.9c1.474-0.071,3.136-1.59,3.339-3.092
			c0.066-0.492,0.042-0.998,0.042-1.498c0.001-6.497,0.286-13.012-0.071-19.489c-0.51-9.228-4.559-16.475-13.121-20.742
			c-8.236-4.105-16.021-2.679-23.483,1.997c-1.383,0.867-2.521,2.126-3.771,3.205c-0.201-1.7-0.188-3.467-0.685-5.075
			c-0.291-0.939-1.271-1.972-2.183-2.306c-0.653-0.239-1.818,0.458-2.556,1.006c-1.356,1.007-1.275,2.579-1.269,4.104
			C216.081,102.222,216.065,108.22,216.065,114.218z M210.184,114.705c0-5.999,0.002-11.997-0.002-17.996
			c-0.001-0.999,0.068-2.013-0.075-2.995c-0.219-1.505-2.136-2.967-3.617-2.753c-1.497,0.215-2.338,1.218-2.502,2.695
			c-0.11,0.988-0.074,1.996-0.075,2.995c-0.005,5.666-0.194,11.339,0.05,16.995c0.258,5.976-2.177,10.432-6.415,14.438
			c-4.375,4.135-13.793,5.01-19.036,1.873c-6.175-3.693-8.985-9.135-9.264-15.996c-0.236-5.823-0.042-11.662-0.055-17.495
			c-0.003-1.163,0.101-2.371-0.167-3.48c-0.49-2.023-2.702-2.596-4.324-1.297c-1.467,1.173-1.686,2.713-1.669,4.461
			c0.055,5.832-0.136,11.668,0.062,17.495c0.232,6.833,2.653,12.676,7.488,17.82c7.702,8.194,20.54,8.543,29.372,2.105
			c1.199-0.873,2.226-1.982,3.333-2.982c0.22,1.484,0.489,2.964,0.645,4.456c0.178,1.695,0.952,2.882,2.698,3.058
			c1.618,0.162,3.376-1.6,3.522-3.401c0.08-0.994,0.031-1.998,0.031-2.998C210.185,126.035,210.184,120.37,210.184,114.705z
			 M431.108,116.223c0.002,0,0.005,0,0.007,0c0,5.652-0.045,11.305,0.018,16.955c0.034,3.123,1.217,4.841,3.703,4.929
			c4.814,0.169,9.644,0.162,14.458-0.006c2.303-0.08,3.595-2.348,2.694-4.303c-0.603-1.311-1.712-1.93-3.214-1.91
			c-3.158,0.039-6.317-0.037-9.474,0.02c-1.478,0.027-2.081-0.532-2.055-2.031c0.06-3.322,0.015-6.647,0.015-9.973
			c0-6.815,0.04-13.631-0.025-20.445c-0.017-1.7,0.538-2.42,2.282-2.321c1.655,0.095,3.334,0.118,4.98-0.047
			c1.712-0.171,2.647-1.29,2.665-3.033c0.017-1.736-0.878-2.884-2.594-3.09c-1.476-0.178-2.994-0.172-4.479-0.058
			c-2.075,0.16-3.06-0.537-2.864-2.75c0.151-1.723-0.752-2.953-2.47-3.167c-1.759-0.219-3.276,1.184-3.257,2.474
			c0.06,4.033-2.53,3.474-4.997,3.423c-0.662-0.014-1.343-0.048-1.987,0.074c-1.697,0.319-2.584,1.365-2.553,3.127
			c0.032,1.776,0.992,2.817,2.69,2.999c1.481,0.158,2.989,0.106,4.482,0.063c1.518-0.045,2.001,0.682,1.991,2.115
			C431.085,104.92,431.108,110.571,431.108,116.223z"/>
		<path fill-rule="evenodd" clip-rule="evenodd" d="M94.059,108.063c4.983,0.566,9.111,2.482,11.784,7.021
			c3.146,5.344,3.301,10.601-0.073,15.862c-0.712,1.111-1.438,2.262-2.378,3.164c-1.078,1.035-1.396,2.153-1.288,3.57
			c0.101,1.326,0.008,2.664,0.043,3.995c0.229,8.776-4.084,14.643-11.597,18.692c-5.106,2.753-10.46,4.479-16.186,3.614
			c-9.841-1.485-19.262-3.776-26.72-11.472c-5.461-5.636-9.594-11.949-12.308-19.074c-2.951-7.746-3.354-15.761,1.088-23.332
			c3.535-6.024,8.662-9.622,15.574-11.274c6.444-1.539,12.442-0.322,18.477,1.405c5.853,1.675,5.794,1.787,4.539-3.966
			c-3.362-15.41-6.688-30.827-10.051-46.236c-1.575-7.217-3.202-14.422-4.804-21.633c-0.071-0.323-0.251-0.698-0.155-0.969
			c0.365-1.022,0.593-2.242,1.305-2.957c0.962-0.968,2.173-0.486,3.073,0.449c5.193,5.387,11.971,8.217,18.503,11.418
			c4.752,2.33,9.671,4.328,14.378,6.744c11.64,5.974,19.268,15.39,23.183,27.826c0.439,1.393,0.61,2.911,0.652,4.378
			c0.047,1.641-1.426,2.408-2.68,1.346c-1.104-0.936-1.982-2.183-2.808-3.396c-2.04-2.999-3.714-6.292-6.037-9.044
			c-5.496-6.513-13.238-9.078-21.155-11.094c-2.371-0.604-4.861-0.772-7.307-1.045c-1.455-0.162-2.235,0.649-2.037,2.083
			c0.337,2.44,0.587,4.928,1.271,7.28c2.16,7.431,4.532,14.8,6.753,22.214c0.413,1.379,1.367,1.448,2.275,1.045
			c4.542-2.009,8.312,0.081,12.193,2.015c2.429,1.21,3.701,3.245,4.65,5.593c0.622,1.538,0.046,3.355-1.305,4.32
			c-1.345,0.96-2.45,0.425-3.566-0.531c-1.631-1.399-3.283-2.79-5.045-4.012c-0.755-0.523-1.796-0.795-2.732-0.871
			c-3.563-0.289-4.044,0.388-2.941,3.968c0.875,2.836,1.875,5.636,2.677,8.492c0.393,1.398,0.461,2.888,0.676,4.335
			c-6.332-0.005-9.45-2.995-9.057-8.961c0.104-1.584,0.813-3.159,1.417-4.669c0.296-0.74,1.13-1.257,1.467-1.991
			c0.685-1.493-0.403-6.093-1.331-5.922c-1.293,0.238-2.563,1.288-3.574,2.268c-4.839,4.692-6.13,10.723-3.537,16.827
			c1.963,4.619,7.388,9.668,14.613,9.377c1.219-0.049,1.789-0.043,1.211-1.589C94.569,111.663,94.416,109.825,94.059,108.063z
			 M98.033,117.011c-0.19-0.158-0.381-0.315-0.571-0.474c0.183,0.166,0.366,0.333,0.549,0.499c0.363,1.593,0.633,3.213,1.119,4.767
			c0.385,1.229,1.035,2.375,1.568,3.559c0.049-1.475,0.484-3.077,0.045-4.389C100.254,119.514,98.971,118.32,98.033,117.011z
			 M92.993,137.966c0.946-0.107,1.814-0.057,2.57-0.323c1.695-0.597,3.82-0.952,4.83-2.179c0.694-0.843-0.199-2.984-0.365-4.547
			c-0.053-0.494-0.045-0.995-0.078-1.491c-0.064-0.97-0.533-1.187-1.144-0.437c-1.659,2.04-3.869,2.136-6.269,2.243
			c-2.68,0.119-4.327-1.273-5.945-3.001c-0.565-0.603-1.143-1.47-1.839-1.612c-1.193-0.246-2.703-0.401-3.659,0.144
			c-0.686,0.391-1.157,2.129-0.887,3.01c0.463,1.513,1.291,3.177,2.48,4.148C85.666,136.357,89.193,137.741,92.993,137.966z"/>
		<path fill-rule="evenodd" clip-rule="evenodd" d="M368.22,111.895c0,6.661,0.001,13.321-0.001,19.983
			c0,0.998-0.075,2.001-0.014,2.996c0.104,1.682-1.081,2.546-2.305,2.826c-0.931,0.213-2.387-0.154-3.054-0.82
			c-2.581-2.575-4.988-5.329-7.366-8.099c-2.694-3.141-5.247-6.403-7.936-9.551c-6.028-7.059-12.093-14.087-18.184-21.092
			c-0.371-0.427-1.106-0.537-1.672-0.794c-0.15,0.623-0.429,1.246-0.431,1.869c-0.029,8.992-0.021,17.984-0.023,26.977
			c0,2.83-0.028,5.662,0.001,8.493c0.018,1.692-0.604,2.932-2.313,3.359c-1.295,0.324-3.244-1.113-3.679-2.753
			c-0.208-0.784-0.149-1.648-0.149-2.477c-0.008-14.153,0.007-28.309-0.021-42.462c-0.003-1.713,0.05-3.317,1.514-4.525
			c1.158-0.956,2.336-1.334,3.564-0.229c0.989,0.889,1.954,1.82,2.823,2.824c8.24,9.531,16.462,19.078,24.674,28.633
			c0.644,0.75,1.077,1.691,1.766,2.389c2.057,2.08,4.191,4.084,6.296,6.117c0.079-2.65,0.217-5.302,0.227-7.952
			c0.029-8.492,0.011-16.985,0.011-25.478c0-0.999-0.032-2,0.01-2.998c0.099-2.372,1.594-4.237,3.268-4.125
			c1.483,0.099,2.896,1.907,2.98,3.909c0.057,1.329,0.015,2.664,0.015,3.996C368.22,99.239,368.22,105.567,368.22,111.895z"/>
		<path fill-rule="evenodd" clip-rule="evenodd" d="M314.232,111.521c0,7.332,0.022,14.664-0.01,21.995
			c-0.014,3.028-0.942,4.557-2.628,4.608c-1.799,0.056-3.259-1.894-3.513-4.652c-0.089-0.972-0.231-1.938-0.349-2.908
			c-0.753,0.599-1.564,1.137-2.25,1.806c-9.422,9.201-25.573,6.957-33.45-4.113c-7.677-10.787-5.477-27.313,8.185-34.65
			c8.276-4.445,18.24-3.819,25.255,3.083c0.476,0.467,0.93,0.959,1.433,1.394c0.225,0.194,0.547,0.275,0.825,0.408
			c0.111-0.303,0.313-0.604,0.318-0.908c0.033-2.5-0.037-5.002,0.068-7.497c0.047-1.12,0.201-2.345,0.709-3.31
			c0.617-1.17,1.677-2.19,3.245-1.735c1.43,0.416,2.155,1.466,2.149,2.985c-0.004,1,0.012,2,0.012,3
			C314.233,97.857,314.232,104.688,314.232,111.521z M308.082,114.541c1.027-9.267-9.163-18.014-17.056-17.527
			c-9.766,0.604-16.973,7.482-16.976,17.5c-0.003,10.022,7.198,16.916,16.947,17.524
			C298.942,132.533,309.089,123.802,308.082,114.541z"/>
		<path fill-rule="evenodd" clip-rule="evenodd" d="M452.863,114.208c0.104-11.229,7.098-19.565,17.979-22.5
			c7.29-1.965,13.273,0.461,19.233,3.881c0.978,0.562,1.806,1.492,2.505,2.405c1.007,1.312,1.001,2.81,0,4.136
			c-0.696,0.922-1.579,1.706-2.401,2.529c-7.404,7.417-14.822,14.821-22.215,22.25c-1.919,1.929-1.886,2.007,0.67,3.284
			c5.642,2.819,11.156,2.489,16.497-0.785c1.266-0.775,2.426-1.73,3.6-2.648c1.197-0.938,2.357-1.173,3.558-0.039
			c1.299,1.225,1.307,2.703,0.469,4.07c-0.592,0.965-1.478,1.836-2.413,2.489c-15.075,10.529-32.606,2.721-37.097-13.119
			C452.717,118.291,452.973,116.197,452.863,114.208z M475.994,97.085c-3.905-0.386-7.031,1.313-10.076,3.489
			c-6.814,4.868-9.142,14.436-5.149,21.627c1.165,2.1,1.45,2.194,3.21,0.452c6.146-6.089,12.268-12.201,18.346-18.359
			c1.219-1.234,2.198-2.705,3.29-4.067c-1.72-0.957-3.355-2.145-5.185-2.794C479.081,96.953,477.482,97.175,475.994,97.085z"/>
		<path fill-rule="evenodd" clip-rule="evenodd" d="M111.867,114.61c-1.299-10.701,8.787-23.837,23.304-23.668
			c13.841,0.161,23.222,12.295,23.275,23.506c0.056,11.619-9.854,23.748-23.621,23.665
			C120.307,138.025,110.64,124.951,111.867,114.61z M152.043,114.791c0.053-9.791-7.121-17.556-16.292-17.633
			c-10.366-0.087-17.677,6.965-17.732,17.105c-0.055,10.07,7.112,17.121,16.693,17.775C143.211,132.618,153,123.478,152.043,114.791
			z"/>
		<path fill-rule="evenodd" clip-rule="evenodd" d="M372.928,114.346c-1.233-10.11,8.417-23.401,23.07-23.407
			c13.684-0.005,23.596,12.008,23.509,23.777c-0.083,11.029-9.446,23.313-23.388,23.396
			C381.68,138.195,371.613,125.199,372.928,114.346z M413.106,114.529c1.022-9.251-9.157-18.006-17.066-17.515
			c-9.753,0.606-16.964,7.498-16.965,17.51c0,10.031,7.191,16.908,16.959,17.514C403.955,132.528,414.116,123.814,413.106,114.529z"
			/>
		<path fill-rule="evenodd" clip-rule="evenodd" d="M216.065,114.218c0-5.998,0.015-11.996-0.011-17.995
			c-0.006-1.525-0.087-3.096,1.269-4.104c0.737-0.548,1.902-1.245,2.556-1.006c0.911,0.334,1.892,1.367,2.183,2.306
			c0.498,1.608,0.484,3.375,0.685,5.075c1.251-1.078,2.388-2.337,3.771-3.205c7.463-4.675,15.248-6.102,23.483-1.997
			c8.563,4.268,12.611,11.515,13.121,20.742c0.357,6.478,0.072,12.992,0.071,19.489c0,0.5,0.024,1.006-0.042,1.498
			c-0.203,1.502-1.865,3.021-3.339,3.092c-1.395,0.066-2.684-1.104-2.814-2.9c-0.156-2.156-0.071-4.329-0.074-6.495
			c-0.007-4.832-0.239-9.678,0.052-14.492c0.476-7.889-7.002-16.023-14.585-17.036c-9.245-1.233-17.231,4.262-19.29,13.248
			c-0.511,2.231-0.794,4.556-0.852,6.845c-0.125,4.996-0.038,9.997-0.04,14.995c0,1,0.029,2.001-0.027,2.999
			c-0.085,1.509-0.921,2.712-2.375,2.702c-0.978-0.007-2.31-0.717-2.83-1.53c-0.654-1.022-0.859-2.47-0.876-3.738
			C216.02,126.549,216.065,120.383,216.065,114.218z"/>
		<path fill-rule="evenodd" clip-rule="evenodd" d="M210.184,114.705c0,5.665,0.001,11.33,0,16.996c0,1,0.049,2.004-0.031,2.998
			c-0.146,1.802-1.904,3.563-3.522,3.401c-1.747-0.176-2.521-1.362-2.698-3.058c-0.156-1.492-0.425-2.972-0.645-4.456
			c-1.106,1-2.134,2.109-3.333,2.982c-8.833,6.438-21.67,6.089-29.372-2.105c-4.835-5.145-7.256-10.987-7.488-17.82
			c-0.197-5.826-0.006-11.663-0.062-17.495c-0.017-1.748,0.203-3.288,1.669-4.461c1.623-1.298,3.834-0.726,4.324,1.297
			c0.268,1.109,0.165,2.317,0.167,3.48c0.013,5.833-0.182,11.671,0.055,17.495c0.279,6.861,3.089,12.303,9.264,15.996
			c5.243,3.137,14.661,2.262,19.036-1.873c4.238-4.006,6.673-8.462,6.415-14.438c-0.244-5.655-0.055-11.329-0.05-16.995
			c0.001-0.999-0.035-2.006,0.075-2.995c0.165-1.477,1.006-2.48,2.502-2.695c1.481-0.213,3.397,1.248,3.617,2.753
			c0.143,0.981,0.074,1.996,0.075,2.995C210.186,102.708,210.184,108.706,210.184,114.705z"/>
		<path fill-rule="evenodd" clip-rule="evenodd" d="M431.108,116.223c0-5.651-0.023-11.303,0.018-16.955
			c0.01-1.433-0.474-2.16-1.991-2.115c-1.493,0.044-3.001,0.095-4.482-0.063c-1.698-0.182-2.658-1.223-2.69-2.999
			c-0.031-1.762,0.855-2.808,2.553-3.127c0.645-0.123,1.325-0.088,1.987-0.074c2.467,0.051,5.057,0.61,4.997-3.423
			c-0.02-1.291,1.498-2.693,3.257-2.474c1.718,0.214,2.621,1.443,2.47,3.167c-0.195,2.213,0.789,2.91,2.864,2.75
			c1.485-0.115,3.004-0.121,4.479,0.058c1.716,0.206,2.61,1.354,2.594,3.09c-0.018,1.743-0.953,2.862-2.665,3.033
			c-1.646,0.165-3.325,0.142-4.98,0.047c-1.744-0.099-2.299,0.622-2.282,2.321c0.065,6.814,0.025,13.629,0.025,20.445
			c0,3.325,0.045,6.65-0.015,9.973c-0.026,1.499,0.577,2.059,2.055,2.031c3.156-0.057,6.315,0.02,9.474-0.02
			c1.502-0.02,2.611,0.6,3.214,1.91c0.9,1.955-0.392,4.223-2.694,4.303c-4.814,0.168-9.644,0.175-14.458,0.006
			c-2.486-0.088-3.669-1.806-3.703-4.929c-0.063-5.65-0.018-11.303-0.018-16.955C431.113,116.223,431.11,116.223,431.108,116.223z"
			/>
		<path fill-rule="evenodd" clip-rule="evenodd" fill="#FFFFFF" d="M94.059,108.063c0.357,1.762,0.51,3.6,1.131,5.263
			c0.577,1.546,0.007,1.54-1.211,1.589c-7.225,0.291-12.65-4.758-14.613-9.377c-2.594-6.104-1.302-12.135,3.537-16.827
			c1.01-0.98,2.28-2.03,3.574-2.268c0.928-0.171,2.016,4.429,1.331,5.922c-0.336,0.734-1.17,1.25-1.467,1.991
			c-0.604,1.51-1.313,3.085-1.417,4.669c-0.394,5.966,2.725,8.956,9.057,8.961L94.059,108.063z"/>
		<path fill-rule="evenodd" clip-rule="evenodd" fill="#FFFFFF" d="M92.993,137.966c-3.799-0.225-7.327-1.608-10.305-4.045
			c-1.189-0.972-2.017-2.636-2.48-4.148c-0.27-0.881,0.201-2.619,0.887-3.01c0.956-0.545,2.466-0.39,3.659-0.144
			c0.696,0.143,1.273,1.01,1.839,1.612c1.618,1.728,3.265,3.12,5.945,3.001c2.4-0.107,4.61-0.203,6.269-2.243
			c0.611-0.75,1.08-0.533,1.144,0.437c0.033,0.496,0.025,0.997,0.078,1.491c0.167,1.563,1.059,3.704,0.365,4.547
			c-1.01,1.227-3.135,1.582-4.83,2.179C94.807,137.909,93.939,137.858,92.993,137.966z"/>
		<path fill-rule="evenodd" clip-rule="evenodd" fill="#FFFFFF" d="M98.033,117.011c0.938,1.31,2.221,2.503,2.71,3.962
			c0.438,1.312,0.004,2.914-0.045,4.389c-0.533-1.184-1.183-2.329-1.568-3.559c-0.486-1.554-0.756-3.174-1.119-4.767L98.033,117.011
			z"/>
		<path fill-rule="evenodd" clip-rule="evenodd" fill="#FFFFFF" d="M98.011,117.036c-0.183-0.166-0.366-0.333-0.549-0.499
			c0.19,0.158,0.381,0.315,0.571,0.474L98.011,117.036z"/>
		<path fill-rule="evenodd" clip-rule="evenodd" fill="#FFFFFF" d="M308.082,114.541c1.007,9.261-9.14,17.992-17.084,17.497
			c-9.749-0.608-16.95-7.502-16.947-17.524c0.003-10.018,7.21-16.896,16.976-17.5C298.919,96.527,309.109,105.274,308.082,114.541z"
			/>
		<path fill-rule="evenodd" clip-rule="evenodd" fill="#FFFFFF" d="M475.994,97.085c1.488,0.09,3.087-0.133,4.436,0.347
			c1.829,0.649,3.465,1.837,5.185,2.794c-1.092,1.362-2.071,2.833-3.29,4.067c-6.078,6.158-12.199,12.271-18.346,18.359
			c-1.76,1.742-2.045,1.647-3.21-0.452c-3.992-7.191-1.665-16.759,5.149-21.627C468.963,98.398,472.089,96.7,475.994,97.085z"/>
		<path fill-rule="evenodd" clip-rule="evenodd" fill="#FFFFFF" d="M152.043,114.791c0.958,8.687-8.832,17.827-17.332,17.247
			c-9.581-0.654-16.748-7.705-16.693-17.775c0.055-10.14,7.366-17.192,17.732-17.105C144.922,97.235,152.096,105,152.043,114.791z"
			/>
		<path fill-rule="evenodd" clip-rule="evenodd" fill="#FFFFFF" d="M413.106,114.529c1.01,9.285-9.151,17.999-17.072,17.509
			c-9.768-0.605-16.959-7.482-16.959-17.514c0.001-10.013,7.212-16.904,16.965-17.51
			C403.949,96.523,414.129,105.278,413.106,114.529z"/>
	</g>
</g>
</svg>
