<?xml version="1.0" encoding="utf-8"?>
<!-- Generator: Adobe Illustrator 16.0.0, SVG Export Plug-In . SVG Version: 6.00 Build 0)  -->
<!DOCTYPE svg PUBLIC "-//W3C//DTD SVG 1.1//EN" "http://www.w3.org/Graphics/SVG/1.1/DTD/svg11.dtd">
<svg version="1.1" id="Layer_1" xmlns="http://www.w3.org/2000/svg" xmlns:xlink="http://www.w3.org/1999/xlink" x="0px" y="0px"
	 width="160px" height="300px" viewBox="0 0 160 300" enable-background="new 0 0 160 300" xml:space="preserve">
<g>
	<g>
		<path fill="#A6D6AF" d="M0.001,178.271c0-4.332,0-8.666,0-12.998c1.825-1.738,4.027-1.695,6.294-1.334
			c1.843,0.291,3.417,1.264,5.072,2.02c3.571,1.389,7.345,1.607,11.107,1.865c4.697,0.316,5.176-0.18,4.765-4.785
			c-0.073-0.822-0.328-1.607-0.548-2.406c-1.016-3.396-2.827-6.473-3.868-9.854c-0.112-4.18-2.18-8.202-1.03-12.483
			c1.631-3.862,4.965-6.294,7.744-9.192c0.438-0.221,0.91-0.314,1.399-0.305c1.887,0.588,3.447,1.843,5.261,2.623
			c2.264,0.973,4.2,2.373,6.276-0.579c0.923-1.313,3.018-0.986,4.675-0.601c5.61,3.149,9.528,8.085,13.596,12.87
			c0.844,2.003,1.587,4.048,2.43,6.055c3.717,8.375,5.379,17.68,11.321,25.059c-0.123,3.709-1.998,6.27-5.219,7.943
			c-1.309,0.281-2.502,0.104-3.488-0.891c-3.243-5.859-8.315-10.271-12.417-15.459c-2.861-3.615-5.75-7.252-8.937-10.613
			c-0.402-0.424-0.752-0.891-1.167-1.301c0.418,0.516,0.865,1.004,1.32,1.488c3.172,3.375,6.044,7.021,8.916,10.633
			c2.369,2.98,5.178,6.305,2.174,10.58c-5.3-0.609-7.893-5.221-11.609-8.1c-2.538-1.965-3.085-1.549-3.249,1.275
			c-0.241,4.148-0.927,8.25-1.358,12.377c-0.263,2.521-0.366,4.934,1.414,7.084c0.892,1.076,1.095,2.416,0.124,3.682
			c-7.314,3.6-15.074,5.635-23.135,6.621c-1.912-0.262-3.495-1.236-4.601-2.721C8.721,190.727,3.163,185.354,0.001,178.271z"/>
		<path fill="#4055A5" d="M74.859,271.742c-14.785-0.654-29.569-1.297-44.353-1.971c-2.142-0.102-4.276-0.34-6.414-0.516
			c-8.508-0.084-16.508-2.203-24.091-5.998c0-16.664,0-33.328,0-49.99c2.476-0.316,2.944,1.813,3.712,3.293
			c1.982,3.813,4.114,7.549,6.146,11.336c0.636,1.543,1.158,3.129,1.616,4.732c3.009,6.688,6.482,13.143,9.715,19.713
			c0.255,0.521,0.324,1.188,0.961,1.467c-0.395-0.549-0.608-1.184-0.837-1.805c-1.837-5.002-3.84-9.941-5.528-14.998
			c-0.605-1.813-1.663-3.854,0.812-5.27c6.6,0.027,12.595,2.898,18.969,4c7.454,3.184,15.653,3.037,23.334,5.215
			c2.868,2.207,6.987,2.932,8.32,6.973c-0.36,8.139,2.373,15.232,7.308,21.584C74.914,270.215,75.082,270.951,74.859,271.742z"/>
		<path fill="#84CFC7" d="M58.814,242.367c-7.963-1.756-15.925-3.514-23.888-5.271c-3.688-1.83-6.029-5.137-8.541-8.15
			c-4.761-5.711-9.708-11.273-14.177-17.229c-4.057-6.154-9.405-11.461-12.207-18.447c0-5,0-9.998,0-14.998
			c5.742,6.742,11.485,13.486,17.227,20.23c1.38,4.109,4.56,6.182,8.306,7.963c5.397,2.57,10.698,5.385,15.619,8.834
			c1.361,1.559,2.119,3.533,3.513,5.072c0.308,0.344,0.583,0.713,0.852,1.088c0.278,0.371,0.518,0.766,0.739,1.17
			c1.982,4.139,5.091,7.576,7.246,11.592c1.382,2.572,3.635,2.336,5.917,2.324c1.047,0.23,1.892,0.777,2.565,1.605
			c0.952,1.48,1.368,2.965-0.014,4.438C60.888,242.951,59.837,242.857,58.814,242.367z"/>
		<path fill="#77C58E" d="M11.048,167.373c-1.308-0.697-2.614-1.395-3.921-2.092c-4.176-2.934-5.697-7.443-7.126-12.006
			c0-12,0-23.998,0-35.997c1.119-1.949,2.858-3,5.01-3.455c0.741-0.014,1.394,0.242,1.995,0.653
			c4.307,2.896,6.278,7.649,9.244,11.619c1.296,2.435,2.442,4.931,3.097,7.627c1.268,6.333,3.228,12.52,3.949,18.965
			c0.063,0.779-0.055,1.537-0.298,2.275c-1.856,4.178-5.37,7.107-8.076,10.648C14,166.822,12.717,167.623,11.048,167.373z"/>
		<path fill="#94C941" d="M0.001,52.288c0-6.999,0-13.999,0-20.998c2.427-0.759,3.714,1.072,4.887,2.488
			c5.337,6.444,11.208,12.443,16.123,19.242c6.119,10.288,11.592,20.938,17.572,31.307c0.833,1.443,1.494,2.991,1.063,4.751
			c-1.71,2.957-4.553,4.409-7.54,5.673c-4.823-0.657-5.904-5.426-8.902-8.095C19.026,75.963,11.77,67.369,4.248,58.965
			C2.454,56.962,1.287,54.595,0.001,52.288z"/>
		<path fill="#E5E64C" d="M19.969,53.361C13.313,46.004,6.657,38.647,0.001,31.291c0-5.333,0-10.665,0-15.998
			c7.947,3.907,15.893,7.813,23.84,11.72c2.205,2.69,0.639,5.709,0.654,8.562c0.014,2.456-0.511,4.913-0.572,7.39
			C22.689,46.459,23.494,50.736,19.969,53.361z"/>
		<path fill="#AED13A" d="M0.001,52.288C9.405,62.64,19.756,72.325,24.013,86.31c2.729,4.573,1.485,9.652,1.861,14.521
			c-0.389,1.807-1.419,2.059-2.862,1.113c-1.275-0.835-2.094-2.1-2.916-3.337C14.245,89.798,8.254,81.084,2.661,72.104
			c-1.159-1.861-1.43-4.042-2.66-5.819C0.001,61.62,0.001,56.954,0.001,52.288z"/>
		<path fill="#5CC6F2" d="M12.92,211.172c7.336,8.643,14.671,17.283,22.006,25.924c-6.286-1.52-12.571-3.041-18.856-4.563
			c-0.444,0.197-0.887,0.195-1.33-0.004c-0.976-0.697-1.621-1.711-1.765-2.822c-0.487-3.748-2.404-2.039-4.132-1.18
			c-2.947-5.088-5.895-10.174-8.842-15.26c0-2.668,0-5.334,0-8C4.731,206.307,9.174,207.979,12.92,211.172z"/>
		<path fill="#E5E522" d="M0.001,66.286c8.276,12.025,16.552,24.05,24.827,36.075c2.045,1.13,2.467,3.271,3.248,5.192
			c0.402,1.829,0.56,3.644-0.377,5.38c-2.066,2.137-3.97,0.655-5.807-0.354c-3.658-2.009-5.572-5.582-7.746-8.907
			c-0.28-0.407-0.525-0.838-0.762-1.27c-0.25-0.415-0.463-0.851-0.66-1.293c-2.354-5.522-5.708-10.519-8.476-15.829
			C2.555,82.03,1.006,78.792,0,75.285C0.001,72.286,0.001,69.286,0.001,66.286z"/>
		<path fill="#7AC148" d="M6.027,115.326c-0.332-0.334-0.663-0.669-0.994-1.004c-3.144-1.299-3.634-4.495-5.032-7.041
			c0-6.333,0-12.665,0-18.998c3.257-0.399,4.301,1.913,5.285,4.304c1.176,6.985,3.454,13.816,2.987,21.04
			c-0.151,0.548-0.408,1.042-0.759,1.487C7.075,115.583,6.579,115.653,6.027,115.326z"/>
		<path fill="#76A0D4" d="M24.041,270.348c-8.014-0.361-16.027-0.725-24.04-1.088c0-2,0-4,0-6c8.03,2,16.06,3.998,24.09,5.998
			C24.075,269.621,24.058,269.984,24.041,270.348z"/>
		<path fill="#6DC6A8" d="M12.92,211.172c-4.306-1.967-8.612-3.936-12.919-5.904c0-4,0-7.998,0-11.998
			C4.308,199.236,8.614,205.205,12.92,211.172z"/>
		<path fill="#51BA6C" d="M0.001,107.28c1.677,2.347,3.354,4.693,5.032,7.041c-1.677,0.986-3.354,1.972-5.032,2.958
			C0.001,113.946,0.001,110.613,0.001,107.28z"/>
		<path fill="#E5E64C" d="M24.139,26.317c1.029-6.905,2.019-13.816,3.119-20.71c0.249-1.562,0.88-3.062,1.334-4.59
			c2.213,6.61,7.141-3.919,9.926,1.704C42.8,11.368,49.096,17.085,58.831,20.72c14.515,5.42,9.745,17.231,6.834,28.403
			c-2.234,8.576-13.864,23.176,9.679,20.373c1.961-0.233,5.771,2.256,6.23,4.1c7.674,30.831,14.951,61.762,22.316,92.667
			c-2.771-0.285-3.047-2.807-3.875-4.621c-7.678-16.823-14.807-33.891-22.627-50.646c-3.723-7.973-7.04-16.174-12.087-23.467
			c-2.312-2.204-2.816-5.208-3.543-8.104c-0.439-1.749-0.969-2.535-2.374-0.61c-1.188,1.628-2.533,3.124-4.767,3.295
			c-1.005-0.009-1.971-0.245-2.935-0.481c-9.147-2.243-11.763-5.863-11.202-15.487c-0.693-7.192,0.437-14.268,1.354-21.354
			c1.377-10.642-1.722-14.888-12.153-16.607C27.732,27.859,25.653,27.93,24.139,26.317z"/>
		<path fill="#030303" d="M116.025,189.145c0.516,0.326,1.031,0.652,1.547,0.979c0.6,0.395,1.145,0.869,1.789,1.195
			c6.588,5.123,10.869,11.668,12.299,19.969c-0.342,0.316-0.746,0.479-1.213,0.49c-3.342-0.76-3.793-4.211-5.797-6.219
			c-0.328-0.303-0.631-0.627-0.934-0.953c-0.322-0.307-0.623-0.633-0.928-0.957c-2.559-2.912-5.906-4.572-9.43-5.957
			c-1.279-0.365-2.486-0.932-3.74-1.354c-1.58-0.563-3.17-1.295-4.549,0.396c-0.535,1.998,0.229,3.838,0.662,5.711
			c0.146,0.406,0.26,0.828,0.346,1.252c0.143,0.623,0.234,1.256,0.326,1.889c0.119,0.625,0.35,1.227,0.479,1.852
			c0.094,0.646,0.145,1.305,0.404,1.914c0.367,0.592,0.617,1.221,0.678,1.92c1.787,4.916,3.006,10.021,5.107,14.826
			c1.012,3.244,2.414,6.416,1.859,9.949c0.662,1.896,1.324,3.791,1.988,5.688c0.623,1.883,1.074,3.857,1.875,5.637
			c3.014,6.688,1.559,12.582-2.697,18.123c-0.383,0.41-0.818,0.754-1.299,1.045c-14.32,9.191-32.748,3.313-40.325-12.896
			c-1.99-4.26-3.326-8.688-2.9-13.479c0.019-0.813,0.078-1.619,0.248-2.414c0.119-0.521,0.311-1.016,0.553-1.488
			c5.16-9.85,11.264-12.592,23.204-10.438c2.938,0.625,4.438-0.176,3.605-3.494c-0.551-2.201-0.688-4.498-1.471-6.656
			c-0.938-3.674-1.764-7.369-2.438-11.1c-2.104-8.209-3.75-16.514-5.455-24.809c0.992-4.518,1.826-5.135,5.375-2.918
			c5.215,3.26,10.449,6.471,15.848,9.414l-0.082-0.035c0.688,0.699,1.752,0.592,2.494,1.168c0.465,0.305,0.93,0.607,1.395,0.912
			C115.246,188.576,115.615,188.891,116.025,189.145z"/>
		<path fill="#D9E12C" d="M66.013,86.292c12.626,26.658,25.252,53.315,37.877,79.973c-0.314,4.664-0.627,9.328-0.941,13.994
			c-1.734,1.139-2.68,0.152-3.465-1.277c-0.391-1.084,0.197-2.271-0.236-3.318c-1.18-2.854-2.59-2.916-4.105-0.211
			c-1.283,0.492-2.369-0.113-3.172-0.912c-2.719-2.711-5.322-4.775-9.775-4.477c-3.448,0.234-5.415-3.523-4.53-6.711
			c0.717-0.441,1.484-0.809,2.299-0.945c4.086-0.695,4.383-3.096,3.379-6.576c-3.354-11.653-6.36-23.403-9.755-35.045
			c-2.655-9.102-5.024-18.284-7.646-27.396C65.276,91.084,64.006,88.629,66.013,86.292z"/>
		<path fill="#DAE12D" d="M24.139,26.317c24.539-1.075,20.141,15.011,17.942,30c-0.524,3.576-0.095,7.291-0.104,10.942
			c-1.994,0.655-3.164-0.681-4.168-1.948c-4.829-6.092-9.445-12.345-13.86-18.745c-0.685-0.993-0.97-2.086-0.93-3.278
			c0.274-5.425,0.548-10.85,0.823-16.276C23.835,26.735,23.935,26.504,24.139,26.317z"/>
		<path fill="#A2CC3B" d="M77.042,164.346c5.973,3.59,11.946,7.182,17.918,10.771c2.783-0.703,4.123,0.883,5.021,3.168
			c0.986,0.658,1.979,1.316,2.967,1.973c2.699,2,5.396,4,8.098,5.998c-5.691-2.879-11.623-5.379-16.986-8.773
			c-3.342-2.113-3.076-0.555-3.104,1.785c-2.275,0.766-4.004-1.328-6.164-1.176c-2.031-0.359-3.324-2.268-5.393-2.553
			c-2.154-0.697-3.809-2.029-5.037-3.92c-0.252-0.447-0.43-0.92-0.56-1.416c-0.358-2.338-0.671-4.672,0.798-6.795
			C75.837,162.611,76.517,163.279,77.042,164.346z"/>
		<path fill="#8DC745" d="M114.84,265.086c6.09-7.305,3.455-15.385,2.084-23.355c4.33,8.307,9.096,16.479,7.945,26.43
			c-2.471,0.074-2.428-2.438-3.705-3.566c-0.973-2.129-1.139-0.176-1.502,0.352c-1.605,2.32-2.695,5.33-6.447,4.709
			c-1.219-1.109-0.385-2.092,0.189-3.09C113.773,265.961,114.506,265.717,114.84,265.086z"/>
		<path fill="#4860AC" d="M113.635,196.359c3.463,2.145,6.926,4.289,10.391,6.432c0.133,0.637,0.549,1.09,0.986,1.529l-0.041-0.111
			c0.402,0.486,0.639,1.064,0.891,1.633c0.223,0.596,0.533,1.146,0.807,1.719c0.365,1.213,1.404,2.24,1.004,3.662
			c-0.174,0.424-0.477,0.719-0.891,0.904c-1.871-2.012-3.742-4.023-5.613-6.039c-0.883-0.203-1.699-0.504-2.092-1.428
			c-0.438-1.705-1.973-2.32-3.219-3.221C113.803,200.316,112.361,198.93,113.635,196.359z"/>
		<path fill="#DBE037" d="M114.936,236.045c-1.012-3.156-2.023-6.313-3.035-9.471c-0.059-1.832-1.916-3.988,0.953-5.293
			C117.85,225.596,120.707,230.211,114.936,236.045z"/>
		<path fill="#D0DF59" d="M112.854,221.281c-0.318,1.764-0.637,3.529-0.953,5.293c-1.678-5.379-3.355-10.76-5.033-16.139
			c-0.223-0.396-0.434-0.799-0.631-1.205c-0.133-0.625-0.268-1.248-0.398-1.871c-0.186-0.436-0.535-0.777-0.668-1.24
			c0.021-0.475,0.045-0.953,0.068-1.43c1.266-1.102,1.904-0.201,2.512,0.791C109.451,210.748,111.152,216.014,112.854,221.281z"/>
		<path fill="#B8CF39" d="M74.859,271.742c-0.279-0.422-0.56-0.846-0.84-1.27c-0.242-0.232-0.361-0.492-0.359-0.777
			c0-0.299,0.033-0.449,0.093-0.449c3.327-1.16,4.217,3.111,7.012,3.135c0.878,0.166,1.691,0.506,2.468,0.943
			c0.574,0.313,1.127,0.664,1.674,1.023c0.742,0.469,1.461,0.973,2.148,1.518c1.693,1.713,4.475,2.279,5.252,4.959
			c-0.066,0.217-0.137,0.432-0.205,0.646C86.354,278.229,80.607,274.984,74.859,271.742z"/>
		<path fill="#75C8DD" d="M113.635,196.359c1.195,1.699,2.393,3.396,3.586,5.098c-0.643,0.74-1.611,0.244-2.352,0.627
			c-2.588-0.549-5.176-1.098-7.764-1.645c-0.127-0.186-0.254-0.363-0.381-0.545c0.006-0.699,0.229-1.461,0.813-1.695
			c1.174-0.467,2.035-0.873,0.979-2.234c0.26-0.697,0.646-1.152,1.473-0.777C111.203,195.576,112.418,195.967,113.635,196.359z"/>
		<path fill="#B9CF82" d="M114.871,202.082c0.781-0.209,1.563-0.42,2.346-0.627c0.908,1.035,1.813,2.068,2.715,3.102
			c-0.838,0.311-1.604,0.41-1.959-0.676C116.938,203.281,115.904,202.682,114.871,202.082z"/>
		<path fill="#D7E58F" d="M98.143,282.256c-0.033,0.322-0.094,0.637-0.18,0.947c-1.955-0.578-3.91-1.156-5.861-1.732l-0.223-0.246
			C94.328,279.377,96.375,279.971,98.143,282.256z"/>
		<path fill="#78C145" d="M113.457,187.389c-0.832-0.389-1.662-0.779-2.494-1.168C111.795,186.609,112.627,187,113.457,187.389z"/>
		<path fill="#62BC49" d="M119.361,191.318c-0.594-0.398-1.189-0.797-1.787-1.195C118.168,190.521,118.766,190.92,119.361,191.318z"
			/>
		<path fill="#73BF46" d="M116.025,189.145c-0.393-0.281-0.783-0.563-1.176-0.844C115.242,188.582,115.633,188.863,116.025,189.145z
			"/>
		<path fill="#7AC147" d="M10.916,99.209c1.043,0.69,2.086,1.379,3.13,2.069l-0.1-0.038c0.457,0.439,0.875,0.907,1.117,1.506
			c3.941,3.563,7.882,7.125,11.823,10.688c1.646,0.356,2.199,1.596,2.479,3.058c0.489,4.31,2.675,8.518,0.802,12.975
			c-2.36,2.63-4.721,5.26-7.082,7.891c-3.37,0.693-3.796-2.189-5.005-4.121c-1.074-2.368-2.148-4.736-3.222-7.104
			c-3.415-6.789-4.443-14.228-5.767-21.571C8.737,102.601,7.904,100.163,10.916,99.209z"/>
		<path fill="#77C58E" d="M41.879,192.471c-0.289-0.082-0.563-0.197-0.823-0.35c-7.101-8.652-0.828-17.82-1.033-26.74
			c3.699,2.504,7.406,4.996,11.09,7.52c1.628,1.115,3.212,2.297,4.816,3.447c0.645,0.453,0.881,1.109,0.935,1.859
			c-0.064,3.131-2.92,4.867-3.783,7.604c-0.699,1.316-1.606,2.441-2.929,3.182c-0.423,0.213-0.872,0.365-1.333,0.477
			C45.946,189.166,43.339,189.486,41.879,192.471z"/>
		<path fill="#93D2C4" d="M11.048,167.373c3.672-4.063,7.344-8.125,11.017-12.188c3.575-0.305,4,3.051,5.706,4.918
			c0.195,3.146,0.389,6.299,0.583,9.445C22.585,168.824,16.816,168.098,11.048,167.373z"/>
		<path fill="#93CA61" d="M75.017,163.432c-0.029,2.607-0.061,5.213-0.09,7.82c0.141,1.287,0.331,2.588-1.047,3.408
			c-7.489-6.818-8.362-16.721-11.853-25.402c1.626-1.63,3.367-0.671,5.087-0.23c1.459,0.578,2.66,1.516,3.713,2.658
			C73.246,155.232,74.941,159.043,75.017,163.432z"/>
		<path fill="#93D3C4" d="M56.069,178.207c-0.046-0.619-0.093-1.24-0.14-1.861c-0.785-11.188-10.755-16.67-15.694-25.277
			c-0.313-0.545-0.553-1.135-0.827-1.703c0.273-0.066,0.717-0.271,0.796-0.176c8.543,10.395,17.059,20.813,25.576,31.229
			c-1.882,1.709-3.899,1.08-5.924,0.352C58.418,180.178,56.99,179.568,56.069,178.207z"/>
		<path fill="#93CA63" d="M39.741,122.322c0.813,1.326,1.625,2.653,2.438,3.979c-2.239,3.771-5.455,4.694-11.097,3.184l-0.458-0.039
			c0,0-0.459,0.02-0.459,0.021c-0.698-4.428-1.396-8.856-2.095-13.285C33.272,115.736,36.658,118.742,39.741,122.322z"/>
		<path fill="#87C543" d="M60.109,179.484c1.891,0.311,3.781,0.621,5.671,0.932c1.086,0.346,2.172,0.693,3.258,1.041
			c0.461,0.406,0.768,0.906,0.92,1.502c0.258,2.328-0.516,4.146-2.616,5.314c-4.259,1.225-8.699,0.938-13.041,1.5
			c-1.608,0.209-3.272-0.098-4.351-1.627c0.694-0.887,1.387-1.77,2.081-2.65C54.314,182.939,56.033,179.627,60.109,179.484z"/>
		<path fill="#E7EA80" d="M69.136,182.354c-0.031-0.301-0.064-0.6-0.098-0.895c1.615-2.27,3.229-4.535,4.842-6.799
			c0.349-1.135,0.697-2.271,1.047-3.406l0.02,0.082c2.369,5.24,4.356,10.646,7.032,15.758c0.676,1.289,1.275,2.908-0.014,4.143
			c-1.363,1.311-2.86,0.412-4.029-0.459C74.662,188.34,70.916,186.361,69.136,182.354z"/>
		<path fill="#93D3C3" d="M31.083,129.485c3.699-1.062,7.397-2.123,11.096-3.184c1.622,1.636,3.243,3.271,4.865,4.907
			C41.176,135.708,35.881,134.897,31.083,129.485z"/>
		<path fill="#51BA6C" d="M18.079,133.237c1.668,1.374,3.337,2.747,5.005,4.121c0.341,4.598,0.683,9.196,1.024,13.792
			c-0.271,1.088-0.263,2.449-2.029,2.07C20.746,146.562,19.413,139.899,18.079,133.237z"/>
		<path fill="#7AC251" d="M22.079,153.223c0.676-0.689,1.353-1.381,2.029-2.07c1.221,2.982,2.441,5.967,3.663,8.949
			c-1.903-1.639-3.805-3.275-5.707-4.914C22.069,154.531,22.074,153.877,22.079,153.223z"/>
		<path fill="#92C744" d="M67.023,150.264c-1.666-0.336-3.331-0.67-4.997-1.006c-0.665-1.961-1.33-3.922-1.996-5.883l0.135,0.01
			C64.272,143.861,66.582,146.132,67.023,150.264z"/>
		<path fill="#729AD1" d="M66.531,262.721c-5.772,0-7.379,0.461-8.521-0.072c-8.266-3.875-16.438-7.947-24.639-11.961
			c9.674-0.998,16.743,5.941,25.307,8.336C59.982,259.389,61.168,260.172,66.531,262.721z"/>
		<path fill="#8CC642" d="M15.119,232.166c0.317,0.123,0.634,0.244,0.951,0.367c-0.016,0.332-0.123,0.688-0.033,0.988
			c2.551,8.482,5.123,16.965,7.691,25.441c-4.524-8.564-9.048-17.135-13.571-25.705C11.359,230.848,13.098,230.867,15.119,232.166z"
			/>
		<path fill="#F4EA45" d="M74.156,269.154c-0.047,0.438-0.092,0.877-0.137,1.316c-5.977-6.271-9.114-13.523-7.721-22.344
			c0.581-0.998-0.75-3.58,2.182-2.633c1.285,4.604,1.594,9.479,3.764,13.842c-0.266,3.066,1.412,5.625,2.242,8.408
			C74.525,268.25,74.414,268.719,74.156,269.154z"/>
		<path fill="#51BA74" d="M15.119,232.166c-1.654,0.365-3.308,0.73-4.962,1.094c-0.438-1.578-0.876-3.154-1.314-4.732
			c2.246,0.131-0.631-7.801,4.32-2.881C14.578,227.053,14.508,229.951,15.119,232.166z"/>
		<path fill="#91B7E1" d="M67.958,245.234c-0.553,0.965-1.107,1.932-1.661,2.895c-2.494-1.922-4.988-3.842-7.483-5.762
			c1.071-0.057,2.142-0.113,3.212-0.168c2.102-1.723,4.439-2.057,6.982-1.18C70.188,242.805,69.613,244.154,67.958,245.234z"/>
		<path fill="#92D2C4" d="M40.901,216.064c0.37-6.941,0.739-13.885,1.109-20.826c0.591-0.445,1.069-0.129,1.544,0.223
			c0.426,0.391,0.789,0.836,1.129,1.301c0.455,0.605,0.865,1.24,1.274,1.877c0.33,0.469,0.649,0.943,0.982,1.41
			c0.473,0.637,0.933,1.279,1.421,1.906c0.286,0.314,0.547,0.641,0.819,0.967c0.148,0.162,0.281,0.33,0.431,0.494
			c0.313,0.334,0.592,0.688,0.87,1.047c5.025,6.846,8.703,14.49,13.024,21.748c0.936,1.572,1.654,3.264,1.48,5.182
			c-0.709,2.674-1.699,5.188-4.06,6.885c-0.648-0.34-1.296-0.68-1.944-1.02c-5.397-4.328-10.015-9.385-14.01-15.021l0.052,0.061
			c-0.375-0.402-0.795-0.76-1.246-1.074C42.819,219.5,41.86,217.781,40.901,216.064z"/>
		<path fill="#7AC691" d="M44.971,222.236c4.67,5.008,9.34,10.014,14.01,15.021C48.325,237.832,49.495,227.379,44.971,222.236z"/>
		<path fill="#7AC691" d="M43.777,221.219c0.415,0.357,0.831,0.717,1.246,1.076C44.608,221.936,44.192,221.576,43.777,221.219z"/>
		<path fill="#92D1C2" d="M10.916,99.209c1.314,8.974,2.627,17.949,3.941,26.923c-2.944-3.603-5.888-7.205-8.831-10.807
			c0.317,0.053,0.626,0.027,0.93-0.079c0.271-0.191,0.382-0.405,0.336-0.642c-0.048-0.249-0.111-0.373-0.188-0.373
			c-1.011-7.31-2.021-14.619-3.031-21.928C6.355,94.606,8.635,96.908,10.916,99.209z"/>
		<path fill="#E9E62F" d="M55.115,123.188c-0.371-0.301-0.743-0.602-1.114-0.902c-6.125-8.188-8.883-18.04-13.377-27.034
			c-0.708-2.047-1.99-3.953-1.57-6.283C32.692,77.1,26.331,65.23,19.97,53.361c1.015-3.357,2.032-6.715,3.048-10.073
			c6.32,7.991,12.64,15.981,18.959,23.972c-1.32,9.93,5.425,12.373,13.021,14.024c-3.209,6.57,0.661,12.072,2.73,17.823
			c2.365,6.572,5.015,13.038,7.465,19.578c0.743,1.981,1.982,3.917,1.114,6.211C62.137,127.208,58.603,125.347,55.115,123.188z"/>
		<path fill="#93CA62" d="M26.908,107.327c-0.692-1.656-1.385-3.311-2.078-4.967c-0.273-5.35-0.545-10.7-0.817-16.05
			c2.614,2.642,5.227,5.283,7.841,7.924c1.171,1.236,0.606,2.759,0.7,4.174c0.687,4.802,4.506,8.8,3.597,14.012
			C31.545,113.491,29.172,110.505,26.908,107.327z"/>
		<path fill="#84CFC6" d="M31.181,98.225c0.225-1.33,0.449-2.66,0.673-3.991c2.399-1.755,4.799-3.509,7.2-5.264
			c0.869,1.723,1.737,3.445,2.605,5.168c-0.469,3.663,3.011,6.783,1.464,10.598c-1.397,3.045-3.405,1.787-5.237,0.627
			C35.056,103.571,33.234,100.776,31.181,98.225z"/>
		<path fill="#E5E982" d="M26.908,107.327c2.959,1.638,5.918,3.276,8.877,4.914c1.833,0.163,1.84,1.631,2.092,2.925
			c0.622,2.386,1.243,4.771,1.864,7.158c-3.891-2.047-7.781-4.094-11.671-6.141c-0.395-0.917-0.79-1.833-1.185-2.749
			C26.893,111.399,26.9,109.362,26.908,107.327z"/>
		<path fill="#77C58E" d="M7.105,114.232c0.092,0.267,0.204,0.53,0.254,0.804c0.008,0.044-0.261,0.14-0.402,0.211
			C7.005,114.909,7.055,114.57,7.105,114.232z"/>
		<path fill="#DAE471" d="M66.05,124.318c-2.951-14.533-17.076-26.197-11.052-43.035c10.644-13.664,7.234,3.578,11.014,5.008
			c6.108,22.527,11.681,45.221,18.599,67.498c2.711,8.732-0.238,10.479-7.569,10.557c-0.674-0.305-1.35-0.609-2.025-0.916
			c-1.689-3.695-3.38-7.393-5.068-11.092c0.301-3.339,2.815-5.52,4.347-8.208c3.292-5.786,2.856-8.629-2.181-12.896
			C69.751,129.23,66.863,127.683,66.05,124.318z"/>
		<path fill="#3F5CAA" d="M82.623,274.127c-0.496-0.313-0.994-0.625-1.49-0.938c-3.092-0.848-4.561-3.426-6.211-5.814
			c-1.605-2.578-3.178-5.17-3.461-8.301c-2.24-5.133-3.627-10.367-1.645-15.912c0.596-1.662,0.916-3.621,3.025-4.246
			c1.293,24.395,22.229,37.959,41.151,26.664l0.428,0.254l-0.223,0.445c-0.336,1.055-0.672,2.107-1.008,3.162
			c-0.25,4.865-5.281,9.301-11.461,10.295c-5.902,0.949-11.158-0.822-16.242-3.516c-0.328-0.297-0.656-0.592-0.984-0.889
			C83.803,275.043,83.24,274.543,82.623,274.127z"/>
		<path fill="#E5E522" d="M72.917,237.217c-2.58-2.131-5.161-4.264-7.742-6.395c-0.203-6.369,1.621-12.465,2.596-18.668
			c0.557-3.539,3.182-3.865,6.098-2.777c6.996,2.607,13.885,5.469,20.577,8.809c0.49,0.279,0.906,0.643,1.264,1.072
			c1.439,2.566,2.518,5.148,0.275,7.842C85.848,224.896,77.917,227.715,72.917,237.217z"/>
		<path fill="#435CAA" d="M85.096,177.404c1.953,0.621,3.904,1.242,5.857,1.863c1.91,8.395,3.816,16.789,5.729,25.186
			c-2.717,1.203-4.551-0.615-6.541-1.904c-2.932-3.789-3.361-8.324-3.822-12.85C86.08,185.584,82.932,181.756,85.096,177.404z"/>
		<path fill="#71C7DA" d="M91.031,202.318c1.883,0.713,3.766,1.424,5.648,2.135c0.883,4.197,1.766,8.393,2.646,12.59
			c-1.26,1.586-2.775,1.496-4.404,0.674c-2.229-3.607-2.152-8.057-4.25-11.721C90.113,204.705,89.865,203.441,91.031,202.318z"/>
		<path fill="#5466AF" d="M95.016,217.279c1.438-0.08,2.875-0.16,4.313-0.238c0.752,3.652,1.506,7.303,2.26,10.955
			c-1.869-0.299-3.736-0.598-5.604-0.898c-0.35-2.518-0.693-5.033-1.039-7.553C94.354,218.771,94.393,218.016,95.016,217.279z"/>
		<path fill="#86C546" d="M72.84,238.916c-4.668,7.078-2.986,14.252-0.33,21.441c-0.504,0.295-0.956,0.229-1.354-0.195
			c-1.065-4.977-2.131-9.953-3.197-14.928c0.337-1.227,0.675-2.447,1.011-3.668c1.338-1.449,2.677-2.9,4.017-4.354
			C72.938,237.783,72.889,238.35,72.84,238.916z"/>
		<path fill="#84CBA8" d="M106.898,200.066c-0.656,1.148-1.313,2.301-1.965,3.453c-0.643-2.666-1.281-5.332-1.92-8
			c2.123-1.555,3.891-0.424,5.652,0.748C108.078,197.533,107.488,198.799,106.898,200.066z"/>
		<path fill="#80C14B" d="M130.918,211.441c-0.035,0.879-0.068,1.756-0.104,2.633c-1.242-0.977-2.482-1.953-3.725-2.93
			c-0.432-1.283-0.859-2.564-1.291-3.85c-0.213-0.365-0.434-0.729-0.656-1.092c-0.061-0.666-0.115-1.33-0.172-1.996
			C126.953,206.619,128.936,209.031,130.918,211.441z"/>
		<path fill="#3D63A8" d="M108.668,196.268c-1.885-0.25-3.77-0.5-5.654-0.75c2.324-0.109,4.648-0.223,6.977-0.332
			C109.547,195.547,109.107,195.906,108.668,196.268z"/>
		<path fill="#0D6492" d="M105.168,206.121c0.225,0.412,0.445,0.826,0.668,1.24C105.613,206.947,105.391,206.533,105.168,206.121z"
			/>
		<path fill="#49BA83" d="M125.012,204.32c-0.33-0.51-0.658-1.021-0.986-1.529C124.354,203.299,124.682,203.811,125.012,204.32z"/>
		<path fill="#5DCAE8" d="M114.195,266.279c-0.076-0.232-0.145-0.465-0.205-0.701c0.283-0.164,0.566-0.328,0.85-0.494
			C114.625,265.482,114.41,265.881,114.195,266.279z"/>
		<path fill="#0991A9" d="M106.234,209.23c0.211,0.398,0.42,0.803,0.631,1.205C106.656,210.035,106.445,209.631,106.234,209.23z"/>
		<path fill="#F3EC53" d="M99.982,178.285c-1.674-1.055-3.348-2.111-5.021-3.168c0.371-1.697,0.742-3.393,1.115-5.088
			c0.74,0.576,1.846,1.002,2.152,1.754C99.072,173.859,104.02,174.922,99.982,178.285z"/>
		<path fill="#D2DE2D" d="M91.031,202.318c0.166,0.979,0.33,1.959,0.496,2.938c0.816,0.326,0.975,0.971,0.846,1.752
			c-2.193,1.586-3.875,0.066-5.18-1.236c-5.768-5.77-12.622-10.25-18.54-15.832c-0.621-0.854-0.727-1.809-0.535-2.814
			c0.338-1.59,0.677-3.184,1.016-4.771c4.13,2.422,8.26,4.844,12.389,7.266c-2.194-6.096-4.385-12.189-6.579-18.281
			c1.615,1.012,3.231,2.02,4.846,3.031c2.375,3.451,3.723,7.391,5.167,11.26c0.609,1.635,1.324,2.939,2.922,3.678
			C88.93,193.641,89.98,197.98,91.031,202.318z"/>
		<path fill="#8DD1C5" d="M85.484,276.221c10.391,2.465,20.859,5.25,27.703-6.779c4.5,1.105,2.428-9.416,8.811-4.979
			c-3.053,12.502-12.566,16.34-23.855,17.795c-2.086-0.344-4.174-0.688-6.262-1.029C89.75,279.557,87.615,277.889,85.484,276.221z"
			/>
		<path fill="#4BC8F2" d="M125.143,206.205c0.219,0.365,0.438,0.729,0.656,1.092C125.58,206.934,125.361,206.57,125.143,206.205z"/>
		<path fill="#D99E28" d="M75.968,267.074c1.721,2.037,3.441,4.076,5.165,6.113c-2.327-1.346-4.654-2.688-6.979-4.033
			c0.002-0.229,0-0.455-0.008-0.682C74.26,267.363,74.849,266.873,75.968,267.074z"/>
		<path fill="#67CCE9" d="M82.623,274.127c0.625,0.402,1.25,0.805,1.877,1.209C83.875,274.932,83.248,274.529,82.623,274.127z"/>
		<path fill="#91C842" d="M69.254,189.129c7.51,6.059,15.021,12.115,22.531,18.172c1.701,3.75,3.617,7.461,2.176,11.791
			c-0.486-0.066-1.08,0.021-1.445-0.225c-15.395-10.352-26.332-10.57-27.339,11.953c-0.356,0.061-0.714,0.121-1.071,0.18
			c-5.054-8.857-10.109-17.717-15.164-26.576c-0.236-0.445-0.577-0.809-0.92-1.17l-0.008-0.014
			c-0.325-0.256-0.569-0.576-0.734-0.955c-0.432-0.652-0.864-1.303-1.295-1.955c-0.3-0.328-0.567-0.68-0.799-1.059
			c-0.406-0.637-0.812-1.27-1.218-1.898c-0.284-0.375-0.57-0.75-0.876-1.107c-0.359-0.342-0.719-0.686-1.079-1.029
			c0.04-0.602,0.079-1.201,0.119-1.805c2.548-1.305,4.492,0.299,6.552,1.355c0.394,0.242,0.767,0.52,1.133,0.803
			c0.38,0.254,0.747,0.529,1.118,0.795c0.196,0.115,0.382,0.246,0.579,0.361c0.409,0.205,0.806,0.43,1.21,0.643
			c3.595,1.615,7.269,3.053,10.76,4.889c2.721,1.436,3.915,0.574,3.977-2.455c0.064-3.104-0.374-6.246,0.527-9.305
			C68.175,189.869,68.583,189.365,69.254,189.129z"/>
		<path fill="#65BD5E" d="M48.989,196.291c-2.287-0.953-4.574-1.906-6.86-2.857c-0.083-0.32-0.167-0.643-0.25-0.963
			c-0.182-5.902,4.001-4.088,7.175-4.057C51.14,191.055,51.245,193.682,48.989,196.291z"/>
		<path fill="#189F49" d="M48.989,196.291c0.022-2.627,0.043-5.254,0.065-7.879c0.296-0.094,0.596-0.184,0.896-0.266
			c6.056-0.342,12.112-0.684,18.168-1.023c0.377,0.67,0.756,1.338,1.135,2.008c3.662,22.547-8.056,14.33-18.265,9.131
			c-0.307-0.359-0.661-0.668-1.027-0.965l0.005,0.006c-0.303-0.373-0.611-0.738-0.991-1.035L48.989,196.291z"/>
		<path fill="#70C6A6" d="M60.109,179.484c-2.692,2.002-5.385,4.006-8.078,6.01c1.346-2.428,2.692-4.857,4.038-7.285
			C57.417,178.633,58.763,179.059,60.109,179.484z"/>
		<path fill="#E7EA81" d="M66.05,124.318c12.877,7.729,16.079,16.804,3.898,28.02c-0.976-0.689-1.951-1.383-2.926-2.074
			c-2.286-2.292-4.572-4.585-6.857-6.878c4.095-8.178-3.094-13.533-5.051-20.197C58.76,123.565,62.405,123.941,66.05,124.318z"/>
		<path fill="#A7D7B0" d="M42.107,105.167c0.363,1.687,0.726,3.374,1.09,5.061c-1.772,1.646-3.545,3.293-5.318,4.939
			c-0.698-0.977-1.395-1.952-2.092-2.927c-1.536-4.671-3.071-9.344-4.606-14.016C34.823,100.539,38.465,102.854,42.107,105.167z"/>
		<path fill="#B8CF39" d="M75.968,267.074c-0.607,0.465-1.215,0.932-1.823,1.396c-0.997-2.768-1.993-5.537-2.989-8.309
			c0.449,0.063,0.898,0.127,1.352,0.189C73.664,262.596,74.816,264.836,75.968,267.074z"/>
		<path fill="#65BD5E" d="M43.088,196.268c0.292,0.367,0.584,0.736,0.876,1.105C43.673,197.004,43.381,196.635,43.088,196.268z"/>
		<path fill="#65BD5E" d="M45.183,199.271c0.266,0.355,0.532,0.707,0.798,1.061C45.715,199.979,45.449,199.625,45.183,199.271z"/>
		<path fill="#65BD5E" d="M48.019,203.254c0.307,0.391,0.613,0.781,0.92,1.172C48.632,204.035,48.325,203.645,48.019,203.254z"/>
		<path fill="#65BD5E" d="M47.277,202.285c0.245,0.32,0.49,0.637,0.734,0.957C47.767,202.922,47.522,202.604,47.277,202.285z"/>
		<path fill="#677FBF" d="M93.961,219.092c-0.725-3.93-1.451-7.859-2.176-11.791c-0.086-0.682-0.172-1.363-0.258-2.045
			c1.162,4.008,2.324,8.016,3.486,12.023c-0.023,0.754-0.049,1.51-0.072,2.266C94.617,219.395,94.289,219.244,93.961,219.092z"/>
		<path fill="#65BD5E" d="M49.961,197.297c0.343,0.322,0.685,0.643,1.027,0.965C50.647,197.939,50.304,197.617,49.961,197.297z"/>
		<path fill="#65BD5E" d="M48.975,196.268c0.331,0.344,0.661,0.689,0.992,1.035C49.636,196.957,49.306,196.611,48.975,196.268z"/>
	</g>
</g>
</svg>
