<?xml version="1.0" encoding="utf-8"?>
<!-- Generator: Adobe Illustrator 16.0.0, SVG Export Plug-In . SVG Version: 6.00 Build 0)  -->
<!DOCTYPE svg PUBLIC "-//W3C//DTD SVG 1.1//EN" "http://www.w3.org/Graphics/SVG/1.1/DTD/svg11.dtd">
<svg version="1.1" id="Layer_1" xmlns="http://www.w3.org/2000/svg" xmlns:xlink="http://www.w3.org/1999/xlink" x="0px" y="0px"
	 width="585.179px" height="234.469px" viewBox="-85.241 265.469 585.179 234.469"
	 enable-background="new -85.241 265.469 585.179 234.469" xml:space="preserve">
<g>
	<g>
		<path fill="none" d="M-144.936,367.298c-3.845-7.741-7.69-15.48-11.535-23.224c5.369-1.36,10.886-2.335,16.021-4.307
			c1.635-0.629,3.188-3.972,3.051-5.951c-0.116-1.658-2.641-3.272-4.316-4.641c-0.694-0.567-1.953-0.441-3.506-0.732
			c4.816-7.63,9.367-14.838,13.917-22.045c-0.609-0.383-1.217-0.764-1.828-1.146c-4.399,6.8-8.799,13.598-13.041,20.151
			c-3.011-1.322-5.542-2.437-8.255-3.627c4.43-7.068,8.787-14.022,13.145-20.977c-0.58-0.353-1.159-0.705-1.737-1.058
			c-6.727,10.262-13.454,20.523-20.181,30.783c-13.61-27.403-27.221-54.806-40.841-82.229
			C-42.861,168.242,118.319,88.187,279.791,7.987c61.668,124.162,123.349,248.345,185.028,372.528
			c-4.281,6.621-8.396,13.36-12.944,19.793c-1.407,1.989-3.821,4.154-6.062,4.53c-17.49,2.934-32.096,11.219-44.92,23.114
			c-1.29,1.195-2.885,2.918-4.346,2.926c-9.979,0.051-19.962-0.292-30.572-0.522c0.665-2.19,1.028-3.347,1.363-4.509
			c3.845-13.314-2.687-31.257-14.252-38.94c-7.22-4.797-14.836-5.17-22.494-1.249c-7.121,3.645-8.332,10.491-8.363,17.512
			c-0.067,14.114,15.008,32.124,30.166,31.826c10.066-0.201,20.151,0.481,30.227,0.806c2.811,0.091,5.615,0.304,8.702,0.476
			c-2.879,5.211-3.027,5.276-7.625,4.629c-20-2.817-39.923-5.498-59.902,0.849c-3.718,1.18-8.035,0.871-10.56-5.178
			c-8.651-20.72-18.334-41.011-27.736-61.414c-2.566-5.571-4.07-5.938-9.681-3.204c-10.846,5.284-21.676,10.593-32.511,15.889
			c-7.925,3.874-15.761,7.964-23.848,11.462c-1.928,0.835-6.261,0.481-6.844-0.665c-3.263-6.435-7.859-12.593-6.695-20.561
			c0.134-0.908-0.677-2.324-1.48-2.931c-2.384-1.801-5.178-3.081-7.455-4.989c-3.531-2.956-6.708-6.332-10.159-9.39
			c-1.392-1.233-3.111-2.104-5.174-3.462c4.878-2.423,8.967-4.452,13.237-6.574c4.625,21.974,22.867,32.653,36.393,33.448
			c9.906,0.584,14.309-1.554,18.101-10.763c3.331-8.091,1.618-15.603-4.49-22.668c-10.855-12.552-28.515-16.944-43.143-9.682
			c-7.255,3.604-14.564,7.11-21.742,10.86c-2.991,1.563-5.235,1.858-8.208-0.496c-2.211-1.755-5.659-3.153-8.358-2.864
			c-7.648,0.819-15.418,1.876-22.723,4.172c-8.701,2.735-19.712,11.293-19.122,24.015c0.157,3.363-1.715,4.866-4.48,6.463
			c-14.626,8.441-31.427,12.468-45.26,22.435c-1.206,0.87-2.615,2.485-2.645,3.786c-0.15,6.79,0.02,13.594,0.273,20.386
			c0.15,4.03-1.63,6.97-5.329,7.681c-5.721,1.094-11.594,1.438-17.414,1.962c-3.898,0.353-13.18-6.587-13.885-10.316
			c-0.155-0.819,0.072-1.764,0.313-2.597c3.241-11.226-0.705-16.729-12.506-17.827c-5.316-0.494-9.78-2.867-12.412-6.347
			c9.711-0.863,19.677-1.646,29.613-2.718c2.057-0.222,4.094-1.343,5.976-2.355c7.788-4.198,11.414-11.4,12.869-19.598
			c1.229-6.905,6.47-9.649,11.673-14.196c0.866,7.717,1.657,14.267,2.322,20.829c0.951,9.39-2.956,16.479-10.844,21.277
			c-4.089,2.487-8.57,4.335-12.876,6.474c0.35,0.737,0.703,1.475,1.052,2.212c5.006-2.411,10.575-4.095,14.866-7.425
			c4.854-3.769,8.253-9.349,12.827-13.55c11.313-10.399,22.814-20.603,34.485-30.599c6.36-5.444,9.963-12.292,11.469-20.226
			c1.17-6.157,1.93-12.461,2.095-18.719c0.156-5.854,1.485-10.947,5.39-15.366c0.77-0.869,1.025-2.191,1.519-3.304
			c-0.54-0.437-1.078-0.876-1.619-1.314c-23.537,21.213-47.074,42.423-71.39,64.34c-2.641-18.544-13.727-27.617-29.295-31.703
			c-16.179-4.247-31.557-3.1-44.746,8.974c-7.89,7.223-17.05,7.689-26.054,2.228c-6.025-3.656-12.439-5.147-19.59-3.645
			c-1.847,0.388-4.654-0.744-6.122-2.131c-6.646-6.264-14.246-6.309-22.137-3.736c-6.878,2.244-9.981,7.294-10.072,14.553
			c-0.013,1.022-1.11,2.032-1.704,3.05c0.841-11.682-3.099-20.704-11.188-28.062c-5.13-4.666-11.182-5.602-15.824-2.78
			c-5.119,3.111-7.732,9.584-5.598,16.09c1.466,4.471,4.104,8.555,6.357,13.093C-135.54,356.861-142.03,359.915-144.936,367.298z"/>
		<path fill="#09D588" d="M-144.936,367.298c2.903-7.384,9.394-10.436,16.645-13.221c-2.253-4.535-4.892-8.621-6.357-13.091
			c-2.134-6.508,0.478-12.978,5.597-16.09c4.643-2.821,10.694-1.887,15.825,2.78c8.089,7.357,12.028,16.379,11.187,28.06
			c0.595-1.016,1.693-2.024,1.706-3.048c0.091-7.259,3.194-12.308,10.072-14.551c7.891-2.573,15.49-2.528,22.136,3.736
			c1.468,1.385,4.275,2.517,6.121,2.127c7.151-1.501,13.564-0.012,19.591,3.646c9.003,5.464,18.165,4.997,26.055-2.226
			c13.188-12.074,28.567-13.221,44.745-8.977c15.571,4.087,26.655,13.159,29.296,31.705c24.316-21.914,47.852-43.128,71.39-64.34
			c0.54,0.438,1.079,0.878,1.619,1.314c-0.493,1.112-0.749,2.435-1.519,3.305c-3.904,4.418-5.234,9.512-5.391,15.365
			c-0.164,6.259-0.925,12.562-2.095,18.719c-1.506,7.934-5.109,14.78-11.47,20.226c-11.671,9.994-23.172,20.198-34.485,30.597
			c-4.574,4.203-7.973,9.783-12.827,13.552c-4.292,3.33-9.861,5.014-14.866,7.425c-0.35-0.736-0.703-1.474-1.052-2.212
			c4.305-2.138,8.786-3.984,12.876-6.474c7.888-4.799,11.796-11.887,10.843-21.278c-0.664-6.562-1.455-13.111-2.321-20.827
			c-5.206,4.545-10.443,7.288-11.674,14.196c-1.457,8.194-5.083,15.399-12.869,19.597c-1.882,1.013-3.92,2.133-5.976,2.355
			c-9.936,1.072-19.903,1.855-29.613,2.719c2.63,3.476,7.094,5.85,12.412,6.346c11.802,1.1,15.747,6.603,12.507,17.828
			c-0.241,0.832-0.468,1.775-0.313,2.596c0.704,3.731,9.987,10.67,13.884,10.317c5.82-0.525,11.694-0.868,17.414-1.964
			c3.701-0.707,5.479-3.65,5.329-7.681c-0.252-6.79-0.422-13.594-0.272-20.384c0.03-1.301,1.439-2.916,2.646-3.785
			c13.833-9.968,30.632-13.994,45.259-22.438c2.766-1.596,4.636-3.099,4.48-6.463c-0.588-12.72,10.421-21.279,19.123-24.015
			c7.303-2.297,15.074-3.351,22.722-4.171c2.698-0.29,6.146,1.109,8.358,2.862c2.973,2.355,5.217,2.061,8.208,0.498
			c7.178-3.753,14.487-7.256,21.743-10.86c14.628-7.264,32.29-2.87,43.143,9.682c6.107,7.064,7.82,14.579,4.49,22.669
			c-3.793,9.208-8.195,11.345-18.102,10.763c-13.525-0.798-31.767-11.475-36.393-33.447c-4.27,2.121-8.358,4.151-13.236,6.575
			c2.06,1.355,3.78,2.225,5.172,3.46c3.453,3.057,6.629,6.431,10.16,9.389c2.277,1.908,5.07,3.188,7.454,4.987
			c0.804,0.608,1.614,2.024,1.481,2.934c-1.163,7.968,3.432,14.123,6.693,20.559c0.584,1.146,4.917,1.501,6.846,0.667
			c8.088-3.498,15.92-7.587,23.848-11.463c10.834-5.297,21.666-10.604,32.509-15.891c5.611-2.734,7.115-2.366,9.683,3.207
			c9.402,20.401,19.086,40.692,27.735,61.413c2.525,6.05,6.843,6.356,10.561,5.177c19.979-6.346,39.902-3.665,59.901-0.848
			c4.596,0.648,4.747,0.583,7.625-4.629c-3.084-0.173-5.891-0.385-8.701-0.477c-10.075-0.322-20.161-1.006-30.228-0.805
			c-15.158,0.299-30.232-17.712-30.167-31.826c0.032-7.021,1.243-13.868,8.364-17.513c7.657-3.92,15.273-3.547,22.495,1.251
			c11.565,7.682,18.096,25.624,14.252,38.939c-0.334,1.162-0.698,2.319-1.362,4.509c10.609,0.23,20.592,0.572,30.57,0.522
			c1.461-0.007,3.058-1.731,4.346-2.926c12.824-11.895,27.429-20.182,44.92-23.115c2.24-0.374,4.655-2.539,6.063-4.53
			c4.547-6.434,8.661-13.172,12.943-19.793c1.763,3.548,3.523,7.096,5.286,10.645c0.098,2.984-0.229,6.056,0.369,8.933
			c1.472,7.096,3.543,14.065,5.055,21.152c3.074,14.399,0.249,12.678,15.725,12.494c0.639,1.288,1.282,2.579,1.921,3.869
			c-3.291,0.396-6.57,0.942-9.875,1.136c-2.543,0.147-4.646,0.266-4.5,3.692c0.132,3.072,0.449,6.091,4.354,6.002
			c4.947-0.11,9.885-0.744,14.829-1.153c1.442,2.902,2.885,5.805,4.325,8.709c-6.1,0.229-12.2,0.543-18.305,0.645
			c-3.178,0.054-4.63,1.346-5.604,4.501c-2.309,7.493-5.207,14.802-7.841,22.196c-0.463,1.3-0.795,2.646-1.23,4.112
			c0.983,0.442,1.631,1.004,2.246,0.971c15.213-0.771,30.422-1.604,45.631-2.428c0.962,1.936,1.924,3.869,2.886,5.806
			c-2.26,1.121-4.518,2.243-6.775,3.364c-16.896-0.965-46.596,1.528-48.198,3.145c2.333,6.204,4.459,11.865,6.589,17.522
			c-14.192,7.05-28.384,14.099-42.577,21.147c-0.207-0.864-0.602-1.729-0.593-2.591c0.093-8.678-6.917-18.43-15.547-21.272
			c2.175,9.642,4.319,19.155,6.465,28.668c-3.228,1.604-6.452,3.205-9.679,4.808c-0.473-1.424-0.948-2.847-1.646-4.942
			c-2.093,1.54-3.469,3.14-5.182,3.685c-3.111,0.99-6.698,2.403-9.562,1.649c-2.496-0.653-5.962-4.06-5.95-6.234
			c0.012-2.937,2.326-6.869,4.853-8.415c1.553-0.949,5.367,1.702,8.119,2.853c1.145,0.478,2.163,1.253,3.238,1.895
			c0.281-1.468,1.169-3.151,0.733-4.359c-1.313-3.629-2.86-7.237-4.818-10.558c-4.092-6.935-10.188-6.936-14.334-0.194
			c-4.021,6.541-7.913,13.164-12.025,19.648c-2.088,3.293-1.56,5.101,2.266,6.291c6.324,1.966,12.559,4.233,18.828,6.372
			c-1.936,0.961-3.872,1.923-5.806,2.883c-5.591-1.818-11.187-3.618-16.769-5.465c-3.086-1.019-5.084-0.284-5.894,3.547
			c5.122,1.979,10.021,3.869,14.921,5.763c-5.484,2.724-10.967,5.447-16.45,8.171c-6.508-2.369-7.308-1.972-10.646,5.288
			c-48.705,24.191-97.41,48.382-146.115,72.573c0.204-2.873,0.408-5.743,0.698-9.809c-7.3,4.286-11.188,9.43-13.278,16.057
			c-42.899,21.308-85.799,42.614-128.699,63.922c-1.033-0.89-2.01-2.466-3.115-2.563c-12.313-1.085-24.646-1.941-36.974-2.858
			c-7.37-14.837-14.739-29.677-22.109-44.514c1.444-0.363,3.668-0.265,4.201-1.166c3.123-5.302,5.851-10.84,8.783-16.426
			c-8.899-2.163-13.418,0.283-17.309,8.884c-0.802-1.613-1.603-3.226-2.404-4.838c1.674-3.396,3.348-6.793,5.638-11.435
			c-4.394-0.067-7.898-0.124-11.404-0.177c-1.282-2.581-2.563-5.161-3.845-7.742c3.415-3.38,6.828-6.763,10.726-10.621
			c-5.319,1.45-9.705,2.649-14.091,3.848c-6.569-13.227-13.137-26.449-19.706-39.674c2.277,1.484,4.398,3.685,6.882,4.227
			c2.029,0.445,4.492-1.09,6.762-1.748c-0.566-1.871-0.663-4.14-1.821-5.509c-1.424-1.678-3.613-2.879-5.685-3.799
			c-5.668-2.514-12.138-3.944-12.498-12.11c-0.038-0.844-2.745-1.568-4.213-2.351c-3.524-7.096-7.049-14.192-10.573-21.289
			c2.779-5.714,5.085-11.539,5.416-17.816c-0.481-0.158-0.961-0.316-1.441-0.478c-2.927,2.873-5.854,5.747-8.782,8.617
			c-2.403-4.838-4.807-9.676-7.21-14.514c12.759-6.514,12.558-7.585,4.395-17.245c-0.458-0.543-0.954-1.563-1.382-1.536
			c-1.73,0.11-3.573,0.247-5.129,0.933c-1.833,0.81-3.409,2.197-5.094,3.335c-5.287-10.646-10.574-21.291-15.861-31.935
			c2.153-2.848,4.7-5.491,6.307-8.62c0.942-1.832,1.02-4.627,0.395-6.652c-2.879-9.339-8.511-14.683-19.091-11.776
			c-0.328,0.088-0.711-0.025-1.069-0.044c-0.961-1.937-1.922-3.871-2.884-5.807c5.129-0.087,10.258-0.174,16.068-0.272
			c-0.154-5.126-0.293-9.817-0.437-14.664c-4.377,1.209-7.584,2.43-10.899,2.916c-3.444,0.507-6.995,0.302-10.498,0.409
			C-124.109,409.231-134.522,388.265-144.936,367.298z M34.476,551.851c3.744-3.665,7.489-7.333,11.234-10.997
			c-0.435-0.486-0.869-0.971-1.304-1.457c-4.257,2.114-8.516,4.229-12.81,6.362c1.242,2.502,2.145,4.32,3.048,6.139
			c-2.426-0.116-4.886-0.524-7.27-0.262c-2.173,0.24-4.438,0.934-6.266,2.063c-0.438,0.271,0.32,3.328,1.2,4.659
			c1.208,1.821,3.057,3.215,5.397,5.56C30.267,559.345,32.364,555.598,34.476,551.851z M256.465,457.215
			c2.418-5.958,2.791-6.025,10.523-5.279c1.687,0.163,3.911-0.648,5.205-1.787c6.433-5.663,9.55-12.816,8.987-21.52
			c-0.339-5.242-1.911-6.366-6.779-4.104c-12.396,5.761-24.713,11.689-37.138,17.387c-2.902,1.331-6.041,2.408-9.18,2.9
			c-4.8,0.751-12.293-3.955-14.343-8.908c-2.129-5.153,2.074-7.334,5.216-9.917c1.113-0.913,2.031-2.282,3.295-2.744
			c3.4-1.244,3.506-3.617,3.531-6.754c0.09-10.77,5.223-17.736,13.961-19.876c10.748-2.636,20.851-1.155,29.616,5.62
			c4.322,3.338,7.6,8,11.632,11.762c1.321,1.23,3.53,1.508,5.331,2.221c0.042-1.708,0.688-3.709,0.028-5.08
			c-4.529-9.398-9.416-18.626-14.001-27.996c-1.747-3.567-4.091-4.15-7.433-2.537c-16.523,7.972-33.139,15.759-49.487,24.068
			c-2.336,1.188-3.769,4.715-4.965,7.443c-1.925,4.388-2.977,9.165-4.979,13.511c-4.71,10.232-11.805,18.404-21.896,23.77
			c-0.881,0.467-1.531,1.362-2.595,2.343c3.308,3.23,6.353,5.597,11.04,3.749c6.348-2.502,9.198-1.373,14.401,3.38
			c2.599,2.375,6.393,4.679,9.712,4.782c8.69,0.267,17.792,3.454,25.682-4.63C244.363,456.428,250.912,457.762,256.465,457.215z
			 M309.637,448.524c-6.713,3.332-13.482,6.561-20.092,10.086c-1.452,0.774-2.603,2.466-3.441,3.983
			c-9.102,16.408-23.547,23.371-41.729,23.907c-1.956,0.057-3.9,0.488-7.398,0.949c5.833,3.556,7.12,11.514,15.215,7.5
			c4.979-2.47,9.294-0.287,11.534,4.523c2.243,4.816,0.948,9.02-3.685,12.065c-0.908,0.598-1.746,1.302-1.758,1.311
			c4.472,2.377,10.169,3.764,13.02,7.388c2.792,3.549,2.687,9.379,3.988,14.769c3.581-0.672,8.208-1.541,11.415-2.144
			c1.076-3.594,1.417-7.429,2.443-7.623c2.285-0.43,4.915,0.965,8.858,1.992c-0.588-2.556-0.746-4.565-1.507-6.312
			c-2.407-5.552-4.921-11.063-7.638-16.467c-1.269-2.524-3.429-4.615-4.593-7.171c-1.862-4.097-4.223-8.343-4.537-12.66
			c-0.327-4.483,4.221-4.911,7.901-5.493c1.13-0.181,2.573-1.454,2.996-2.561C294.737,465.751,301.394,456.804,309.637,448.524z
			 M-31.258,440.926c-3.167-17.924-25.765-28.048-37.156-11.573c-0.556,0.806-2.374,0.738-3.604,1.078
			c0.113-1.271-0.225-2.854,0.407-3.759c6.571-9.381,15.661-14.008,27.132-13.742c8.438,0.196,15.581,3.448,21.794,9.163
			c5.835,5.37,5.953,5.241,11.006-1.003c0.226-0.277,0.469-0.545,0.705-0.817c2.346-2.706,2.053-4.54-1.424-6.155
			c-4.355-2.022-8.416-4.684-12.747-6.765c-1.197-0.575-3.285-0.644-4.333,0.032c-7.829,5.058-15.318,3.584-22.952-0.456
			c-1.934-1.026-4.374-1.723-6.519-1.587c-4.389,0.277-8.765,1.073-13.08,1.974c-1.607,0.334-3.464,1.198-4.464,2.429
			c-7.325,9.01-10.917,19.193-9.207,31.39c5.894-0.073,11.725,2.126,16.443-3.879c1.013-1.289,5.422-0.365,8.097,0.26
			c1.953,0.457,3.582,2.969,5.433,3.064C-47.738,440.996-39.723,440.859-31.258,440.926z M-0.325,394.623
			c-3.567-7.475-3.655-12.221-0.143-16.168c4.198-4.721,9.669-4.988,15.412-3.803c0.879,0.181,1.777,0.708,2.607,0.604
			c2.265-0.289,4.879-0.235,6.673-1.381c6.492-4.145,12.713-4.072,18.989,0.436c1.484,1.067,4.641,2.21,5.286,1.567
			c1.564-1.553,2.944-4.155,2.902-6.308c-0.18-9.241-7.54-17.652-16.889-17.572c-7.477,0.062-15.273,1.78-22.318,4.404
			c-11.418,4.254-22.564,9.474-31.554,18.146c-3.123,3.012-2.887,10.792,0.385,12.246C-12.998,389.451-6.917,391.872-0.325,394.623z
			 M367.956,508.66c5.991-6.47,12.104-8.267,19.038-8.379c1.836-0.028,4.334-1.33,5.346-2.841
			c4.877-7.271,9.431-14.765,13.938-22.275c3.885-6.476,0.427-12.849-7.19-13.529c-21.12-1.889-22.184-1.478-36.503,14.105
			c-0.366,0.397-0.992,0.765-1.043,1.2c-0.189,1.584-0.899,3.754-0.146,4.705C367.313,489.115,369.225,497.584,367.956,508.66z
			 M161.522,379.104c0.742,9.573-2.809,16.579-9.703,20.019c-6.241,3.116-14.46,1.411-20.723-4.384
			c-2.24-2.073-4.395-4.241-6.488-6.462c-3.089-3.279-5.788-0.888-7.897,0.989c-0.717,0.635-0.122,4.049,0.947,5.14
			c2.858,2.919,5.947,6.259,9.606,7.554c3.432,1.212,7.986-0.915,11.542,0.134c3.859,1.139,6.987,5.857,10.691,6.192
			c10.244,0.932,19.927-2.204,28.569-7.868c1.356-0.889,2.414-3.073,2.594-4.767c0.566-5.315,3.057-8.083,8.521-8.541
			c1.173-0.096,3.234-2.334,3.097-3.346c-1.168-8.705-5.012-15.827-13.674-20.488C177.688,373.874,171.292,378.308,161.522,379.104z
			 M-112.304,360.764c0.28,2.499,0.514,4.427,0.71,6.362c1.181,11.669-4.997,16.78-16.517,13.955
			c-1.018-0.251-3.396,1.265-3.634,2.306c-0.753,3.306,0.679,5.245,4.448,5.741c6.586,0.862,12.462,3.231,15.879,9.586
			c1.413,2.629,3.477,2.595,5.887,1.151c4.349-2.604,6.679-9.622,4.601-15.911c-1.299-3.932-2.266-7.128,2.462-9.473
			c4.786-2.372,7.983-1.816,11.46,2.772c1.958,2.586,6.231,3.653,9.677,4.707c0.889,0.274,3.715-2.078,3.72-3.233
			c0.035-6.837-0.5-13.679-0.893-21.447c-1.542,1.466-2.622,2.501-3.712,3.526c-5.073,4.773-12.252,6.509-15.461,2.849
			C-99.353,357.185-105.677,360.34-112.304,360.764z M152.014,488.066c-6.239,1.063-9.438,3.874-12.69,11.29
			c-1.561,3.561,2.24,12.109,5.942,11.867c5.527-0.361,4.746,2.207,4.344,5.815c-0.704,6.347,3.146,12.341,7.771,12.801
			c7.498,0.742,17.385-10.625,15.205-17.922c-2.076-6.954-3.848-13.768-1.738-21.047c0.214-0.736-0.931-1.868-1.445-2.817
			c-0.772,0.898-1.685,1.715-2.261,2.722c-0.308,0.537-0.187,1.45,0.002,2.118c1.37,4.848-0.858,7.837-5.286,8.863
			c-4.395,1.021-8.556-0.048-9.756-5.105C151.455,493.926,152.003,490.915,152.014,488.066z M225.735,521.628
			c5.353-7.673,6.691-22.128,3.454-29.733c-3.758-8.833-18.808-10.903-22.707-5.134c-3.23,4.78-6.105,9.8-9.904,15.956
			c2.597-0.486,3.516-0.954,3.869-0.683C208.81,508.437,217.108,514.917,225.735,521.628z M259.537,569.742
			c0.493-0.334,0.986-0.671,1.48-1.007c2.54,0.568,5.06,1.421,7.627,1.601c1.787,0.124,3.637-0.679,5.458-1.065
			c-1.651-1.488-3.075-3.724-4.999-4.307c-3.716-1.122-7.832-0.903-11.57-1.974c-9.706-2.779-17.154,3.502-15.641,13.417
			c0.46,3.012,0.973,6.086,0.834,9.104c-0.236,5.123,3.049,6.466,6.989,7.149c5.432,0.943,9.714-1.029,10.934-5.195
			C262.369,581.595,265.603,575.627,259.537,569.742z M357.765,413.176c-2.919-4.407-5.383-8.781-8.497-12.633
			c-2.882-3.57-6.208-6.899-9.84-9.683c-1.558-1.192-4.717-1.522-6.514-0.756c-1.252,0.538-2.319,3.813-1.915,5.493
			c1.107,4.617,2.371,9.433,4.774,13.449c4.678,7.817,10.187,15.186,19.073,18.825c4.211,1.725,6.827-0.384,5.932-4.787
			C360.072,419.632,358.74,416.309,357.765,413.176z M330.775,470.234c-5.714-12.697-9.449-13.924-21.63-6.389
			c-1.363,0.845-2.686,1.812-3.855,2.905c-8.935,8.353-9.787,12.364-4.466,23.803C310.749,483.821,320.516,477.195,330.775,470.234z
			 M332.857,521.015c3.302-0.708,5.287-0.778,6.929-1.563c2.815-1.348,6.028-2.616,7.968-4.867
			c3.118-3.622,1.409-7.722-1.628-10.508c-2.999-2.752-6.609-4.316-10.148,0.032c-3.054,3.753-6.582,7.117-9.836,10.716
			c-3.771,4.167-7.471,8.4-11.249,12.657c7.902,4.726,18.918,3.962,23.355-1.356C336.859,524.809,335.471,523.491,332.857,521.015z
			 M333.007,454.818c5.045,10.365,11.636,16.795,19.284,19.443c1.434,0.498,3.874,0.585,4.763-0.269
			c4.488-4.319,8.614-9.013,12.869-13.574c-0.119-0.534-0.237-1.069-0.354-1.603C357.811,457.53,346.048,456.245,333.007,454.818z
			 M255.186,429.31c0.518,0.472,1.038,0.945,1.559,1.419c6.39-3.177,12.838-6.242,19.102-9.65c0.836-0.455,1.49-3.137,0.957-3.934
			c-4.79-7.146-10.31-13.563-19.752-14.195c-1.566-0.103-3.965,0.493-4.615,1.583c-0.694,1.161-0.309,3.639,0.533,4.937
			C256.986,415.664,259.434,421.944,255.186,429.31z M114.979,561.824c10.585,6.653,10.585,6.653,9.013,16.886
			c8.794-7.94,16.513-14.907,24.316-21.95C141.08,549.974,122.531,553.265,114.979,561.824z M10.23,470.957
			c2.229,1.47,4.323,3.494,6.817,4.361c4.858,1.692,9.395,0.669,13.515-2.719c5.622-4.62,5.96-5.347-0.019-9.737
			c-3.503-2.572-7.816-4.093-11.86-5.867c-6.759-2.966-8.477-2.014-9.148,5.302C9.299,464.874,9.925,467.527,10.23,470.957z
			 M-45.417,384.889c6.935,1.287,8.222,0.351,9.352-6.656c0.568-3.513,1.509-6.981,2.498-10.408
			c0.714-2.479,1.638-4.629-1.247-6.562c-4.663-3.123-9.108-1.644-13.053,0.827c-1.535,0.962-2.716,4.271-2.34,6.171
			C-49.104,373.797-47.136,379.16-45.417,384.889z M153.359,418.631c1.888,2.448,3.944,4.908,5.771,7.531
			c2.149,3.091,4.737,3.344,7.231,0.902c6.527-6.385,12.902-12.929,19.175-19.563c0.673-0.712,0.285-2.422,0.393-3.669
			c-1.12,0.096-2.394-0.119-3.335,0.338C173.025,408.825,163.507,413.592,153.359,418.631z M203.72,543.274
			c0.056-0.485,0.114-0.973,0.171-1.459c-3.375-1.922-6.998-3.515-10.078-5.831c-8.639-6.499-8.655-6.759-17.389-0.34
			c-3.086,2.27-5.518,5.432-8.247,8.188c0.343,0.55,0.683,1.101,1.026,1.65C180.708,544.745,192.213,544.011,203.72,543.274z
			 M21.375,494.501c-6.715,3.864-9.692,8.622-8.8,15.271c0.215,1.605,0.982,3.877,2.15,4.409c1.199,0.544,3.552-0.217,4.778-1.191
			c3.783-2.997,7.36-6.278,10.834-9.637c1.71-1.652,3.017-3.723,4.508-5.604c-2.404-1.338-4.677-3.247-7.251-3.842
			C25.336,493.383,22.737,494.335,21.375,494.501z M308.316,488.646c-4.521,2.853-8.751,5.294-12.682,8.148
			c-1.046,0.759-1.805,2.862-1.623,4.207c1.22,9.025,5.305,16.618,12.393,22.41c0.777,0.634,2.407,0.224,3.641,0.298
			c-0.254-1.288-0.066-3.026-0.84-3.786c-3.283-3.222-4.896-6.836-4.104-11.468C306.146,502.354,307.092,496.237,308.316,488.646z
			 M178.082,647.256c-0.068-0.546-0.137-1.094-0.204-1.641c-5.22-1.962-10.396-4.057-15.698-5.764
			c-0.931-0.3-2.824,0.694-3.52,1.643c-2.962,4.046-5.729,8.247-8.37,12.513c-0.656,1.057-1.217,3.205-0.694,3.73
			c0.96,0.967,3.136,1.916,4.146,1.45C161.943,655.396,169.988,651.276,178.082,647.256z M96.22,468.569
			c-5.436-5.258-8.269-12.156-16.225-12.745c-2.527-0.188-5.721-2.413-6.734,1.5c-0.852,3.288-1.679,7.229,2.471,9.523
			c4.525,2.502,8.953,5.207,13.624,7.397c1.368,0.641,4.063,0.473,4.992-0.466C95.595,472.521,95.715,470.151,96.22,468.569z
			 M228.582,608.933c0.818-1.363,1.564-2.605,2.311-3.85c-1.041-0.528-2.156-1.628-3.107-1.5
			c-8.592,1.177-15.658-2.247-22.536-6.772c-1.214-0.8-4.284-0.97-4.807-0.231c-1.852,2.611-4.29,5.861-4.043,8.653
			c0.321,3.63,10.169,6.207,14.094,5.145c4.172-1.13,8.597-1.387,12.933-1.84C224.957,608.376,226.545,608.758,228.582,608.933z
			 M303.503,445.529c-4.179-8.409-8.323-16.892-12.662-25.272c-0.413-0.796-2.03-0.97-3.088-1.433
			c-0.346,1.227-1.038,2.481-0.948,3.672c0.121,1.564,1.072,3.048,1.297,4.619c1.155,7.988,2.19,15.993,3.324,24.411
			C295.053,449.724,298.975,447.777,303.503,445.529z M432.132,473.213c1.902,5.072,6.673,4.846,10.752,5.85
			c3.151,0.775,4.973-1.186,4.318-3.687c-1.365-5.229-2.984-10.615-5.81-15.116c-0.986-1.568-5.893-1.168-8.874-0.746
			c-1.137,0.162-2.771,2.976-2.663,4.47C430.08,467.099,431.313,470.141,432.132,473.213z M438.625,421.047
			c-8.049-2.562-25.413,3.157-31.215,10.508c5.416,0.172,10.398,0.353,15.38,0.484C433.666,432.333,434.186,431.976,438.625,421.047
			z M153.085,592.773c15.559,0.066,19.026-4.832,17.966-24.558c-2.561,1.443-5.061,2.195-6.561,3.854
			c-1.99,2.195-3.287,5.047-4.717,7.705C157.619,583.779,155.605,587.857,153.085,592.773z M75.774,387.835
			c9.348-5.477,13.128-28.146,6.829-37.146C74.067,361.807,78.392,374.951,75.774,387.835z M98.93,336.742
			c-4.85,3.682-4.85,3.682-7.894,37.479C99.824,369.907,103.785,351.095,98.93,336.742z M11.724,617.969
			c4.518-0.902,10.014-1.709,15.294-3.25c1.378-0.404,2.54-2.997,2.919-4.774c0.201-0.937-1.401-3.187-2.354-3.289
			c-5.976-0.635-10.323-3.614-13.447-8.739c-0.539,0.048-1.073,0.099-1.611,0.146C12.266,604.478,12.007,610.891,11.724,617.969z
			 M105.789,360.451c9.317-5.347,13.239-25.115,7.679-37.899C104.211,334.263,110.968,348.59,105.789,360.451z M428.674,439.239
			c-0.29-0.688-0.579-1.373-0.869-2.06c-7.84-0.253-15.682-0.391-23.514-0.806c-4.584-0.244-7.266,1.792-9.104,6.244
			c9.379,2.396,18.433,2.731,27.445,0.872C424.845,443.033,426.669,440.707,428.674,439.239z M47.311,623.024
			c-3.132,3.404-6.087,6.614-9.94,10.801c-0.079-3.303-0.122-4.958-0.174-7.083c-5.616,1.937-2.969,6.591-3.85,9.757
			c-0.106,0.38,2.765,1.749,4.358,2.411c4.401,1.829,8.862,3.511,13.281,5.298c1.096,0.44,2.117,1.067,2.729,1.384
			C51.686,638.433,49.724,631.523,47.311,623.024z M-0.776,637.179c7.373,0.732,14.741,1.505,22.123,2.127
			c0.653,0.057,1.695-0.702,2.034-1.354c1.585-3.061,2.991-6.219,4.586-9.607C16.997,627.51,4.976,630.608-0.776,637.179z
			 M312.41,506.798c9.822,3.617,16.491,0.888,20.45-8.761c-3.468-0.955-6.665-2.245-9.971-2.666
			C313.869,494.226,310.291,498.593,312.41,506.798z M-45.087,464.261c7.356-4.213,11.782-9.444,13.432-17.781
			c-6.72,0.174-12.837,0.331-19.036,0.492C-48.771,452.897-47.073,458.135-45.087,464.261z M97.32,439.268
			c-0.301,0.199-1.25,0.544-1.737,1.22c-1.087,1.509-1.945,3.182-2.896,4.789c1.72,0.716,3.424,1.994,5.164,2.045
			c4.804,0.146,9.634-0.062,14.429-0.441c3.384-0.269,4.168-2.048,2.388-5.137C112.027,437.167,104.246,435.821,97.32,439.268z
			 M3.795,578.03c0.009,0.02,0.019,0.039,0.028,0.058c1.609-0.799,3.195-1.65,4.835-2.386c2.664-1.195,4.367-2.732,2.221-5.73
			c-1.727-2.411-3.06-5.765-7.026-2.756c-3.287,2.498-6.869,4.629-9.99,7.306c-0.958,0.823-1.611,3.515-1.018,4.29
			c0.95,1.243,3.175,2.378,4.647,2.153C-0.309,580.626,1.704,579.068,3.795,578.03z M330.823,538.737
			c5.488,10.926,16.311,10.292,25.225,13.542c0.979,0.357,2.622-1.107,3.955-1.726c-0.487-0.979-0.76-2.589-1.494-2.838
			C349.318,544.609,340.063,541.698,330.823,538.737z M296.093,550.434c-0.155-0.719-0.31-1.438-0.465-2.157
			c-1.938,1.974-4.036,3.821-5.741,5.983c-0.729,0.922-0.631,2.493-0.91,3.771c1.158,0.116,2.375,0.522,3.466,0.303
			c9.032-1.81,18.051-2.709,27.155-0.449c0.567,0.141,1.325-0.485,1.993-0.755c0.064-0.576,0.128-1.152,0.191-1.729
			c-5.234-1.252-10.444-2.637-15.718-3.709C302.791,551.026,299.42,550.838,296.093,550.434z M82.813,432.564
			c0.045,0.356,0.09,0.713,0.136,1.069c-1.279,0.635-2.675,1.107-3.807,1.942c-1.776,1.306-3.374,2.855-5.045,4.301
			c1.891,0.93,3.757,1.911,5.679,2.771c0.8,0.358,1.801,0.305,2.565,0.711c3.864,2.061,6.34,1.086,7.577-3.162
			c0.854-2.935,1.857-5.825,2.792-8.734C89.412,431.83,86.114,432.198,82.813,432.564z M450.699,438.018
			c4.971,12.101,4.991,12.266,12.208,11.356c1.631-0.205,4.465-2.223,4.334-3.002c-0.457-2.729-1.411-6.956-3.197-7.556
			C460.242,437.542,455.796,438.19,450.699,438.018z M17.312,656.934c-1.76,3.173-3.417,6.295-5.211,9.341
			c-1.376,2.339-2.567,4.56,0.805,6.206c2.99,1.459,5.827,3.74,8.846-0.375C25.909,666.432,25.19,663.209,17.312,656.934z
			 M191.204,630.471c0.375-0.449,0.75-0.894,1.127-1.341c-3.359-4.102-6.557-8.355-10.198-12.188
			c-0.805-0.849-3.645-0.869-4.73-0.106c-1.902,1.339-3.322,3.489-4.514,5.549c-0.142,0.246,2.237,2.468,3.729,3.048
			C181.409,627.294,186.333,628.817,191.204,630.471z M20.326,600.515c0.593,0.232,1.183,0.461,1.776,0.692
			c6.728-5.823,10.607-13.281,12.441-22.091c-8.267,0.819-8.929,1.482-10.317,8.572c-0.438,2.245-1.566,4.348-2.25,6.554
			C21.338,596.306,20.87,598.42,20.326,600.515z M106.253,501.507c-10.015-5.788-19.503-11.273-28.993-16.759
			C83.069,496.091,98.716,504.863,106.253,501.507z M68.973,616.379c-6.771,6.392-10.268,17.667-6.831,23.776
			c3.185-5.785,6.119-11.251,9.188-16.64C73.257,620.13,72.533,617.834,68.973,616.379z M438.439,498.695
			c0.434,6.026,0.831,11.592,1.317,18.346c1.888-1.287,3.409-1.761,3.859-2.731c1.707-3.695,3.317-7.477,4.494-11.369
			c1.136-3.761-0.85-5.333-4.571-4.934C442.136,498.159,440.739,498.381,438.439,498.695z M329.938,560.129
			c4.541,4.382,8.367,8.318,12.509,11.893c0.957,0.829,4.152,0.908,4.333,0.486c1.078-2.525,2.526-7.49,2.12-7.666
			C342.992,562.261,337.064,559.087,329.938,560.129z M144.56,603.299c8.512,6.691,18.333,2.533,24.344-8.254
			C160.409,597.926,153.071,600.413,144.56,603.299z M133.198,620.243c4.15,5.933,7.762,11.097,11.656,16.667
			c1.254-1.67,2.333-3.252,3.561-4.707c2.909-3.451,2.674-6.004-1.928-7.513C142.286,623.315,138.103,621.887,133.198,620.243z
			 M381.663,515.025c-7.578-2.978-13.284,0.525-13.042,7.547c0.063,1.833,1.643,3.709,2.852,5.322
			c0.211,0.278,2.554-0.342,3.064-1.112C377.05,523.002,379.276,519.03,381.663,515.025z M189.351,473.526
			c-2.043-0.885-4.04-2.545-5.101-2.078c-6.77,2.98-13.333,6.429-19.966,9.724c3.45,1.643,7.211,3.193,9.801,2.062
			C179.188,481.001,183.64,477.281,189.351,473.526z M-13.753,600.664c3.202,2.119,5.979,3.737,8.493,5.691
			c2.129,1.655,4.128,3.517,6.245,0.381c1.868-2.773,2.385-5.599-1.056-7.896C-4.967,595.578-9.19,597.037-13.753,600.664z
			 M103.171,481.615c3.185,2.113,5.394,4.054,7.966,5.12c1.663,0.69,4.784,0.892,5.616-0.084c1.722-2.016,2.414-4.942,3.277-7.58
			c0.051-0.151-2.31-1.703-3.277-1.471C112.44,478.632,108.225,480.075,103.171,481.615z M54.434,666.163
			c3.602,0.675,5.998,1.571,8.325,1.42c1.963-0.128,5.505-1.563,5.467-2.258c-0.132-2.379-0.997-5.267-2.654-6.806
			c-0.997-0.925-4.456-0.366-5.959,0.711C57.654,660.631,56.539,663.209,54.434,666.163z M47.292,452.604
			c4.054,2.986,7.758,5.719,11.787,8.689c2.217-3.877,3.997-7.467,0.805-9.974C56.408,448.59,51.992,448.257,47.292,452.604z
			 M409.848,490.77c2.54,0.147,4.804,0.586,6.96,0.28c1.172-0.166,3.221-1.999,3.068-2.397c-1.283-3.394-2.981-6.634-4.555-9.917
			c-1.392,0.824-3.629,1.373-4.01,2.531C410.391,484.062,410.339,487.144,409.848,490.77z M109.984,666.498
			c-0.4,5.885-0.707,10.448-1.016,15.009c0.581,0.29,1.165,0.579,1.746,0.868c3.1-2.784,6.2-5.568,9.782-8.782
			C116.748,671.063,114.02,669.222,109.984,666.498z M168.607,539.292c-5.042-1.725-9.864-2.891-14.229-4.999
			c-4.565-2.208-6.098-0.691-5.495,0.852c5.546,1.628,11.093,3.256,16.638,4.883c-0.313,1.352-0.627,2.704-0.94,4.058
			C166.005,542.392,167.43,540.694,168.607,539.292z M93.916,669.514c3.87,0.593,8.096,4.223,10.835-0.94
			c1.071-2.02,2.507-5.453-1.873-6.963C95.55,659.083,96.347,665.925,93.916,669.514z M174.664,360.689
			c-6.947,3.451-12.758,6.337-19.219,9.546C163.236,372.611,171.59,368.669,174.664,360.689z M135.919,641.965
			c-0.775-6.568-0.902-12.782-6.53-17.093C123.924,631.116,124.896,633.659,135.919,641.965z M-4.53,554.599
			c-3.307-4.066-5.645-4.396-8.95-1.121c-3.358,3.323-7.493,5.871-11.32,8.714c-2.085,1.547-4.239,3.001-6.362,4.497
			c0.199,0.278,0.398,0.561,0.596,0.84C-22.031,563.291-13.496,559.052-4.53,554.599z M-70.167,490.854
			c2.343-3.679,4.718-7.244,6.843-10.952c0.254-0.442-0.668-2.142-1.365-2.403c-1.022-0.385-2.973-0.469-3.416,0.136
			c-2.326,3.162-4.396,6.526-6.308,9.959c-0.338,0.605,0.216,2.188,0.858,2.725C-72.903,490.861-71.635,490.665-70.167,490.854z
			 M-78.429,458.077c0.948-0.1,1.896-0.202,2.846-0.304c1.103-2.786,2.205-5.569,3.308-8.357c-2.564-0.746-5.095-1.734-7.712-2.121
			c-1.06-0.158-2.319,0.993-3.486,1.55C-81.792,451.922-80.111,455.001-78.429,458.077z M459.366,503.962
			c-0.858-0.065-1.714-0.133-2.568-0.2c-2.348,4.473-4.696,8.944-7.511,14.312c5.914-0.044,9.365-1.993,10.643-5.979
			C460.698,509.688,459.616,506.69,459.366,503.962z M130.081,442.286c-7.73-5.775-9.401-17.173-19.453-20.737
			C117.492,428.144,119.859,438.798,130.081,442.286z M188.578,550.167c-3.082,0.138-5.625,0.252-8.09,0.36
			c-0.192,2.336-0.029,4.157-0.562,5.746c-0.502,1.499-1.731,2.755-2.839,4.414C185.788,561.342,185.967,561.182,188.578,550.167z
			 M459.184,420.997c-2.862,4.244-5.112,7.584-8.113,12.037c4.977-0.17,8.895-0.302,13.857-0.47
			C462.683,428.044,461.149,424.956,459.184,420.997z M69.305,612.284c0.503,0.685,1.006,1.372,1.508,2.056
			c2.084-0.646,5.159-0.663,6.053-2.065c1.993-3.129,5.413-6.499,1.62-12.49C75.039,604.478,72.172,608.379,69.305,612.284z
			 M159.304,362.396c-2.19-6.087-5.69-6.831-10.223-3.975c-2.261,1.426-3.491,3.405-1.354,5.695
			C152.574,369.311,155.287,362.326,159.304,362.396z M425.235,509.381c0.413-0.277,0.825-0.558,1.24-0.835
			c-0.619-3.437,1.021-7.98-4.348-9.249c-2.766-0.655-6.473-1.805-7.544,2.896C418.29,504.695,421.762,507.038,425.235,509.381z
			 M-8.751,515.283c-0.238-4.831-0.473-9.66-0.764-15.602C-17.521,506.864-17.439,510.354-8.751,515.283z M174.072,654.168
			c-5.191,2.579-9.915,4.925-14.88,7.392C166.488,666.787,168.131,666.861,174.072,654.168z M121.603,473.313
			c3.475-0.95,8.183-7.022,6.633-8.02c-2.437-1.565-5.961-1.444-10.06-2.238C119.73,467.705,120.668,470.514,121.603,473.313z
			 M133.619,487.329c0.556,0.559,1.116,1.116,1.673,1.671c2.77-2.65,5.765-5.122,8.155-8.08c0.594-0.737-0.764-3.053-1.225-4.642
			c-1.268,0.578-3.074,0.816-3.707,1.806C136.635,481.006,135.218,484.226,133.619,487.329z M65.223,645.844
			c0.521,0.344,1.042,0.688,1.563,1.031c8.189-2.634,7.602-10.094,8.212-16.925C71.74,635.248,68.482,640.546,65.223,645.844z
			 M-39.353,521.619c2.704,1.452,4.363,3.127,5.562,2.842c3.92-0.926,7.675-2.566,12.969-4.458
			c-2.438-1.082-4.424-2.805-6.063-2.523C-30.491,518.1-33.923,519.73-39.353,521.619z M368.188,535.476
			c-4.96,1.467-9.006,2.661-14.206,4.198C362.261,545.171,365.096,544.303,368.188,535.476z M-34.264,541.397
			c-0.551,0.371-1.101,0.74-1.651,1.111c0.791,2.347,1.583,4.694,2.374,7.041c3.044-1.09,6.085-2.181,9.131-3.272
			c-0.103-0.455-0.206-0.913-0.309-1.37C-27.901,543.738-31.083,542.568-34.264,541.397z M1.691,592.902
			c-0.065,0.535-0.134,1.073-0.201,1.61c2.168,0.623,5.118,2.42,6.331,1.61c2.022-1.349,2.934-4.363,4.312-6.679
			c-0.455-0.351-0.913-0.701-1.369-1.052C7.74,589.897,4.715,591.4,1.691,592.902z M221.865,526.668
			c0.35-0.398,0.699-0.796,1.049-1.193c-7.513-6.169-15.025-12.337-22.538-18.507c-0.321,0.394-0.641,0.787-0.961,1.182
			C206.9,514.321,214.382,520.495,221.865,526.668z M125.175,415.756c-0.518,0.331-1.036,0.663-1.552,0.993
			c0.48,5.884,2.975,9.303,8.399,10.117C129.473,422.731,127.323,419.244,125.175,415.756z M198.455,514.026
			c-0.331,0.464-0.661,0.925-0.991,1.391c6.262,5.174,12.524,10.349,18.787,15.524c0.359-0.446,0.718-0.889,1.074-1.335
			C211.036,524.413,204.744,519.22,198.455,514.026z M41.506,523.914c0.15,0.703,0.301,1.406,0.451,2.11
			c5.283,0.022,10.758,0.892,14.91-4.178C51.745,522.534,46.625,523.225,41.506,523.914z M158.672,459.76
			c-0.647,5.962,4.112,10.571,8.654,10.313C164.415,466.603,161.542,463.183,158.672,459.76z M28.667,699.537
			c-0.16,1.04-0.319,2.081-0.476,3.122c4.669,0.399,9.338,0.799,14.009,1.2c0.086-0.881,0.173-1.766,0.259-2.647
			C37.861,700.652,33.264,700.094,28.667,699.537z M76.133,544.972c2.658,1.38,5.127,3.235,5.608,2.814
			c2.012-1.758,3.426-4.197,5.058-6.388c-0.423-0.364-0.845-0.729-1.271-1.094C82.848,541.636,80.167,542.968,76.133,544.972z
			 M77.208,579.761c-0.752,5.473-1.249,9.086-1.746,12.701c0.534,0.25,1.068,0.499,1.602,0.749c1.366-2.729,3.141-5.354,3.884-8.243
			C81.221,583.908,79.056,582.221,77.208,579.761z M146.75,430.934c0.827-0.544,1.656-1.091,2.485-1.634
			c-2.243-3.555-4.483-7.106-6.726-10.66c-0.802,0.518-1.605,1.036-2.408,1.556C142.318,423.774,144.533,427.355,146.75,430.934z
			 M278.968,378.392c-0.133,0.11-0.271,0.22-0.406,0.329c4.416,8.889,8.83,17.778,13.245,26.667
			c0.152-0.076,0.304-0.151,0.456-0.229C287.832,396.237,283.399,387.313,278.968,378.392z M462.183,457.152
			c1.967,3.961,3.156,6.354,4.345,8.748c0.592-0.044,1.181-0.088,1.771-0.131c0.049-2.142,0.726-4.572-0.076-6.327
			C467.704,458.302,465.029,458.146,462.183,457.152z M135.441,428.641c-0.791,0.492-1.583,0.986-2.371,1.478
			c1.758,3.06,3.518,6.118,5.276,9.175c0.833-0.486,1.665-0.971,2.498-1.46C139.042,434.77,137.243,431.705,135.441,428.641z
			 M197.563,522.213c-0.296,0.423-0.591,0.847-0.885,1.27c4.987,4.097,9.974,8.19,14.959,12.287
			c0.318-0.385,0.634-0.771,0.952-1.157C207.579,530.479,202.571,526.345,197.563,522.213z M92.675,679.059
			c-0.1,0.827-0.202,1.655-0.3,2.483c3.35,0.388,6.698,0.775,10.049,1.162c0.097-0.798,0.191-1.595,0.289-2.394
			C99.367,679.892,96.021,679.475,92.675,679.059z M81.784,590.472c0.667,0.948,1.333,1.897,1.999,2.848
			c1.559-1.211,3.294-2.267,4.564-3.729c0.374-0.432-0.567-2.006-0.903-3.058C85.557,587.847,83.671,589.158,81.784,590.472z
			 M127.531,521.368c2.867-0.084,4.598,0.155,6.102-0.32c0.596-0.189,0.692-1.959,1.016-3.007c-1.549-0.351-3.176-1.131-4.617-0.876
			C129.237,517.308,128.756,519.2,127.531,521.368z M103.259,431.978c0.619-0.647,1.242-1.294,1.863-1.942
			c-1.588-1.465-3.105-3.032-4.845-4.293c-0.268-0.191-1.557,1.026-2.374,1.592C99.687,428.883,101.472,430.43,103.259,431.978z"/>
		<path fill="none" d="M517.204,485.991c-15.209,0.823-30.418,1.656-45.631,2.428c-0.616,0.031-1.261-0.527-2.246-0.971
			c0.436-1.467,0.768-2.813,1.23-4.112c2.634-7.395,5.532-14.703,7.841-22.196c0.974-3.155,2.426-4.447,5.604-4.501
			c6.104-0.104,12.203-0.418,18.305-0.645C507.272,465.993,512.239,475.992,517.204,485.991z"/>
		<path fill="none" d="M394.295,554.278c-6.271-2.14-12.506-4.405-18.83-6.371c-3.825-1.191-4.354-2.998-2.266-6.292
			c4.112-6.484,8.004-13.105,12.025-19.648c4.144-6.742,10.242-6.74,14.334,0.195c1.96,3.319,3.51,6.928,4.818,10.558
			c0.436,1.207-0.45,2.891-0.731,4.358c-1.079-0.642-2.097-1.416-3.242-1.894c-2.749-1.151-6.563-3.803-8.116-2.854
			c-2.527,1.545-4.842,5.479-4.854,8.416c-0.01,2.174,3.454,5.58,5.95,6.234c2.867,0.754,6.453-0.661,9.563-1.65
			c1.712-0.543,3.09-2.145,5.184-3.685c0.696,2.097,1.173,3.52,1.647,4.942C404.615,549.152,399.455,551.716,394.295,554.278z"/>
		<path fill="none" d="M471.706,515.829c-2.13-5.657-4.257-11.319-6.59-17.522c1.604-1.616,31.304-4.109,48.199-3.145
			C499.446,502.051,485.575,508.94,471.706,515.829z"/>
		<path fill="#09D588" d="M-163.2,330.526c6.728-10.26,13.455-20.521,20.18-30.783c0.579,0.353,1.158,0.707,1.737,1.059
			c-4.359,6.953-8.715,13.907-13.145,20.976c2.712,1.192,5.243,2.305,8.255,3.627c4.242-6.554,8.641-13.352,13.041-20.15
			c0.61,0.381,1.218,0.762,1.828,1.145c-4.55,7.207-9.102,14.416-13.918,22.046c1.555,0.29,2.813,0.164,3.506,0.731
			c1.676,1.368,4.201,2.983,4.316,4.641c0.138,1.982-1.415,5.322-3.051,5.951c-5.134,1.972-10.652,2.946-16.022,4.308
			c-1.602-3.226-3.204-6.452-4.806-9.676c2.814-1.407,5.827-2.54,8.327-4.376c0.806-0.593,0.259-3.028,0.333-4.619
			c-1.574,0.306-3.57,0.12-4.63,1.027c-1.953,1.671-3.357,3.985-4.99,6.032C-162.558,331.818-162.878,331.175-163.2,330.526z
			 M-152.637,339.92c0.306,0.448,0.613,0.895,0.919,1.343c2.804-1.652,5.814-3.055,8.294-5.101c0.834-0.688,0.317-3.009,0.417-4.585
			c-1.582,0.285-3.746,0.024-4.624,0.965C-149.634,334.689-151.008,337.423-152.637,339.92z"/>
		<path fill="none" d="M26.165,711.786c12.328,0.918,24.662,1.774,36.974,2.86c1.106,0.096,2.082,1.672,3.117,2.563
			c-6.451,3.205-12.902,6.408-19.354,9.612c2.235-2.849,4.471-5.699,6.708-8.547c-0.442-0.548-0.879-1.097-1.32-1.644
			c-1.449,0.937-2.896,1.871-4.345,2.807c-4.537,2.932-9.073,5.866-13.609,8.798C31.611,722.753,28.888,717.271,26.165,711.786z"/>
		<path fill="none" d="M-105.044,447.615c0.357,0.02,0.741,0.132,1.068,0.044c10.58-2.907,16.211,2.436,19.092,11.776
			c0.626,2.026,0.547,4.821-0.394,6.653c-1.608,3.129-4.154,5.772-6.307,8.621C-96.073,465.679-100.558,456.646-105.044,447.615z"/>
		<path fill="none" d="M491.253,433.739c-15.476,0.184-12.65,1.905-15.725-12.494c-1.512-7.087-3.583-14.057-5.055-21.152
			c-0.598-2.877-0.271-5.948-0.369-8.933C477.154,405.353,484.203,419.545,491.253,433.739z"/>
		<path fill="none" d="M419.453,541.781c-2.145-9.513-4.29-19.026-6.465-28.668c8.631,2.842,15.64,12.595,15.548,21.271
			c-0.009,0.862,0.384,1.729,0.592,2.593C425.905,538.579,422.678,540.181,419.453,541.781z"/>
		<path fill="none" d="M-113.695,430.197c3.503-0.105,7.054,0.099,10.498-0.406c3.315-0.488,6.522-1.708,10.9-2.917
			c0.144,4.848,0.282,9.537,0.436,14.663c-5.808,0.1-10.938,0.188-16.067,0.274C-109.851,437.939-111.772,434.068-113.695,430.197z"
			/>
		<path fill="none" d="M-75.727,506.644c1.687-1.138,3.262-2.526,5.094-3.335c1.555-0.686,3.396-0.822,5.128-0.933
			c0.428-0.026,0.923,0.993,1.382,1.535c8.163,9.661,8.365,10.735-4.395,17.245C-70.92,516.319-73.323,511.48-75.727,506.644z"/>
		<path fill="none" d="M-0.27,658.565c3.892-8.601,8.41-11.048,17.31-8.884c-2.932,5.586-5.661,11.123-8.783,16.427
			c-0.533,0.901-2.759,0.803-4.202,1.166C2.615,664.371,1.173,661.468-0.27,658.565z"/>
		<path fill="none" d="M-45.928,566.638c1.469,0.781,4.177,1.507,4.213,2.351c0.36,8.165,6.831,9.596,12.498,12.111
			c2.073,0.918,4.262,2.119,5.685,3.798c1.158,1.368,1.255,3.637,1.822,5.508c-2.271,0.658-4.733,2.192-6.763,1.749
			c-2.483-0.545-4.604-2.744-6.882-4.228C-38.878,580.83-42.404,573.733-45.928,566.638z"/>
		<path fill="none" d="M497.98,447.286c-4.943,0.408-9.881,1.042-14.83,1.153c-3.902,0.089-4.22-2.931-4.354-6.002
			c-0.145-3.428,1.959-3.545,4.503-3.693c3.304-0.192,6.584-0.74,9.874-1.135C494.777,440.834,496.379,444.061,497.98,447.286z"/>
		<path fill="none" d="M380.745,561.007c-4.898-1.893-9.798-3.784-14.92-5.764c0.812-3.832,2.808-4.563,5.894-3.546
			c5.58,1.846,11.179,3.646,16.77,5.465C385.908,558.442,383.327,559.725,380.745,561.007z"/>
		<path fill="none" d="M-61.308,535.673c2.927-2.873,5.855-5.745,8.782-8.619c0.48,0.161,0.961,0.321,1.441,0.478
			c-0.331,6.278-2.636,12.103-5.417,17.819C-58.104,542.123-59.707,538.896-61.308,535.673z"/>
		<path fill="none" d="M194.955,653.286c2.09-6.627,5.979-11.77,13.277-16.057c-0.292,4.065-0.494,6.938-0.697,9.809
			C203.342,649.12,199.148,651.203,194.955,653.286z"/>
		<path fill="#09D588" d="M34.335,728.235c4.537-2.932,9.074-5.865,13.609-8.796c1.448-0.937,2.896-1.871,4.345-2.808
			c0.441,0.548,0.879,1.098,1.319,1.644c-2.236,2.848-4.472,5.698-6.708,8.546c-3.549,1.763-7.095,3.524-10.644,5.287
			C35.617,730.816,34.976,729.527,34.335,728.235z"/>
		<path fill="none" d="M-8.439,642.115c3.507,0.056,7.011,0.11,11.404,0.18c-2.29,4.641-3.963,8.037-5.638,11.433
			C-4.595,649.856-6.517,645.985-8.439,642.115z"/>
		<path fill="none" d="M-162.239,332.462c1.633-2.045,3.038-4.359,4.989-6.03c1.061-0.907,3.057-0.722,4.631-1.028
			c-0.073,1.595,0.474,4.027-0.332,4.62c-2.5,1.836-5.513,2.97-8.327,4.375C-161.597,333.753-161.917,333.108-162.239,332.462z"/>
		<path fill="none" d="M-15.649,627.6c4.386-1.198,8.772-2.395,14.09-3.847c-3.896,3.857-7.311,7.238-10.726,10.621
			C-13.406,632.115-14.528,629.857-15.649,627.6z"/>
		<path fill="none" d="M353.65,574.464c3.34-7.258,4.139-7.655,10.645-5.286C360.747,570.94,357.199,572.702,353.65,574.464z"/>
		<path fill="none" d="M256.465,457.215c-5.553,0.547-12.102-0.787-14.631,1.804c-7.889,8.083-16.994,4.896-25.679,4.63
			c-3.324-0.104-7.119-2.408-9.715-4.782c-5.204-4.752-8.054-5.882-14.401-3.38c-4.687,1.85-7.732-0.519-11.04-3.749
			c1.064-0.98,1.715-1.877,2.595-2.344c10.091-5.36,17.184-13.534,21.896-23.77c2.001-4.345,3.053-9.122,4.979-13.51
			c1.196-2.729,2.63-6.255,4.966-7.442c16.348-8.312,32.965-16.099,49.486-24.07c3.344-1.613,5.688-1.029,7.432,2.538
			c4.585,9.371,9.472,18.596,14.001,27.995c0.66,1.37,0.016,3.371-0.026,5.08c-1.803-0.713-4.012-0.99-5.332-2.219
			c-4.032-3.762-7.31-8.424-11.633-11.763c-8.765-6.773-18.87-8.255-29.615-5.621c-8.736,2.141-13.872,9.106-13.96,19.88
			c-0.026,3.134-0.131,5.507-3.532,6.751c-1.265,0.461-2.183,1.83-3.294,2.744c-3.143,2.585-7.346,4.766-5.216,9.916
			c2.05,4.953,9.542,9.662,14.339,8.908c3.143-0.491,6.28-1.566,9.184-2.898c12.426-5.698,24.741-11.628,37.138-17.388
			c4.866-2.262,6.439-1.138,6.777,4.105c0.563,8.701-2.554,15.856-8.986,21.519c-1.294,1.138-3.518,1.949-5.203,1.786
			C259.256,451.189,258.883,451.257,256.465,457.215z"/>
		<path fill="none" d="M309.637,448.524c-8.241,8.28-14.899,17.228-19.005,28.048c-0.423,1.104-1.867,2.379-2.997,2.559
			c-3.682,0.581-8.226,1.01-7.901,5.493c0.313,4.317,2.672,8.566,4.538,12.66c1.162,2.556,3.324,4.646,4.593,7.171
			c2.715,5.403,5.229,10.915,7.638,16.466c0.758,1.747,0.919,3.756,1.506,6.313c-3.942-1.029-6.571-2.423-8.856-1.993
			c-1.028,0.193-1.368,4.027-2.445,7.623c-3.207,0.603-7.835,1.473-11.416,2.145c-1.3-5.39-1.196-11.22-3.987-14.77
			c-2.851-3.625-8.547-5.012-13.02-7.388c0.01-0.008,0.85-0.712,1.758-1.31c4.632-3.047,5.927-7.249,3.686-12.065
			c-2.24-4.812-6.555-6.992-11.536-4.524c-8.094,4.014-9.384-3.945-15.216-7.499c3.5-0.463,5.445-0.894,7.4-0.95
			c18.182-0.536,32.627-7.499,41.728-23.908c0.841-1.517,1.989-3.208,3.442-3.982C296.154,455.084,302.924,451.856,309.637,448.524z
			"/>
		<path fill="none" d="M-31.258,440.926c-8.465-0.068-16.479,0.07-24.467-0.345c-1.851-0.095-3.482-2.607-5.434-3.064
			c-2.675-0.626-7.083-1.548-8.097-0.26c-4.718,6.006-10.55,3.806-16.443,3.88c-1.71-12.197,1.881-22.38,9.207-31.389
			c1.001-1.229,2.857-2.095,4.464-2.432c4.314-0.898,8.69-1.694,13.079-1.972c2.146-0.137,4.586,0.561,6.519,1.587
			c7.633,4.039,15.123,5.514,22.952,0.456c1.047-0.676,3.135-0.606,4.332-0.033c4.332,2.081,8.392,4.742,12.747,6.765
			c3.478,1.615,3.771,3.449,1.424,6.156c-0.237,0.271-0.479,0.539-0.705,0.816c-5.053,6.244-5.171,6.374-11.007,1.005
			c-6.212-5.717-13.355-8.969-21.793-9.165c-11.471-0.265-20.562,4.361-27.132,13.742c-0.631,0.904-0.293,2.489-0.407,3.759
			c1.231-0.339,3.047-0.272,3.604-1.077C-57.023,412.879-34.426,423.002-31.258,440.926z"/>
		<path fill="none" d="M-0.325,394.623c-6.592-2.751-12.672-5.171-18.648-7.828c-3.273-1.455-3.508-9.235-0.386-12.246
			c8.989-8.673,20.137-13.893,31.554-18.148c7.044-2.623,14.841-4.341,22.318-4.403c9.348-0.079,16.709,8.331,16.889,17.573
			c0.042,2.152-1.339,4.755-2.902,6.307c-0.646,0.644-3.802-0.5-5.287-1.566c-6.274-4.507-12.494-4.579-18.99-0.436
			c-1.794,1.146-4.408,1.092-6.672,1.381c-0.828,0.104-1.728-0.424-2.607-0.604c-5.741-1.186-11.213-0.915-15.411,3.804
			C-3.981,382.401-3.892,387.148-0.325,394.623z"/>
		<path fill="none" d="M367.956,508.66c1.269-11.076-0.643-19.545-6.561-27.014c-0.751-0.953-0.043-3.121,0.146-4.705
			c0.051-0.437,0.678-0.806,1.043-1.2c14.319-15.584,15.383-15.994,36.503-14.105c7.616,0.681,11.075,7.054,7.19,13.529
			c-4.508,7.511-9.062,15.004-13.938,22.275c-1.012,1.511-3.51,2.813-5.346,2.841C380.06,500.394,373.948,502.191,367.956,508.66z"
			/>
		<path fill="none" d="M161.522,379.104c9.77-0.796,16.166-5.229,17.079-15.828c8.663,4.665,12.506,11.783,13.675,20.488
			c0.137,1.012-1.924,3.25-3.097,3.347c-5.466,0.458-7.954,3.225-8.521,8.54c-0.18,1.695-1.239,3.878-2.595,4.768
			c-8.643,5.663-18.324,8.8-28.569,7.869c-3.704-0.336-6.832-5.055-10.691-6.193c-3.556-1.05-8.11,1.079-11.542-0.134
			c-3.66-1.296-6.748-4.635-9.607-7.554c-1.069-1.092-1.664-4.505-0.946-5.141c2.11-1.877,4.808-4.268,7.898-0.988
			c2.091,2.222,4.249,4.39,6.488,6.463c6.262,5.795,14.482,7.499,20.723,4.383C158.713,395.683,162.264,388.677,161.522,379.104z
			 M182.491,376.289c-2.358-0.149-4.328-0.832-4.998-0.182c-0.913,0.89-0.834,2.797-1.182,4.267c1.386,0.241,3.109,1.093,4.063,0.56
			C181.348,380.389,181.567,378.49,182.491,376.289z M171.481,381.816c-2.479-0.154-4.227-0.789-5.15-0.177
			c-0.95,0.634-1.098,2.476-1.598,3.79c1.517,0.411,3.172,1.378,4.499,1.04C170.08,386.256,170.441,384.115,171.481,381.816z"/>
		<path fill="none" d="M-112.304,360.764c6.627-0.424,12.951-3.579,18.627,2.89c3.209,3.659,10.389,1.925,15.461-2.849
			c1.091-1.024,2.17-2.061,3.711-3.526c0.393,7.769,0.928,14.61,0.893,21.447c-0.004,1.154-2.83,3.508-3.719,3.233
			c-3.446-1.054-7.719-2.121-9.677-4.707c-3.477-4.589-6.675-5.145-11.461-2.773c-4.729,2.345-3.761,5.542-2.462,9.474
			c2.078,6.289-0.252,13.308-4.601,15.911c-2.411,1.441-4.474,1.478-5.887-1.152c-3.418-6.354-9.293-8.724-15.879-9.585
			c-3.769-0.496-5.203-2.437-4.448-5.742c0.238-1.04,2.615-2.556,3.633-2.306c11.52,2.825,17.697-2.285,16.517-13.955
			C-111.791,365.19-112.024,363.263-112.304,360.764z"/>
		<path fill="none" d="M152.014,488.066c-0.011,2.848-0.56,5.859,0.087,8.585c1.201,5.058,5.362,6.127,9.756,5.105
			c4.429-1.026,6.655-4.015,5.284-8.862c-0.188-0.669-0.307-1.582-0.001-2.118c0.578-1.009,1.489-1.825,2.261-2.721
			c0.515,0.947,1.66,2.078,1.446,2.815c-2.111,7.277-0.337,14.093,1.738,21.047c2.178,7.296-7.708,18.663-15.206,17.922
			c-4.625-0.459-8.473-6.454-7.771-12.801c0.4-3.607,1.182-6.178-4.344-5.814c-3.702,0.241-7.503-8.31-5.942-11.868
			C142.576,491.94,145.773,489.133,152.014,488.066z"/>
		<path fill="none" d="M225.735,521.628c-8.627-6.711-16.925-13.191-25.288-19.593c-0.354-0.271-1.271,0.196-3.869,0.683
			c3.799-6.157,6.674-11.179,9.904-15.956c3.899-5.77,18.95-3.698,22.709,5.134C232.427,499.5,231.088,513.955,225.735,521.628z"/>
		<path fill="none" d="M259.537,569.742c6.065,5.885,2.832,11.853,1.111,17.723c-1.22,4.164-5.501,6.137-10.934,5.194
			c-3.94-0.683-7.225-2.025-6.99-7.149c0.139-3.016-0.372-6.091-0.832-9.103c-1.515-9.916,5.935-16.196,15.641-13.417
			c3.738,1.07,7.854,0.851,11.57,1.973c1.924,0.583,3.348,2.817,4.999,4.307c-1.822,0.387-3.673,1.19-5.459,1.063
			c-2.566-0.177-5.087-1.03-7.626-1.599C260.523,569.071,260.03,569.408,259.537,569.742z"/>
		<path fill="none" d="M357.765,413.176c0.976,3.133,2.307,6.458,3.013,9.909c0.896,4.404-1.72,6.512-5.933,4.787
			c-8.886-3.639-14.395-11.008-19.072-18.825c-2.404-4.018-3.668-8.832-4.774-13.447c-0.403-1.682,0.663-4.957,1.914-5.493
			c1.799-0.769,4.958-0.438,6.516,0.754c3.632,2.783,6.958,6.113,9.84,9.683C352.382,404.395,354.846,408.769,357.765,413.176z"/>
		<path fill="none" d="M330.775,470.234c-10.26,6.961-20.026,13.588-29.951,20.319c-5.321-11.438-4.469-15.45,4.466-23.803
			c1.169-1.095,2.492-2.062,3.855-2.905C321.326,456.311,325.062,457.537,330.775,470.234z"/>
		<path fill="none" d="M332.857,521.015c2.613,2.477,4.002,3.793,5.396,5.105c-4.443,5.323-15.459,6.087-23.361,1.361
			c3.778-4.258,7.478-8.49,11.249-12.657c3.254-3.599,6.782-6.963,9.836-10.716c3.539-4.348,7.149-2.783,10.148-0.032
			c3.037,2.786,4.746,6.886,1.628,10.508c-1.941,2.251-5.152,3.52-7.968,4.867C338.145,520.236,336.158,520.309,332.857,521.015z"/>
		<path fill="none" d="M333.007,454.818c13.041,1.427,24.804,2.712,36.563,3.998c0.117,0.532,0.235,1.067,0.353,1.603
			c-4.254,4.562-8.38,9.255-12.868,13.572c-0.889,0.855-3.329,0.767-4.764,0.271C344.643,471.613,338.052,465.184,333.007,454.818z"
			/>
		<path fill="none" d="M255.186,429.31c4.248-7.364,1.799-13.644-2.217-19.841c-0.842-1.298-1.228-3.775-0.533-4.937
			c0.65-1.09,3.047-1.687,4.615-1.583c9.441,0.634,14.961,7.05,19.752,14.195c0.533,0.797-0.121,3.479-0.957,3.934
			c-6.264,3.408-12.713,6.476-19.102,9.65C256.224,430.255,255.703,429.781,255.186,429.31z"/>
		<path fill="none" d="M114.979,561.824c7.553-8.56,26.101-11.851,33.329-5.064c-7.804,7.043-15.522,14.01-24.316,21.95
			C125.563,568.478,125.563,568.478,114.979,561.824z"/>
		<path fill="none" d="M10.23,470.957c-0.305-3.43-0.934-6.084-0.695-8.664c0.67-7.312,2.39-8.265,9.147-5.301
			c4.046,1.775,8.357,3.296,11.861,5.871c5.978,4.388,5.64,5.115,0.018,9.735c-4.121,3.388-8.657,4.411-13.514,2.719
			C14.553,474.451,12.459,472.427,10.23,470.957z"/>
		<path fill="none" d="M-45.417,384.889c-1.718-5.729-3.686-11.092-4.79-16.628c-0.376-1.901,0.805-5.21,2.34-6.172
			c3.945-2.471,8.39-3.949,13.053-0.826c2.885,1.933,1.961,4.083,1.247,6.561c-0.989,3.428-1.932,6.895-2.498,10.409
			C-37.195,385.239-38.483,386.178-45.417,384.889z"/>
		<path fill="none" d="M153.359,418.631c10.147-5.039,19.666-9.806,29.235-14.461c0.942-0.457,2.215-0.242,3.335-0.338
			c-0.107,1.247,0.28,2.957-0.393,3.669c-6.275,6.635-12.648,13.179-19.175,19.563c-2.495,2.441-5.083,2.188-7.231-0.902
			C157.305,423.541,155.248,421.079,153.359,418.631z"/>
		<path fill="none" d="M203.72,543.274c-11.506,0.736-23.012,1.471-34.518,2.208c-0.342-0.551-0.685-1.102-1.026-1.652
			c2.729-2.754,5.16-5.916,8.247-8.187c8.734-6.419,8.75-6.158,17.388,0.34c3.081,2.316,6.704,3.91,10.078,5.832
			C203.833,542.302,203.775,542.789,203.72,543.274z"/>
		<path fill="none" d="M21.375,494.501c1.362-0.166,3.961-1.118,6.219-0.595c2.575,0.595,4.846,2.504,7.251,3.842
			c-1.491,1.882-2.798,3.952-4.508,5.604c-3.476,3.359-7.05,6.641-10.834,9.637c-1.226,0.975-3.58,1.735-4.778,1.191
			c-1.168-0.532-1.935-2.804-2.15-4.409C11.683,503.123,14.659,498.363,21.375,494.501z"/>
		<path fill="none" d="M308.316,488.646c-1.225,7.59-2.171,13.708-3.215,19.81c-0.792,4.632,0.821,8.247,4.104,11.468
			c0.774,0.759,0.587,2.498,0.84,3.786c-1.232-0.074-2.863,0.336-3.641-0.299c-7.088-5.791-11.171-13.383-12.392-22.409
			c-0.184-1.345,0.576-3.448,1.623-4.207C299.565,493.941,303.795,491.499,308.316,488.646z"/>
		<path fill="none" d="M178.082,647.256c-8.094,4.021-16.14,8.142-24.339,11.932c-1.011,0.465-3.188-0.484-4.148-1.451
			c-0.522-0.524,0.041-2.673,0.695-3.729c2.64-4.267,5.406-8.468,8.37-12.513c0.695-0.949,2.588-1.942,3.52-1.643
			c5.3,1.708,10.478,3.801,15.697,5.763C177.945,646.162,178.014,646.71,178.082,647.256z"/>
		<path fill="none" d="M96.22,468.569c-0.505,1.582-0.625,3.952-1.872,5.21c-0.929,0.938-3.625,1.106-4.992,0.466
			c-4.671-2.19-9.101-4.897-13.624-7.397c-4.149-2.294-3.322-6.235-2.471-9.523c1.013-3.913,4.208-1.688,6.734-1.5
			C87.951,456.413,90.784,463.312,96.22,468.569z"/>
		<path fill="none" d="M228.582,608.933c-2.037-0.174-3.625-0.557-5.156-0.395c-4.336,0.453-8.76,0.709-12.934,1.841
			c-3.921,1.06-13.771-1.517-14.092-5.145c-0.246-2.793,2.19-6.042,4.042-8.654c0.521-0.738,3.594-0.568,4.806,0.231
			c6.878,4.525,13.945,7.948,22.539,6.773c0.948-0.129,2.064,0.97,3.105,1.499C230.146,606.327,229.4,607.569,228.582,608.933z"/>
		<path fill="none" d="M303.503,445.529c-4.528,2.248-8.45,4.194-12.077,5.997c-1.133-8.417-2.169-16.423-3.324-24.411
			c-0.226-1.571-1.177-3.057-1.297-4.619c-0.09-1.19,0.603-2.445,0.948-3.672c1.059,0.462,2.677,0.636,3.088,1.433
			C295.179,428.638,299.324,437.119,303.503,445.529z"/>
		<path fill="none" d="M432.132,473.213c-0.819-3.072-2.054-6.113-2.276-9.229c-0.107-1.494,1.526-4.308,2.664-4.47
			c2.981-0.422,7.887-0.823,8.873,0.746c2.826,4.501,4.442,9.887,5.811,15.116c0.653,2.502-1.167,4.463-4.319,3.687
			C438.805,478.059,434.035,478.284,432.132,473.213z"/>
		<path fill="none" d="M438.625,421.047c-4.44,10.93-4.959,11.286-15.834,10.994c-4.983-0.132-9.965-0.313-15.382-0.485
			C413.212,424.204,430.577,418.484,438.625,421.047z"/>
		<path fill="none" d="M153.085,592.773c2.521-4.916,4.534-8.994,6.689-12.998c1.43-2.658,2.727-5.51,4.717-7.705
			c1.5-1.659,4-2.413,6.561-3.854C172.111,587.941,168.644,592.84,153.085,592.773z"/>
		<path fill="none" d="M75.774,387.835c2.618-12.884-1.707-26.028,6.829-37.146C88.902,359.689,85.122,382.357,75.774,387.835z"/>
		<path fill="none" d="M98.93,336.742c4.854,14.353,0.894,33.165-7.894,37.479C94.081,340.424,94.081,340.424,98.93,336.742z"/>
		<path fill="none" d="M11.724,617.969c0.284-7.078,0.542-13.491,0.799-19.907c0.538-0.048,1.074-0.098,1.611-0.146
			c3.124,5.124,7.471,8.103,13.448,8.739c0.953,0.103,2.553,2.354,2.353,3.288c-0.38,1.775-1.54,4.37-2.919,4.774
			C21.737,616.26,16.242,617.066,11.724,617.969z"/>
		<path fill="none" d="M105.789,360.451c5.18-11.861-1.577-26.188,7.679-37.899C119.028,335.336,115.106,355.104,105.789,360.451z"
			/>
		<path fill="none" d="M428.674,439.239c-2.005,1.468-3.832,3.794-6.042,4.251c-9.013,1.858-18.066,1.524-27.445-0.872
			c1.839-4.452,4.521-6.488,9.104-6.244c7.83,0.416,15.674,0.553,23.514,0.806C428.095,437.866,428.384,438.552,428.674,439.239z"/>
		<path fill="none" d="M47.311,623.024c2.413,8.499,4.375,15.408,6.407,22.565c-0.612-0.314-1.635-0.939-2.729-1.383
			c-4.419-1.788-8.881-3.468-13.282-5.298c-1.594-0.664-4.464-2.031-4.357-2.411c0.879-3.166-1.767-7.821,3.849-9.758
			c0.053,2.125,0.094,3.781,0.174,7.085C41.224,629.639,44.179,626.429,47.311,623.024z"/>
		<path fill="none" d="M-0.776,637.179c5.752-6.57,17.773-9.668,28.743-8.834c-1.596,3.389-3.001,6.547-4.586,9.607
			c-0.339,0.651-1.381,1.412-2.034,1.354C13.965,638.684,6.596,637.91-0.776,637.179z"/>
		<path fill="none" d="M312.41,506.798c-2.119-8.205,1.459-12.572,10.48-11.426c3.307,0.421,6.502,1.711,9.971,2.665
			C328.902,507.685,322.234,510.415,312.41,506.798z"/>
		<path fill="none" d="M-45.087,464.261c-1.986-6.126-3.684-11.363-5.604-17.289c6.199-0.161,12.317-0.319,19.036-0.494
			C-33.305,454.816-37.73,460.048-45.087,464.261z"/>
		<path fill="none" d="M97.32,439.268c6.926-3.446,14.708-2.102,17.346,2.477c1.779,3.09,0.996,4.868-2.389,5.137
			c-4.794,0.38-9.625,0.586-14.429,0.441c-1.74-0.053-3.444-1.327-5.164-2.046c0.951-1.605,1.809-3.281,2.896-4.788
			C96.07,439.812,97.019,439.467,97.32,439.268z"/>
		<path fill="none" d="M3.795,578.03c-2.091,1.038-4.104,2.596-6.303,2.935c-1.472,0.227-3.696-0.91-4.648-2.152
			c-0.593-0.774,0.062-3.468,1.019-4.29c3.121-2.679,6.703-4.81,9.991-7.306c3.965-3.01,5.3,0.344,7.024,2.755
			c2.147,2.997,0.442,4.535-2.22,5.731c-1.64,0.736-3.226,1.586-4.835,2.385C3.814,578.069,3.804,578.05,3.795,578.03z"/>
		<path fill="none" d="M330.823,538.737c9.239,2.961,18.495,5.872,27.686,8.979c0.734,0.249,1.008,1.859,1.496,2.838
			c-1.334,0.618-2.978,2.082-3.956,1.726C347.134,549.029,336.312,549.663,330.823,538.737z"/>
		<path fill="none" d="M296.093,550.434c3.327,0.404,6.698,0.593,9.973,1.257c5.271,1.072,10.482,2.457,15.716,3.709
			c-0.063,0.576-0.126,1.152-0.189,1.729c-0.67,0.268-1.427,0.895-1.993,0.756c-9.105-2.26-18.124-1.36-27.157,0.449
			c-1.091,0.219-2.305-0.188-3.465-0.303c0.279-1.278,0.183-2.85,0.912-3.772c1.702-2.161,3.802-4.009,5.74-5.983
			C295.783,548.995,295.938,549.715,296.093,550.434z"/>
		<path fill="none" d="M82.813,432.564c3.301-0.366,6.599-0.734,9.897-1.102c-0.935,2.909-1.938,5.8-2.792,8.734
			c-1.237,4.248-3.713,5.223-7.577,3.162c-0.764-0.406-1.765-0.353-2.565-0.711c-1.921-0.86-3.79-1.842-5.679-2.771
			c1.67-1.446,3.269-2.995,5.045-4.301c1.132-0.835,2.528-1.308,3.807-1.942C82.903,433.277,82.858,432.921,82.813,432.564z"/>
		<path fill="none" d="M450.699,438.018c5.097,0.173,9.543-0.476,13.343,0.798c1.787,0.599,2.738,4.828,3.197,7.557
			c0.132,0.777-2.702,2.796-4.334,3.003C455.691,450.282,455.673,450.117,450.699,438.018z"/>
		<path fill="none" d="M17.312,656.934c7.879,6.275,8.599,9.498,4.44,15.171c-3.019,4.114-5.857,1.834-8.846,0.373
			c-3.372-1.645-2.182-3.864-0.805-6.204C13.894,663.229,15.552,660.106,17.312,656.934z"/>
		<path fill="none" d="M191.204,630.471c-4.871-1.653-9.796-3.176-14.586-5.038c-1.491-0.58-3.871-2.803-3.728-3.049
			c1.191-2.06,2.611-4.21,4.514-5.549c1.084-0.763,3.925-0.741,4.73,0.106c3.641,3.832,6.839,8.086,10.197,12.187
			C191.954,629.577,191.579,630.022,191.204,630.471z"/>
		<path fill="none" d="M20.326,600.515c0.544-2.095,1.012-4.209,1.649-6.273c0.685-2.206,1.811-4.309,2.25-6.554
			c1.387-7.092,2.05-7.753,10.316-8.572c-1.833,8.811-5.714,16.268-12.44,22.092C21.509,600.976,20.917,600.746,20.326,600.515z"/>
		<path fill="none" d="M106.253,501.507c-7.537,3.356-23.184-5.416-28.993-16.759C86.749,490.234,96.238,495.719,106.253,501.507z"
			/>
		<path fill="none" d="M68.973,616.379c3.561,1.455,4.284,3.751,2.357,7.137c-3.069,5.389-6.003,10.853-9.188,16.64
			C58.705,634.046,62.202,622.771,68.973,616.379z"/>
		<path fill="none" d="M438.439,498.695c2.302-0.313,3.696-0.536,5.1-0.688c3.721-0.401,5.707,1.172,4.571,4.934
			c-1.177,3.893-2.787,7.674-4.494,11.369c-0.449,0.971-1.972,1.444-3.859,2.731C439.272,510.285,438.873,504.721,438.439,498.695z"
			/>
		<path fill="none" d="M329.938,560.129c7.13-1.045,13.055,2.132,18.96,4.711c0.408,0.177-1.043,5.14-2.12,7.67
			c-0.179,0.417-3.374,0.341-4.332-0.489C338.305,568.447,334.479,564.511,329.938,560.129z"/>
		<path fill="none" d="M144.56,603.299c8.512-2.886,15.85-5.374,24.344-8.254C162.893,605.832,153.07,609.99,144.56,603.299z"/>
		<path fill="none" d="M133.198,620.243c4.904,1.644,9.087,3.072,13.29,4.448c4.603,1.51,4.836,4.061,1.927,7.513
			c-1.227,1.454-2.307,3.036-3.56,4.706C140.96,631.34,137.349,626.176,133.198,620.243z"/>
		<path fill="none" d="M381.663,515.025c-2.387,4.005-4.613,7.977-7.126,11.758c-0.511,0.77-2.854,1.392-3.064,1.112
			c-1.211-1.612-2.79-3.489-2.853-5.323C368.379,515.551,374.085,512.048,381.663,515.025z"/>
		<path fill="none" d="M189.351,473.526c-5.71,3.756-10.164,7.476-15.266,9.707c-2.588,1.132-6.351-0.419-9.801-2.062
			c6.633-3.296,13.199-6.745,19.968-9.725C185.312,470.979,187.308,472.641,189.351,473.526z"/>
		<path fill="none" d="M-13.753,600.664c4.563-3.627,8.786-5.087,13.681-1.823c3.442,2.296,2.925,5.121,1.056,7.896
			c-2.114,3.137-4.115,1.274-6.244-0.381C-7.774,604.401-10.552,602.783-13.753,600.664z"/>
		<path fill="none" d="M103.171,481.615c5.054-1.54,9.269-2.983,13.582-4.014c0.969-0.23,3.329,1.319,3.278,1.47
			c-0.864,2.638-1.556,5.565-3.277,7.581c-0.833,0.976-3.954,0.773-5.617,0.084C108.565,485.669,106.355,483.729,103.171,481.615z"
			/>
		<path fill="none" d="M54.434,666.163c2.105-2.954,3.219-5.532,5.177-6.933c1.503-1.077,4.962-1.636,5.96-0.711
			c1.656,1.539,2.522,4.425,2.654,6.805c0.039,0.696-3.504,2.132-5.467,2.26C60.432,667.732,58.035,666.838,54.434,666.163z"/>
		<path fill="none" d="M47.292,452.604c4.7-4.347,9.115-4.014,12.592-1.284c3.191,2.507,1.412,6.097-0.805,9.973
			C55.05,458.322,51.345,455.591,47.292,452.604z"/>
		<path fill="none" d="M409.848,490.77c0.491-3.626,0.543-6.708,1.464-9.502c0.381-1.159,2.618-1.707,4.012-2.53
			c1.573,3.283,3.271,6.522,4.553,9.916c0.153,0.399-1.896,2.23-3.066,2.397C414.65,491.355,412.388,490.917,409.848,490.77z"/>
		<path fill="none" d="M34.464,551.851c-2.1,3.747-4.197,7.494-6.76,12.068c-2.34-2.347-4.189-3.74-5.397-5.562
			c-0.881-1.33-1.638-4.389-1.2-4.659c1.829-1.129,4.093-1.822,6.266-2.063c2.384-0.263,4.843,0.146,7.27,0.263L34.464,551.851z"/>
		<path fill="none" d="M109.984,666.498c4.037,2.724,6.765,4.563,10.512,7.095c-3.583,3.213-6.682,5.998-9.782,8.782
			c-0.581-0.289-1.165-0.578-1.746-0.868C109.277,676.946,109.584,672.383,109.984,666.498z"/>
		<path fill="none" d="M168.607,539.292c-1.178,1.402-2.603,3.1-4.027,4.795c0.313-1.353,0.627-2.705,0.942-4.06
			c-5.547-1.627-11.094-3.257-16.639-4.883c-0.603-1.543,0.928-3.058,5.496-0.852C158.744,536.401,163.565,537.567,168.607,539.292z
			"/>
		<path fill="none" d="M93.916,669.514c2.431-3.589,1.634-10.431,8.963-7.905c4.38,1.511,2.943,4.945,1.873,6.965
			C102.012,673.736,97.786,670.106,93.916,669.514z"/>
		<path fill="none" d="M174.664,360.689c-3.074,7.979-11.427,11.921-19.219,9.546C161.906,367.026,167.717,364.141,174.664,360.689z
			"/>
		<path fill="none" d="M135.919,641.965c-11.023-8.306-11.995-10.849-6.53-17.093C135.016,629.183,135.143,635.396,135.919,641.965z
			"/>
		<path fill="none" d="M-4.53,554.599c-8.965,4.453-17.5,8.692-26.034,12.93c-0.199-0.279-0.398-0.562-0.597-0.84
			c2.122-1.497,4.276-2.952,6.361-4.5c3.828-2.84,7.962-5.387,11.32-8.712C-10.175,550.204-7.837,550.532-4.53,554.599z"/>
		<path fill="none" d="M-70.167,490.854c-1.468-0.188-2.736,0.008-3.388-0.536c-0.643-0.535-1.196-2.119-0.858-2.725
			c1.912-3.433,3.982-6.797,6.308-9.959c0.444-0.603,2.395-0.52,3.416-0.136c0.697,0.262,1.618,1.961,1.365,2.403
			C-65.449,483.609-67.823,487.175-70.167,490.854z"/>
		<path fill="none" d="M-78.429,458.077c-1.682-3.076-3.362-6.154-5.045-9.233c1.167-0.556,2.426-1.708,3.487-1.549
			c2.617,0.386,5.146,1.375,7.712,2.12c-1.104,2.787-2.205,5.571-3.308,8.358C-76.531,457.875-77.48,457.976-78.429,458.077z"/>
		<path fill="none" d="M459.366,503.962c0.249,2.728,1.332,5.726,0.563,8.132c-1.277,3.986-4.728,5.937-10.643,5.979
			c2.815-5.366,5.163-9.838,7.511-14.312C457.652,503.829,458.508,503.896,459.366,503.962z"/>
		<path fill="none" d="M130.081,442.286c-10.222-3.488-12.589-14.143-19.453-20.737C120.679,425.112,122.35,436.511,130.081,442.286
			z"/>
		<path fill="none" d="M188.578,550.167c-2.61,11.016-2.79,11.175-11.492,10.521c1.109-1.66,2.339-2.916,2.839-4.414
			c0.533-1.59,0.37-3.41,0.565-5.747C182.952,550.416,185.495,550.304,188.578,550.167z"/>
		<path fill="none" d="M459.184,420.997c1.967,3.96,3.499,7.047,5.744,11.567c-4.963,0.168-8.881,0.301-13.857,0.47
			C454.071,428.58,456.32,425.241,459.184,420.997z"/>
		<path fill="none" d="M69.305,612.284c2.866-3.903,5.734-7.806,9.182-12.5c3.792,5.991,0.373,9.361-1.62,12.491
			c-0.894,1.402-3.968,1.417-6.053,2.064C70.311,613.655,69.808,612.969,69.305,612.284z"/>
		<path fill="none" d="M159.304,362.396c-4.014-0.071-6.728,6.913-11.577,1.721c-2.137-2.29-0.907-4.27,1.354-5.695
			C153.614,355.565,157.111,356.31,159.304,362.396z"/>
		<path fill="none" d="M425.235,509.381c-3.474-2.343-6.945-4.686-10.651-7.188c1.073-4.7,4.778-3.551,7.544-2.896
			c5.368,1.269,3.729,5.813,4.348,9.249C426.061,508.823,425.648,509.104,425.235,509.381z"/>
		<path fill="none" d="M-8.751,515.283c-8.688-4.93-8.771-8.419-0.764-15.602C-9.224,505.623-8.988,510.455-8.751,515.283z"/>
		<path fill="none" d="M34.643,551.897c-0.904-1.819-1.807-3.638-3.049-6.14c4.294-2.132,8.554-4.248,12.81-6.361
			c0.435,0.484,0.869,0.97,1.304,1.456c-3.745,3.665-7.489,7.333-11.239,10.998C34.464,551.851,34.643,551.897,34.643,551.897z"/>
		<path fill="none" d="M174.072,654.168c-5.941,12.693-7.584,12.619-14.88,7.392C164.157,659.093,168.881,656.747,174.072,654.168z"
			/>
		<path fill="none" d="M121.603,473.313c-0.935-2.8-1.873-5.608-3.427-10.258c4.099,0.794,7.623,0.673,10.06,2.238
			C129.786,466.291,125.078,472.363,121.603,473.313z"/>
		<path fill="none" d="M133.619,487.329c1.599-3.104,3.017-6.323,4.896-9.244c0.635-0.988,2.439-1.227,3.708-1.805
			c0.461,1.589,1.818,3.902,1.226,4.641c-2.393,2.96-5.386,5.43-8.158,8.082C134.734,488.444,134.176,487.887,133.619,487.329z"/>
		<path fill="none" d="M65.223,645.844c3.259-5.298,6.516-10.597,9.776-15.893c-0.61,6.83-0.023,14.29-8.211,16.924
			C66.265,646.531,65.744,646.188,65.223,645.844z"/>
		<path fill="none" d="M-39.353,521.619c5.429-1.889,8.862-3.52,12.465-4.142c1.642-0.28,3.627,1.442,6.063,2.524
			c-5.293,1.895-9.048,3.531-12.969,4.461C-34.989,524.746-36.649,523.072-39.353,521.619z"/>
		<path fill="none" d="M368.188,535.476c-3.092,8.827-5.926,9.695-14.206,4.198C359.183,538.137,363.227,536.943,368.188,535.476z"
			/>
		<path fill="none" d="M-34.264,541.397c3.181,1.171,6.363,2.342,9.545,3.511c0.104,0.457,0.206,0.915,0.309,1.371
			c-3.045,1.09-6.086,2.182-9.13,3.271c-0.792-2.347-1.583-4.695-2.373-7.041C-35.365,542.138-34.814,541.769-34.264,541.397z"/>
		<path fill="none" d="M1.691,592.902c3.024-1.502,6.049-3.005,9.073-4.507c0.457,0.349,0.915,0.699,1.369,1.05
			c-1.378,2.315-2.289,5.33-4.312,6.679c-1.213,0.81-4.163-0.987-6.331-1.611C1.557,593.976,1.624,593.438,1.691,592.902z"/>
		<path fill="none" d="M221.865,526.668c-7.483-6.173-14.965-12.348-22.448-18.52c0.319-0.394,0.639-0.787,0.959-1.181
			c7.514,6.169,15.026,12.338,22.538,18.506C222.564,525.872,222.215,526.271,221.865,526.668z"/>
		<path fill="none" d="M125.175,415.756c2.148,3.488,4.298,6.976,6.846,11.109c-5.424-0.814-7.917-4.232-8.398-10.116
			C124.139,416.419,124.657,416.087,125.175,415.756z"/>
		<path fill="none" d="M198.455,514.026c6.289,5.193,12.581,10.387,18.871,15.58c-0.358,0.446-0.716,0.889-1.073,1.334
			c-6.264-5.174-12.526-10.349-18.788-15.523C197.794,514.951,198.125,514.49,198.455,514.026z"/>
		<path fill="none" d="M41.506,523.914c5.119-0.689,10.239-1.38,15.361-2.068c-4.152,5.069-9.627,4.201-14.91,4.178
			C41.807,525.32,41.658,524.619,41.506,523.914z"/>
		<path fill="none" d="M158.672,459.76c2.873,3.423,5.743,6.843,8.654,10.313C162.782,470.332,158.024,465.721,158.672,459.76z"/>
		<path fill="none" d="M28.667,699.537c4.597,0.555,9.194,1.115,13.792,1.674c-0.085,0.883-0.172,1.766-0.259,2.647
			c-4.67-0.401-9.339-0.801-14.01-1.2C28.348,701.618,28.507,700.577,28.667,699.537z"/>
		<path fill="none" d="M76.133,544.972c4.034-2.004,6.714-3.336,9.398-4.669c0.424,0.366,0.846,0.731,1.269,1.095
			c-1.632,2.191-3.046,4.631-5.056,6.388C81.26,548.207,78.791,546.352,76.133,544.972z"/>
		<path fill="none" d="M77.208,579.761c1.849,2.46,4.013,4.147,3.74,5.207c-0.744,2.89-2.518,5.513-3.884,8.242
			c-0.535-0.251-1.068-0.5-1.602-0.749C75.958,588.848,76.456,585.233,77.208,579.761z"/>
		<path fill="none" d="M146.75,430.934c-2.216-3.578-4.434-7.158-6.648-10.739c0.803-0.519,1.605-1.038,2.408-1.556
			c2.243,3.551,4.483,7.106,6.725,10.661C148.405,429.843,147.577,430.39,146.75,430.934z"/>
		<path fill="none" d="M278.968,378.392c4.432,8.923,8.864,17.846,13.295,26.768c-0.15,0.075-0.304,0.152-0.456,0.229
			c-4.415-8.889-8.829-17.778-13.245-26.667C278.697,378.611,278.835,378.502,278.968,378.392z"/>
		<path fill="none" d="M462.183,457.152c2.847,0.993,5.521,1.15,6.04,2.29c0.802,1.755,0.126,4.186,0.076,6.327
			c-0.591,0.043-1.18,0.087-1.771,0.131C465.339,463.507,464.149,461.113,462.183,457.152z"/>
		<path fill="none" d="M135.441,428.641c1.8,3.064,3.6,6.129,5.401,9.194c-0.832,0.489-1.665,0.974-2.497,1.459
			c-1.757-3.058-3.518-6.116-5.275-9.174C133.86,429.627,134.65,429.133,135.441,428.641z"/>
		<path fill="none" d="M197.563,522.213c5.009,4.132,10.014,8.267,15.025,12.399c-0.317,0.386-0.633,0.772-0.952,1.157
			c-4.985-4.097-9.972-8.19-14.959-12.287C196.972,523.06,197.267,522.636,197.563,522.213z"/>
		<path fill="none" d="M92.675,679.059c3.346,0.416,6.691,0.831,10.038,1.25c-0.097,0.799-0.192,1.597-0.29,2.395
			c-3.35-0.386-6.698-0.773-10.049-1.162C92.473,680.714,92.575,679.886,92.675,679.059z"/>
		<path fill="none" d="M81.784,590.472c1.886-1.314,3.773-2.625,5.66-3.941c0.338,1.053,1.278,2.626,0.904,3.059
			c-1.27,1.46-3.004,2.518-4.564,3.729C83.116,592.369,82.451,591.42,81.784,590.472z"/>
		<path fill="none" d="M127.531,521.368c1.225-2.168,1.706-4.061,2.5-4.203c1.441-0.255,3.069,0.524,4.618,0.874
			c-0.324,1.05-0.421,2.819-1.017,3.009C132.128,521.522,130.398,521.284,127.531,521.368z"/>
		<path fill="none" d="M103.259,431.978c-1.787-1.548-3.572-3.095-5.355-4.644c0.817-0.565,2.106-1.783,2.374-1.592
			c1.739,1.261,3.257,2.828,4.845,4.293C104.501,430.684,103.878,431.33,103.259,431.978z"/>
		<path fill="none" d="M-152.637,339.92c1.629-2.495,3.002-5.23,5.006-7.379c0.877-0.941,3.044-0.681,4.625-0.964
			c-0.101,1.576,0.416,3.897-0.418,4.583c-2.479,2.045-5.491,3.449-8.294,5.101C-152.024,340.814-152.329,340.366-152.637,339.92z"
			/>
		<path fill="#09D588" d="M182.491,376.289c-0.924,2.201-1.143,4.1-2.116,4.645c-0.955,0.533-2.678-0.317-4.063-0.56
			c0.348-1.47,0.269-3.377,1.182-4.267C178.165,375.458,180.132,376.14,182.491,376.289z"/>
		<path fill="#09D588" d="M171.481,381.816c-1.042,2.3-1.401,4.439-2.249,4.654c-1.326,0.335-2.982-0.629-4.497-1.041
			c0.499-1.314,0.646-3.156,1.598-3.789C167.255,381.026,169.002,381.662,171.481,381.816z"/>
	</g>
</g>
</svg>
