<?xml version="1.0" encoding="utf-8"?>
<!-- Generator: Adobe Illustrator 16.0.0, SVG Export Plug-In . SVG Version: 6.00 Build 0)  -->
<!DOCTYPE svg PUBLIC "-//W3C//DTD SVG 1.1//EN" "http://www.w3.org/Graphics/SVG/1.1/DTD/svg11.dtd">
<svg version="1.1" id="Layer_1" xmlns="http://www.w3.org/2000/svg" xmlns:xlink="http://www.w3.org/1999/xlink" x="0px" y="0px"
	 width="499.938px" height="499.938px" viewBox="0 0 499.938 499.938" enable-background="new 0 0 499.938 499.938"
	 xml:space="preserve">
<g>
	<g>
		<path fill-rule="evenodd" clip-rule="evenodd" fill="none" d="M123.984,500.938c-7.999,0-15.998,0-23.997,0
			c1.082-5.01,2.546-9.984,3.025-15.052c0.152-1.614-1.979-4.277-3.676-4.979c-1.422-0.587-3.799,0.842-5.624,1.667
			c-0.755,0.342-1.168,1.438-2.05,2.605c-4.34-7.133-8.442-13.872-12.543-20.611c-0.566,0.348-1.133,0.695-1.7,1.044
			c3.824,6.446,7.647,12.891,11.333,19.104c-2.336,1.951-4.301,3.591-6.404,5.348c-4.036-6.581-8.005-13.055-11.974-19.529
			c-0.53,0.335-1.061,0.67-1.592,1.004c5.736,9.799,11.471,19.599,17.207,29.398c-28.315,0-56.631,0-84.967,0
			c0-166.546,0-333.091,0-499.938c128.295,0,256.613,0,384.93,0c3.724,6.273,7.615,12.458,11.074,18.875
			c1.07,1.986,1.871,4.878,1.26,6.889c-4.769,15.705-3.913,31.221,0.666,46.747c0.46,1.56,1.231,3.592,0.637,4.806
			c-4.067,8.292-8.46,16.424-13.019,25.123c-1.542-1.452-2.35-2.229-3.175-2.986c-9.453-8.667-27.013-10.64-38.142-4.217
			c-6.948,4.01-10.394,10.168-10.297,18.129c0.091,7.402,5.267,11.225,11.072,14.142c11.671,5.864,32.804,0.784,38.796-11.901
			c3.979-8.426,8.697-16.504,13.113-24.722c1.23-2.292,2.562-4.529,3.975-7.016c3.134,4.531,3.127,4.682,0.698,8.225
			c-10.568,15.416-20.992,30.825-23.957,49.997c-0.552,3.567-2.585,7.019-8.637,6.622c-20.735-1.361-41.539-1.688-62.32-2.294
			c-5.675-0.166-6.599,0.93-6.642,6.705c-0.083,11.163-0.143,22.325-0.213,33.487c-0.052,8.164,0.112,16.34-0.317,24.483
			c-0.102,1.942-2.179,5.388-3.37,5.398c-6.676,0.056-13.671,1.33-19.796-2.914c-0.698-0.484-2.205-0.396-3.04,0.021
			c-2.473,1.234-4.685,3.022-7.203,4.125c-3.904,1.709-8.009,2.953-11.964,4.554c-1.597,0.646-3.024,1.713-4.998,2.863
			c0-5.04,0-9.265,0-13.677c20.115,5.212,36.475-5.511,42.703-16.394c4.563-7.972,4.604-12.5-1.469-19.434
			c-5.334-6.09-12.266-7.764-20.636-5.609c-14.871,3.829-25.783,16.658-25.784,31.772c0,7.497-0.104,14.997,0.05,22.491
			c0.064,3.123-0.614,5.104-3.791,6.598c-2.364,1.111-4.942,3.393-5.813,5.749c-2.469,6.677-4.793,13.552-5.898,20.55
			c-1.315,8.337,1.247,20.987,12.033,25.735c2.852,1.255,3.328,3.424,3.512,6.374c0.976,15.597-2.603,31.179-0.036,46.748
			c0.224,1.357,0.983,3.192,2.048,3.751c5.567,2.92,11.276,5.58,17.009,8.166c3.401,1.534,5.106,4.22,4.171,7.578
			c-1.447,5.193-3.581,10.201-5.541,15.241c-1.312,3.376-10.885,8.213-14.267,7.261c-0.743-0.209-1.432-0.786-2.023-1.328
			c-7.97-7.307-14.155-6.303-19.924,3.026c-2.599,4.203-6.404,6.926-10.369,7.675c3.282-8.404,6.735-16.987,9.937-25.663
			c0.663-1.796,0.573-3.946,0.508-5.923c-0.273-8.182-4.751-14.152-10.945-18.733c-5.218-3.862-5.335-9.335-6.961-15.52
			c6.752,2.459,12.506,4.499,18.219,6.65c8.175,3.077,12.442,9.234,13.171,17.746c0.379,4.415,0.066,8.89,0.066,13.339
			c0.755,0.013,1.511,0.024,2.266,0.037c0.062-5.141,0.96-10.45-0.034-15.377c-1.125-5.574-4.35-10.689-5.951-16.21
			c-3.96-13.657-7.684-27.39-11.164-41.178c-1.895-7.512-6.086-13.317-12.042-17.832c-4.621-3.504-9.533-6.729-14.652-9.443
			c-4.787-2.539-8.462-5.738-10.516-10.793c-0.404-0.995-1.395-1.751-2.114-2.619c-0.584,0.268-1.17,0.534-1.756,0.802
			c7.892,28.24,15.784,56.48,23.938,85.656c-16.458-5.446-28.541,0.007-38.337,11.229c-10.18,11.661-15.558,24.88-10.981,40.781
			c2.738,9.512-0.646,17.297-8.88,22.511c-5.512,3.489-9.387,8.191-11.086,14.736c-0.438,1.691-2.532,3.551-4.284,4.198
			c-7.929,2.929-11.094,9.21-12.209,16.808c-0.973,6.625,1.935,11.276,7.914,14.339c0.842,0.432,1.227,1.757,1.825,2.668
			c-9.336-5.506-18.435-5.955-27.863-2.279c-5.979,2.331-9.246,6.962-8.818,11.971c0.471,5.523,4.759,10.353,11.031,11.263
			c4.308,0.625,8.78,0.12,13.468,0.12C119.202,488.854,119.06,495.49,123.984,500.938z"/>
		<path fill-rule="evenodd" clip-rule="evenodd" d="M123.984,500.938c-4.925-5.447-4.783-12.083-4.105-19.239
			c-4.688,0-9.16,0.505-13.468-0.12c-6.272-0.91-10.56-5.739-11.031-11.263c-0.428-5.009,2.839-9.64,8.818-11.971
			c9.428-3.676,18.526-3.227,27.863,2.279c-0.598-0.911-0.982-2.236-1.825-2.668c-5.979-3.063-8.887-7.714-7.914-14.339
			c1.116-7.598,4.281-13.879,12.209-16.808c1.752-0.647,3.846-2.507,4.284-4.198c1.699-6.545,5.574-11.247,11.086-14.736
			c8.234-5.214,11.619-12.999,8.88-22.511c-4.577-15.901,0.802-29.12,10.981-40.781c9.796-11.223,21.879-16.676,38.337-11.229
			c-8.153-29.176-16.046-57.416-23.938-85.656c0.586-0.268,1.172-0.534,1.756-0.802c0.72,0.867,1.71,1.624,2.114,2.619
			c2.054,5.055,5.729,8.254,10.516,10.793c5.12,2.714,10.031,5.939,14.652,9.443c5.956,4.515,10.146,10.32,12.042,17.832
			c3.48,13.788,7.203,27.521,11.164,41.178c1.601,5.521,4.826,10.636,5.951,16.21c0.994,4.927,0.096,10.236,0.034,15.377
			c-0.755-0.013-1.511-0.024-2.266-0.037c0-4.449,0.313-8.924-0.066-13.339c-0.729-8.512-4.996-14.669-13.171-17.746
			c-5.713-2.151-11.467-4.191-18.219-6.65c1.625,6.185,1.743,11.657,6.961,15.52c6.193,4.581,10.671,10.552,10.945,18.733
			c0.065,1.977,0.155,4.127-0.508,5.923c-3.202,8.676-6.655,17.259-9.937,25.663c3.964-0.749,7.77-3.472,10.369-7.675
			c5.77-9.329,11.955-10.333,19.924-3.026c0.591,0.542,1.28,1.119,2.023,1.328c3.382,0.952,12.955-3.885,14.267-7.261
			c1.96-5.04,4.094-10.048,5.541-15.241c0.936-3.358-0.77-6.044-4.171-7.578c-5.733-2.586-11.442-5.246-17.009-8.166
			c-1.064-0.559-1.824-2.394-2.048-3.751c-2.567-15.569,1.012-31.151,0.036-46.748c-0.185-2.95-0.66-5.119-3.512-6.374
			c-10.786-4.748-13.348-17.398-12.033-25.735c1.104-6.998,3.429-13.874,5.898-20.55c0.871-2.356,3.449-4.638,5.813-5.749
			c3.176-1.494,3.855-3.475,3.791-6.598c-0.154-7.494-0.05-14.994-0.05-22.491c0.001-15.114,10.913-27.944,25.784-31.772
			c8.37-2.155,15.302-0.481,20.636,5.609c6.072,6.934,6.031,11.462,1.469,19.434c-6.229,10.882-22.588,21.605-42.703,16.394
			c0,4.412,0,8.637,0,13.677c1.974-1.149,3.401-2.216,4.998-2.863c3.955-1.602,8.06-2.845,11.964-4.554
			c2.519-1.103,4.73-2.89,7.203-4.125c0.835-0.417,2.342-0.505,3.04-0.021c6.125,4.244,13.12,2.969,19.796,2.914
			c1.191-0.011,3.269-3.457,3.37-5.398c0.43-8.144,0.266-16.319,0.317-24.483c0.07-11.162,0.13-22.324,0.213-33.487
			c0.043-5.775,0.967-6.871,6.642-6.705c20.781,0.606,41.585,0.933,62.32,2.294c6.052,0.397,8.085-3.055,8.637-6.622
			c2.965-19.171,13.389-34.581,23.957-49.997c2.429-3.542,2.436-3.694-0.698-8.225c-1.413,2.486-2.744,4.724-3.975,7.016
			c-4.416,8.218-9.135,16.296-13.113,24.722c-5.992,12.685-27.125,17.765-38.796,11.901c-5.806-2.917-10.981-6.739-11.072-14.142
			c-0.097-7.961,3.349-14.119,10.297-18.129c11.129-6.423,28.688-4.45,38.142,4.217c0.825,0.757,1.633,1.534,3.175,2.986
			c4.559-8.699,8.951-16.831,13.019-25.123c0.595-1.214-0.177-3.247-0.637-4.806c-4.579-15.526-5.435-31.042-0.666-46.747
			c0.611-2.01-0.189-4.903-1.26-6.889C393.567,13.458,389.676,7.273,385.952,1c3.666,0,7.332,0,10.998,0
			c2.513,1.149,4.924,2.681,7.556,3.372c6.486,1.7,13.115,2.852,19.612,4.516c13.2,3.382,10.61,5.015,16.827-7.888
			c1.332,0,2.666,0,3.999,0c-1.027,2.89-1.924,5.835-3.124,8.652c-0.923,2.169-1.693,3.961,1.207,5.251
			c2.602,1.155,5.234,2.134,6.768-1.137c1.945-4.147,3.452-8.501,5.148-12.767c2.999,0,5.999,0,8.999,0
			c-2.323,5.15-4.574,10.335-7.001,15.438c-1.262,2.656-0.791,4.391,1.424,6.496c5.26,4.998,10.125,10.41,15.169,15.636
			c0.887,0.919,1.865,1.749,2.902,2.713c0.771-0.633,1.501-0.938,1.729-1.461C483.788,26.895,489.358,13.945,494.938,1
			c1.999,0,3.999,0,5.999,0c0,2.333,0,4.667,0,6.999c-7.755,13.606-17.916,39.249-17.236,41.243
			c6.103,0.62,11.67,1.187,17.236,1.752c0,14.665,0,29.329,0,43.995c-0.801-0.184-1.682-0.214-2.392-0.576
			c-7.154-3.65-18.122-1.854-24.03,4.129c8.885,2.167,17.653,4.306,26.422,6.445c0,3.333,0,6.666,0,9.999
			c-1.375-0.193-2.75-0.386-4.775-0.67c0.415,2.369,1.175,4.169,0.921,5.813c-0.461,2.985-0.766,6.54-2.568,8.604
			c-1.57,1.799-5.82,3.269-7.619,2.365c-2.428-1.219-4.734-4.757-4.975-7.487c-0.148-1.677,3.62-3.748,5.706-5.554
			c0.866-0.752,1.929-1.277,2.903-1.905c-1.1-0.838-2.131-2.266-3.31-2.402c-3.549-0.408-7.177-0.61-10.736-0.353
			c-7.431,0.537-9.942,5.59-6.061,11.8c3.766,6.026,7.653,11.979,11.335,18.056c1.869,3.086,3.585,3.392,6.146,0.712
			c4.234-4.433,8.678-8.666,13.033-12.983c0,2,0,4,0,6c-3.81,3.884-7.605,7.782-11.433,11.649c-2.114,2.137-2.328,4.095,0.514,6.344
			c3.749-3.431,7.333-6.713,10.919-9.994c0,5.666,0,11.332,0,16.998c-4.643,4.418-4.643,5.243,0,10.999c0,50.327,0,100.654,0,150.98
			c-2.296-1.351-4.592-2.701-7.843-4.615c0.549,7.814,3.211,13.153,7.843,17.614c0,44.327,0,88.655,0,132.983
			c-1.164,0.492-2.872,0.651-3.407,1.528c-5.968,9.758-11.755,19.628-17.59,29.468c-15.331,0-30.664,0-45.995,0
			c0.293-1.346,1.291-3.15,0.763-3.962c-3.109-4.772-6.575-9.313-9.999-14.042c-5.456,6.486-5.288,11.238,0.238,18.004
			c-1.667,0-3.333,0-5,0c-2.125-2.786-4.251-5.571-7.155-9.379c-1.865,3.613-3.354,6.495-4.843,9.379c-2.667,0-5.333,0-7.999,0
			c-1.396-4.223-2.794-8.445-4.388-13.263c-0.986,5.006-1.798,9.134-2.611,13.263c-13.666,0-27.33,0-40.995,0
			c2.168-1.277,4.864-2.129,6.336-3.964c1.204-1.499,0.946-4.172,1.336-6.325c-1.784-0.3-3.705-1.154-5.316-0.757
			c-1.977,0.488-3.874,1.808-5.489,3.147c-4.416,3.662-8.265,8.436-15.181,5.373c-0.715-0.316-2.431,1.63-3.683,2.525
			c-7.332,0-14.665,0-21.997,0c-3.593-4.658-7.471-8.966-12.538-11.825c-0.329,0.333-0.658,0.666-0.988,0.998
			c1.176,3.609,2.352,7.218,3.527,10.827c-5,0-9.999,0-14.998,0c-0.146-13.256-1.117-13.531-12.484-10.742
			c-0.639,0.157-1.688,0.147-1.842,0.513c-0.621,1.48-1.267,3.063-1.338,4.635c-0.084,1.851,0.418,3.729,0.666,5.595
			c-10.999,0-21.998,0-32.996,0c-1.475-2.957-2.618-6.156-4.549-8.777c-1.13-1.534-3.415-2.75-5.351-3.065
			c-8.927-1.458-15.674,1.01-17.621,10.975c-0.061,0.309-0.313,0.579-0.476,0.868c-2,0-4,0-5.999,0
			c2.039-4.287,4.078-8.574,6.388-13.429c-4.311-1.983-8.257-3.799-12.333-5.675c-0.801,4.126-1.109,7.286-2.07,10.234
			c-0.999,3.063-2.63,5.921-3.984,8.869C167.312,500.938,145.649,500.938,123.984,500.938z M350.803,428.21
			c-1.497-4.612-2.995-9.226-4.491-13.838c-0.582,0.16-1.163,0.32-1.745,0.481c0,4.398,0,8.799,0,13.237c2.585,0,4.463,0,6.343,0
			c-1.096,1.963-2.447,3.833-3.211,5.917c-0.694,1.9-1.052,4.062-0.868,6.044c0.044,0.473,2.891,1.104,4.355,0.923
			c2.006-0.251,3.923-1.21,6.831-2.185C355.281,434.783,353.039,431.502,350.803,428.21z M363.75,205.262
			c-3.942-4.458-3.845-4.794-0.043-10.896c0.829-1.331,1.071-3.508,0.66-5.049c-2.044-7.663-6.69-13.191-14.135-16.307
			c-4.484-1.878-6.063-1.037-6.192,3.928c-0.329,12.645-0.485,25.295-0.878,37.938c-0.092,2.954-0.491,5.998-1.376,8.804
			c-1.353,4.287-8.338,8.559-13.287,8.218c-5.147-0.355-5.225-4.737-6.072-8.405c-0.299-1.297-1.056-2.623-0.918-3.86
			c0.369-3.331-1.555-4.395-4.143-5.707c-8.89-4.508-12.552-11.631-10.729-19.754c2.241-9.992,7.628-17.756,16.85-22.233
			c4.547-2.208,9.76-3.005,14.538-4.799c1.563-0.588,2.702-2.304,4.036-3.504c-1.4-0.738-2.792-2.097-4.201-2.115
			c-9.653-0.115-19.312,0.138-28.967,0.081c-3.674-0.022-5.123,1.68-5.163,5.115c-0.194,16.976-0.579,33.953-0.421,50.924
			c0.022,2.425,2.354,5.064,4.124,7.18c2.844,3.401,6.371,6.24,9.148,9.687c6.543,8.117,10.396,17.361,10.687,27.934
			c0.024,0.921,0.5,1.829,0.874,3.114c4.039-1.411,7.254-2.96,7.652-7.606c0.539-6.291,2.648-8.188,8.729-10.544
			c3.038-1.177,6.509-3.373,7.962-6.083c3.798-7.09,10.188-13.324,6.736-23.19C358.116,214.968,361.917,210.089,363.75,205.262z
			 M378.436,157.613c0,6.936-0.113,13.875,0.088,20.806c0.044,1.522,0.973,3.171,1.884,4.492
			c9.854,14.298,9.679,29.137,2.638,44.427c-0.758,1.644-1.201,3.434-2.259,6.524c5.348-3.372,12.475-1.163,12.48-9.524
			c0.003-5.143,3.588-7.82,8.498-7.698c4.915,0.123,7.865,2.927,8.483,8.021c0.121,0.999,0.359,1.984,0.362,1.996
			c3.812-2.728,7.306-6.878,11.483-7.749c4.091-0.854,8.88,1.634,13.883,2.774c0.916-3.244,2.101-7.438,2.921-10.343
			c-2.536-2.372-5.573-4.234-5.311-5.165c0.585-2.071,2.821-3.676,5.298-6.521c-2.36-0.565-4.092-1.26-5.853-1.351
			c-5.592-0.288-11.195-0.474-16.792-0.447c-2.614,0.013-5.236,0.943-7.834,0.855c-4.161-0.142-8.653,0.066-12.36-1.451
			c-3.851-1.576-2.334-5.52-1.301-8.811c0.317-1.01-0.145-2.731-0.888-3.536C386.58,177.055,381.905,167.853,378.436,157.613z
			 M231.805,437.028c-16.161-4.754-33.853,9.809-24.888,26.032c0.438,0.792-0.365,2.271-0.59,3.43
			c-1.006-0.616-2.458-0.988-2.948-1.885c-5.071-9.307-5.163-18.746-0.221-28.144c3.636-6.914,9.271-11.495,16.567-14.291
			c6.853-2.626,6.795-2.777,3.7-9.535c-0.139-0.303-0.259-0.613-0.388-0.921c-1.277-3.059-2.918-3.57-5.688-1.354
			c-3.47,2.778-7.346,5.047-10.854,7.781c-0.969,0.755-1.886,2.457-1.756,3.604c0.968,8.571-3.336,14.172-9.828,18.835
			c-1.645,1.181-3.228,2.916-3.998,4.75c-1.576,3.751-2.717,7.706-3.749,11.652c-0.384,1.47-0.431,3.366,0.177,4.701
			c4.451,9.779,11.412,16.949,22.226,20.552c2.364-4.915,6.588-8.842,3.553-15.225c-0.651-1.37,1.93-4.645,3.549-6.604
			c1.183-1.43,3.935-1.747,4.776-3.242C225.079,450.717,228.265,444.018,231.805,437.028z M206.162,392.329
			c-7.664-0.121-11.633-2.001-13.46-6.537c-2.184-5.423-0.153-10.067,3.192-14.339c0.513-0.654,1.32-1.182,1.575-1.913
			c0.692-1.995,1.813-4.139,1.603-6.098c-0.763-7.089,1.858-12.214,8.177-15.56c1.496-0.791,3.743-2.936,3.476-3.736
			c-0.644-1.936-2.233-4.151-4.034-5.002c-7.733-3.656-17.735-1.018-21.517,6.763c-3.025,6.224-4.813,13.393-5.537,20.311
			c-1.174,11.215-1.436,22.603,2.05,33.624c1.211,3.827,7.756,6.835,10.31,4.721C196.658,400.703,201.168,396.66,206.162,392.329z
			 M452.286,134.032c-2.896-7.628-1.869-13.434,0.893-19.227c0.731-1.533,0.681-4.14-0.154-5.601
			c-4.019-7.035-8.355-13.894-12.724-20.722c-3.768-5.887-10.474-5.643-14.175,0.391c-10.259,16.726-10.356,17.777-3.335,36.061
			c0.179,0.466,0.226,1.137,0.564,1.358c1.236,0.81,2.743,2.29,3.84,2.057C435.823,126.52,443.628,128.423,452.286,134.032z
			 M259.925,251.797c8.24,3.325,12.586,9.153,12.599,16.283c0.012,6.455-4.784,12.567-12.165,15.371
			c-2.64,1.003-5.325,1.897-8.027,2.717c-3.989,1.211-3.117,4.432-2.432,6.953c0.232,0.855,3.306,1.768,4.65,1.331
			c3.596-1.167,7.636-2.352,10.216-4.853c2.417-2.344,2.529-6.995,4.862-9.51c2.532-2.729,7.731-3.38,9.534-6.312
			c4.988-8.107,6.375-17.424,5.239-26.917c-0.179-1.491-1.554-3.266-2.884-4.113c-4.171-2.658-5.44-5.861-3.57-10.578
			c0.402-1.013-0.604-3.641-1.498-3.944c-7.697-2.615-15.181-2.361-22.611,2.899C262.246,236.246,263.286,243.373,259.925,251.797z
			 M132.001,471.202c2.186,0.796,3.881,1.396,5.565,2.029c10.158,3.826,11.851,11.05,4.767,19.435
			c-0.626,0.741-0.349,3.336,0.415,3.961c2.43,1.985,4.628,1.597,6.59-1.323c3.426-5.104,7.808-8.998,14.482-9.215
			c2.76-0.089,3.582-1.814,3.377-4.405c-0.367-4.676-5.225-9.496-11.292-10.363c-3.793-0.542-6.842-1.056-6.839-5.94
			c0.004-4.943,1.781-7.365,7.017-8.358c2.948-0.558,5.592-3.661,7.885-6.083c0.592-0.624-0.194-3.935-1.149-4.414
			c-5.653-2.843-11.543-5.215-18.143-8.088c0.579,1.88,0.993,3.202,1.395,4.528c1.867,6.169,0.349,12.834-4.005,13.987
			C134.365,458.993,134.377,465.534,132.001,471.202z M346.322,304.534c-1.686,5.609-0.674,9.417,4.134,15.165
			c2.308,2.759,10.958,3.128,12.281-0.04c1.976-4.729,3.784-3.024,6.609-1.207c4.97,3.196,11.523,2.474,13.808-1.171
			c3.702-5.908-1.649-18.782-8.594-19.98c-6.619-1.142-12.996-2.478-18.16-7.223c-0.522-0.481-1.931,0.002-2.929,0.038
			c0.426,1.01,0.727,2.102,1.325,2.994c0.318,0.476,1.124,0.752,1.756,0.871c4.582,0.86,6.142,3.937,5.17,8.029
			c-0.963,4.062-3.563,7.071-8.248,5.984C350.948,307.409,348.679,305.715,346.322,304.534z M404.486,257.248
			c-4.155-7.595-15.585-14.656-23.22-15.104c-8.868-0.521-16.781,11.101-13.604,16.707c2.633,4.645,5.609,9.095,9.149,14.778
			c0.666-2.354,0.657-3.307,1.026-3.488C386.586,265.846,395.374,261.635,404.486,257.248z M458.28,249.039
			c-0.074-0.547-0.149-1.095-0.224-1.642c1.515-1.872,3.26-3.608,4.465-5.662c0.839-1.43,0.936-3.293,1.364-4.964
			c-1.913,0.756-4.352,1.017-5.626,2.372c-2.461,2.617-3.973,6.118-6.4,8.777c-6.298,6.9-4.159,15.66,4.682,18.487
			c2.686,0.858,5.444,1.699,7.889,3.056c4.148,2.305,6.614,0.135,8.802-2.849c3.018-4.115,3.146-8.476,0.195-11.202
			C469.271,251.57,465.654,246.433,458.28,249.039z M368.951,103.173c-4.855,0.605-9.495,0.846-13.969,1.84
			c-4.144,0.92-8.273,2.307-12.075,4.172c-1.63,0.799-3.204,3.283-3.308,5.087c-0.071,1.259,2.206,3.491,3.765,3.848
			c4.281,0.983,8.793,1.918,13.112,1.58c8.404-0.659,16.779-2.191,23.454-8.059c3.163-2.78,2.493-5.816-1.526-6.886
			C375.252,103.918,371.948,103.654,368.951,103.173z M405.132,149.031c-12.876-0.491-15.431,2.101-14.199,15.297
			c0.138,1.478,0.395,2.972,0.819,4.392c3.247,10.844,6.22,13.202,17.892,13.501C408.148,171.223,406.677,160.401,405.132,149.031z
			 M448.077,168.21c0.773-3.028,1.531-4.703,1.556-6.388c0.043-2.887,0.313-6.071-0.754-8.605c-1.718-4.076-5.82-4.349-9.379-2.978
			c-3.516,1.354-6.299,3.703-4.151,8.425c1.854,4.076,3.19,8.386,4.832,12.562c1.901,4.842,3.887,9.651,5.86,14.535
			c7.17-4.603,11.071-14.048,8.49-19.916C452.868,166.455,451.206,167.064,448.077,168.21z M393.273,140.837
			c10.667,0.084,18.71-2.731,24.055-7.981c1.001-0.983,2.079-2.97,1.736-4.057c-1.732-5.498-3.922-10.85-5.952-16.254
			c-0.491-0.123-0.982-0.245-1.474-0.368C405.731,121.395,399.824,130.613,393.273,140.837z M340.095,194.836
			c0.605-0.236,1.211-0.473,1.816-0.709c0-6.603,0.112-13.21-0.134-19.804c-0.033-0.881-1.985-2.527-2.865-2.413
			c-7.896,1.03-15.486,2.962-19.897,10.527c-0.731,1.256-1.223,3.489-0.588,4.477c0.677,1.054,2.888,1.753,4.312,1.59
			C329.526,187.726,335.738,188.281,340.095,194.836z M392.209,365.593c9.871-6.035,9.871-6.035,17.705-0.519
			c-2.961-10.559-5.559-19.823-8.184-29.19C393.131,339.081,388.223,355.809,392.209,365.593z M273.773,415.004
			c2.138-1.242,4.676-2.145,6.423-3.855c3.401-3.329,4.421-7.51,3.31-12.32c-1.515-6.562-1.979-7.142-8.078-3.993
			c-3.575,1.845-6.61,4.793-9.747,7.415c-5.239,4.381-5.157,6.197,0.629,9.765C268.349,413.272,270.807,413.846,273.773,415.004z
			 M179.531,425.695c3.922-5.217,3.674-6.67-1.667-10.491c-2.679-1.917-5.166-4.124-7.599-6.354
			c-1.759-1.613-3.162-3.264-5.951-1.668c-4.507,2.579-5.112,6.872-4.688,11.159c0.165,1.668,2.422,4.01,4.151,4.479
			C168.82,424.186,174.076,424.762,179.531,425.695z M289.326,274.835c2.807-0.558,5.692-1.249,8.617-1.682
			c3.447-0.511,4.722-2.551,3.726-5.624c-2.605-8.037-5.406-16.015-8.321-23.945c-0.313-0.851-1.89-1.235-2.88-1.837
			c-0.381,0.968-1.084,1.934-1.092,2.904C289.294,254.499,289.326,264.349,289.326,274.835z M413.365,284.406
			c-0.38-0.247-0.759-0.495-1.138-0.742c-2.982,2.005-5.794,4.354-8.982,5.952c-8.942,4.484-9.166,4.391-7.44,14.272
			c0.61,3.493,2.23,6.809,3.39,10.205c0.597-0.057,1.194-0.113,1.791-0.17C405.111,304.084,409.239,294.245,413.365,284.406z
			 M297.877,415.459c0.437,7.156,3.155,11.583,9.033,13.58c1.42,0.482,3.618,0.782,4.54,0.033c0.945-0.769,1.282-3.033,0.981-4.45
			c-0.929-4.37-2.175-8.684-3.529-12.946c-0.666-2.098-1.843-4.034-2.789-6.044c-2.1,1.441-4.617,2.539-6.17,4.429
			C298.58,411.716,298.299,414.262,297.877,415.459z M411.146,175.225c0.503,4.921,0.786,9.433,1.534,13.866
			c0.198,1.178,1.631,2.674,2.818,3.077c7.983,2.704,15.958,2.444,23.676-1.046c0.846-0.383,1.177-1.903,1.746-2.895
			c-1.173-0.32-2.536-1.191-3.484-0.863c-4.021,1.396-7.681,1.245-11.194-1.318C421.615,182.667,416.934,179.365,411.146,175.225z
			 M488.994,348.46c-0.481-0.168-0.963-0.337-1.444-0.506c-3.775,3.519-7.642,6.947-11.239,10.638
			c-0.632,0.648-0.587,2.627-0.087,3.594c2.133,4.121,4.476,8.143,6.924,12.088c0.606,0.978,2.155,2.328,2.806,2.111
			c1.196-0.398,2.88-1.811,2.909-2.841C489.097,365.188,488.994,356.823,488.994,348.46z M307.194,342.751
			c-6.595,2.341-13.479,1.848-17.243,8.2c-1.195,2.018-4.354,3.749-1.528,6.199c2.375,2.06,5.3,4.367,8.91,1.873
			c3.936-2.72,8.001-5.277,11.739-8.247c1.095-0.87,2.066-3.172,1.67-4.329C310.213,344.896,308.297,343.82,307.194,342.751z
			 M478.02,290.827c-0.793-1.238-1.517-2.368-2.241-3.498c-0.866,0.644-2.236,1.117-2.52,1.957
			c-2.563,7.604-8.311,12.054-14.892,15.891c-1.162,0.677-2.567,3.151-2.171,3.888c1.402,2.611,3.093,5.968,5.508,6.913
			c3.141,1.229,9.331-5.873,10.066-9.562c0.781-3.924,2.39-7.696,3.798-11.476C476.065,293.604,477.035,292.445,478.02,290.827z
			 M373.428,161.466c-8.69,0-17.426-0.056-26.158,0.09c-0.83,0.014-1.64,1.284-2.459,1.97c0.875,0.791,1.629,1.882,2.654,2.297
			c1.345,0.543,2.967,0.367,4.362,0.826c7.097,2.332,14.157,4.769,21.601,7.294C373.428,170.195,373.428,166.145,373.428,161.466z
			 M449.325,66.25c4.988,0.512,6.763-3.534,9.275-6.503c1.939-2.292,1.064-4.608-1.279-5.096c-4.896-1.021-10.026-1.897-14.92-1.408
			c-1.705,0.171-3.393,4.401-4.27,7.048c-0.334,1.009,1.324,3.521,2.607,4.047C443.413,65.434,446.442,65.664,449.325,66.25z
			 M408.762,39.395c-5.438,5.615-7.846,22.362-4.142,30.197c2.373-4.418,4.573-8.474,6.734-12.548
			C416.075,48.15,415.991,47.573,408.762,39.395z M433.547,346.75c6.46-12.868,3.828-17.759-12.958-25.001
			c0.141,2.717-0.264,5.099,0.493,7.025c1.001,2.552,2.832,4.802,4.445,7.082C427.958,339.29,430.51,342.637,433.547,346.75z
			 M231.864,326.462c-0.691-10.002-17.925-22.468-27.977-20.952C209.587,317.161,222.262,318.988,231.864,326.462z M199.048,286.236
			c1.056,5.536,1.056,5.536,27.815,21.972C226.904,299.149,212.943,288.122,199.048,286.236z M396.236,474.286
			c1.112-4.116,2.706-9.004,3.602-14.015c0.233-1.308-1.439-3.338-2.755-4.384c-0.693-0.552-3.218-0.151-3.694,0.597
			c-2.988,4.691-7.246,7.068-12.78,7.548c-0.181,0.466-0.361,0.93-0.542,1.396C385.277,468.282,390.486,471.137,396.236,474.286z
			 M221.524,290.313c-0.597-9.924-15.368-21.313-28.253-21.968C199.168,280.839,213.824,281.137,221.524,290.313z M419.742,55.132
			c-0.688-0.043-1.376-0.086-2.063-0.129c-3.438,6.393-6.78,12.838-10.348,19.157c-2.089,3.699-1.506,6.76,1.427,10.118
			c5.847-6.788,9.852-14.154,12.021-22.389C421.312,59.868,420.134,57.396,419.742,55.132z M415.077,446.871
			c1.532,3.998,2.976,7.768,4.86,12.685c-2.771-1.294-4.16-1.941-5.943-2.772c-0.707,5.452,4.241,5.175,6.502,7.207
			c0.271,0.245,2.587-1.571,3.793-2.619c3.328-2.894,6.558-5.9,9.857-8.827c0.818-0.726,1.758-1.315,2.271-1.692
			C429.647,449.588,423.114,448.37,415.077,446.871z M407.012,492.554c3.642-5.809,7.316-11.599,10.871-17.46
			c0.315-0.519,0.115-1.695-0.285-2.243c-1.884-2.575-3.923-5.039-6.075-7.756C406.315,473.843,403.935,485.082,407.012,492.554z
			 M427.876,179.305c7.042-6.653,7.525-13.304,1.157-20.557c-2.22,2.483-4.604,4.6-6.313,7.167
			C418.057,172.92,420.203,177.684,427.876,179.305z M245.453,458.096c-0.464-7.832-2.979-13.653-9.209-18.453
			c-2.622,5.641-5.009,10.776-7.427,15.98C234.518,456.471,239.557,457.219,245.453,458.096z M283.361,329.778
			c0.042,0.331-0.063,1.259,0.296,1.941c0.803,1.521,1.836,2.921,2.776,4.371c1.304-1.13,3.063-2.017,3.822-3.438
			c2.098-3.921,3.915-8.01,5.573-12.141c1.171-2.916,0.019-4.296-3.273-4.093C287.674,316.722,283.356,322.617,283.361,329.778z
			 M359.87,464.416c0.02,0,0.04,0,0.06,0c0-1.663-0.053-3.328,0.013-4.989c0.105-2.7-0.467-4.745-3.836-4.2
			c-2.709,0.438-6.038,0.163-5.175,4.688c0.716,3.753,1.007,7.599,1.942,11.288c0.287,1.133,2.25,2.782,3.137,2.61
			c1.421-0.276,3.278-1.653,3.697-2.966C360.333,468.886,359.87,466.576,359.87,464.416z M461.928,177.191
			c11.315-0.051,15.245-9.282,21.608-15.332c0.699-0.664,0.162-2.628,0.198-3.989c-1.011,0.002-2.458-0.434-2.966,0.072
			C474.409,164.279,468.186,170.752,461.928,177.191z M457.325,210.793c-0.659-0.168-1.319-0.337-1.979-0.505
			c0.838,2.42,1.506,4.92,2.595,7.222c0.465,0.983,1.808,1.551,2.752,2.307c0.573-0.911,1.41-1.752,1.678-2.746
			c2.218-8.232,5.187-16.078,10.806-22.693c0.35-0.413,0.143-1.298,0.195-1.963c-0.451-0.29-0.902-0.58-1.354-0.87
			c-3.193,3.824-6.486,7.571-9.544,11.5C460.574,205.484,459.029,208.201,457.325,210.793z M271.834,339.041
			c0.314,0.109,0.628,0.219,0.942,0.328c0,1.32-0.183,2.673,0.042,3.954c0.352,2.01,0.978,3.972,1.488,5.952
			c1.55-1.183,3.131-2.327,4.635-3.565c0.628-0.517,0.994-1.368,1.646-1.834c3.298-2.355,3.511-4.808,0.497-7.582
			c-2.08-1.915-4.063-3.937-6.09-5.909C273.941,333.27,272.888,336.155,271.834,339.041z M427.799,36.373
			c12.075,0.861,12.22,0.912,14.437-5.443c0.501-1.437-0.005-4.616-0.704-4.828c-2.45-0.744-6.346-1.696-7.579-0.461
			C431.332,28.267,430.039,32.219,427.799,36.373z M430.832,485.694c1.904,2.765,3.811,5.424,5.596,8.164
			c1.373,2.105,2.722,4.005,5.474,1.888c2.441-1.876,5.5-3.289,3.332-7.485C442.243,482.479,439.276,481.748,430.832,485.694z
			 M480.483,330.675c-0.216-0.495-0.432-0.99-0.647-1.485c-4.782,1.094-9.624,1.993-14.3,3.433c-1.034,0.318-2.22,2.664-2.034,3.877
			c0.325,2.128,1.522,4.19,2.74,6.025c0.146,0.22,2.966-0.838,4.062-1.836C473.818,337.485,477.107,334.031,480.483,330.675z
			 M385.311,459.971c0.436-0.396,0.87-0.791,1.305-1.187c-2.057-7.973-6.641-14.26-13.188-19.405
			c-2.724,7.188-2.448,8.011,2.858,12.079c1.681,1.288,2.958,3.088,4.506,4.563C382.238,457.398,383.8,458.658,385.311,459.971z
			 M338.623,347.994c-8.92,5.918-17.372,11.524-25.824,17.132C324.592,364.981,338.303,355.623,338.623,347.994z M418.485,426.181
			c2.511,8.243,10.416,15.784,16.896,15.451c-3.484-5.022-6.807-9.704-10.01-14.466
			C423.357,424.175,421.156,423.829,418.485,426.181z M473.042,71.513c5.173,2.122,9.949,4.082,15.747,6.46
			c-0.289-2.094-0.055-3.55-0.674-4.322c-2.359-2.938-4.831-5.829-7.573-8.406c-2.649-2.49-4.771-1.492-5.971,1.758
			C474.119,68.228,473.729,69.476,473.042,71.513z M479.294,186.73c5.501-1.958,10.34-3.51,15.007-5.471
			c1.08-0.453,2.461-3.068,2.187-3.39c-1.652-1.933-5.168-5.178-5.483-4.913C486.435,176.79,481.364,180.394,479.294,186.73z
			 M438.761,358.149c9.05-4.301,9.647-14.152,3.181-23.575C440.832,342.801,439.873,349.906,438.761,358.149z M448.128,374.54
			c6.625-0.997,12.392-1.864,18.612-2.8c-0.867-1.727-1.734-3.271-2.435-4.888c-1.663-3.833-3.874-4.688-7.02-1.495
			C454.416,368.273,451.509,371.152,448.128,374.54z M463.204,125.292c-5.587,5.055-5.033,11.227,0.887,13.918
			c1.545,0.703,3.751,0.165,5.585-0.174c0.317-0.059,0.767-2.257,0.34-2.997C467.916,132.4,465.541,128.92,463.204,125.292z
			 M349.642,267.602c-1.575,1.33-3.773,2.301-3.823,3.372c-0.317,6.838-0.161,13.698-0.161,20.552
			c2.783-2.183,5.616-4.663,5.744-7.274C351.652,279.103,350.402,273.881,349.642,267.602z M371.405,488.277
			c3.076-1.78,5.56-3.417,8.214-4.696c2.248-1.083,4.614-1.974,2.886-5.018c-1.528-2.69-3.658-4.283-6.978-2.375
			C370.807,478.901,370.277,483.003,371.405,488.277z M320.868,342.359c3.063-1.769,5.581-2.801,7.524-4.494
			c1.256-1.094,2.708-3.598,2.243-4.689c-0.962-2.257-3.104-4.036-4.934-5.837c-0.105-0.104-2.362,1.213-2.569,2.111
			C322.212,333.449,321.673,337.537,320.868,342.359z M453.763,458.727c2.042-2.708,3.771-4.325,4.604-6.316
			c0.702-1.68,0.972-5.206,0.379-5.461c-2.026-0.869-4.775-1.341-6.733-0.601c-1.178,0.445-2.139,3.542-1.865,5.231
			C450.503,453.779,452.181,455.765,453.763,458.727z M273.821,376.73c4.144-2.13,7.932-4.076,12.052-6.192
			c-2.3-3.433-4.543-6.385-7.933-4.772C274.245,367.523,272.152,371.047,273.821,376.73z M454.703,91.947
			c1.168-2.044,2.463-3.74,3.098-5.653c0.345-1.039-0.331-3.492-0.725-3.531c-3.341-0.334-6.724-0.259-10.094-0.307
			c0.11,1.494-0.356,3.574,0.447,4.367C449.367,88.736,451.899,90.048,454.703,91.947z M476.909,412.823
			c4.712,2.753,8.367,4.886,12.021,7.02c0.479-0.363,0.96-0.727,1.439-1.09c-1.032-3.715-2.063-7.431-3.254-11.723
			C483.478,409.096,480.827,410.599,476.909,412.823z M395.61,311.868c-3.505,3.47-6.456,6.985-10.001,9.735
			c-3.71,2.876-3.083,4.771-1.556,4.906c3.632-3.927,7.265-7.854,10.897-11.781c0.991,0.817,1.983,1.634,2.976,2.45
			C397.107,315.301,396.288,313.422,395.61,311.868z M472.793,427.381c2.086-2.962,6.833-4.972,3.682-9.366
			c-1.233-1.72-3.489-4.324-6.543-1.315C464.82,421.732,470.82,423.89,472.793,427.381z M250.074,233.325c0,7.178,0,13.182,0,19.858
			C255.25,247.703,255.421,239.157,250.074,233.325z M467.252,381.229c-5.764-2.063-10.966-4.515-16.856-1.625
			C453.322,386.703,455.83,386.946,467.252,381.229z M337.022,461.67c-4.731,1.066-5.966,2.869-4.614,6.957
			c1.373,4.151,1.782,8.627,2.562,12.969c0.425,2.365,0.743,4.749,1.11,7.124c0.313-0.05,0.628-0.1,0.942-0.149
			C337.022,479.753,337.022,470.934,337.022,461.67z M257.169,489.829c-2.084-3.456-4.062-6.892-6.26-10.18
			c-0.262-0.392-2.049-0.327-2.554,0.143c-0.74,0.688-1.613,2.27-1.294,2.887c1.663,3.229,3.6,6.33,5.658,9.328
			c0.362,0.529,1.903,0.722,2.61,0.41C256.049,492.101,256.408,490.969,257.169,489.829z M226.602,483.185
			c0.307-0.828,0.613-1.656,0.92-2.485c-1.854-2.06-3.709-4.12-5.565-6.181c-1.674,1.818-3.535,3.508-4.933,5.518
			c-0.567,0.815-0.131,2.331-0.15,3.528C220.116,483.438,223.359,483.312,226.602,483.185z M486.021,56.337
			c-0.407,0.682-0.814,1.365-1.222,2.046c2.741,3.787,5.48,7.573,8.769,12.116c2.399-4.918,2.205-8.583-0.575-11.282
			C491.316,57.59,488.387,57.253,486.021,56.337z M299.349,303.866c-7.968,4.031-18.104,0.723-25.195,7.587
			C282.445,308.479,292.25,310.902,299.349,303.866z M412.846,299.793c-1.156,2.611-2.11,4.766-3.033,6.853
			c1.857,1.122,3.434,1.737,4.531,2.833c1.036,1.032,1.57,2.569,2.489,4.17C420.958,306.705,420.898,306.491,412.846,299.793z
			 M417.183,22.335c2.34,4.119,4.182,7.359,6.636,11.679c1.909-4.196,3.412-7.496,5.317-11.679
			C424.464,22.335,421.274,22.335,417.183,22.335z M415.229,424.221c0.775-0.135,1.55-0.27,2.324-0.404
			c0.322-1.994,1.575-4.548,0.78-5.867c-1.772-2.939-3.158-7.161-9.686-6.484C411.118,416.255,413.173,420.237,415.229,424.221z
			 M245.165,246.758c-5.947-0.689-8.004,1.904-7.502,6.837c0.25,2.461,1.385,4.296,4.162,3.467
			C248.125,255.181,243.453,250.058,245.165,246.758z M476.463,86.855c-0.061-0.457-0.121-0.914-0.181-1.371
			c-3.104-0.902-6.195-4.131-9.456-0.204c-1.681,2.023-4.16,4.622-0.706,7.445C469.72,90.683,473.091,88.769,476.463,86.855z
			 M302.699,448.984c-4.101-1.792-8.201-3.585-13.245-5.79C292.112,452.787,295.038,454.155,302.699,448.984z M493.072,354.629
			c0,5.364,0,10.245,0,15.376C500.408,366.109,501.147,364.778,493.072,354.629z M321.575,323.665
			c0.644-3.271-2.451-9.672-3.915-8.798c-2.302,1.375-3.652,4.346-5.997,7.416C316.156,322.909,318.87,323.288,321.575,323.665z
			 M338.139,319.477c0.691-0.232,1.383-0.466,2.073-0.699c-1.056-3.388-1.871-6.887-3.34-10.087
			c-0.366-0.795-2.844-0.622-4.351-0.895c-0.042,1.29-0.588,2.883-0.03,3.816C334.14,314.373,336.225,316.874,338.139,319.477z
			 M441.363,441.419c0.499-0.29,0.999-0.58,1.498-0.871c1.189-7.871-5.236-10.456-10.646-13.774
			C435.265,431.656,438.314,436.537,441.363,441.419z M295.354,476.955c2.316-1.643,4.387-2.329,4.645-3.438
			c0.845-3.632,1.032-7.418,1.643-12.585c-1.9,1.574-4.146,2.511-4.588,3.986C296.083,468.161,296.023,471.678,295.354,476.955z
			 M474.606,144.88c-0.826,4.714-1.501,8.559-2.367,13.501C480.203,153.783,480.65,151.076,474.606,144.88z M313.841,480.879
			c0.081,0.609,0.161,1.218,0.242,1.826c2.271,0.311,4.542,0.621,6.813,0.932c0.349-2.972,0.697-5.943,1.046-8.915
			c-0.421-0.103-0.841-0.206-1.262-0.309C318.4,476.569,316.121,478.725,313.841,480.879z M371.33,472.282
			c0.417,0.275,0.834,0.552,1.252,0.828c1.41-1.539,4.112-3.245,3.941-4.583c-0.285-2.231-2.409-4.228-3.76-6.323
			c-0.478,0.233-0.956,0.468-1.434,0.702C371.33,466.031,371.33,469.157,371.33,472.282z M407.07,262.53
			c-0.185-0.454-0.37-0.907-0.556-1.36c-8.206,3.687-16.411,7.374-24.617,11.061c0.194,0.427,0.389,0.854,0.583,1.282
			C390.678,269.852,398.874,266.191,407.07,262.53z M275.341,297.011c0.062,0.565,0.123,1.131,0.185,1.696
			c5.074,2.023,8.934,1.363,11.842-2.797C282.893,296.32,279.116,296.666,275.341,297.011z M386.956,276.729
			c0.248,0.464,0.496,0.929,0.745,1.394c6.866-3.06,13.733-6.12,20.601-9.18c-0.222-0.48-0.442-0.96-0.664-1.44
			C400.744,270.578,393.851,273.654,386.956,276.729z M330.541,410.882c0.646,0.165,1.291,0.33,1.936,0.495
			c2.192-4.369,5.167-8.549,2.675-14.077C333.614,401.828,332.077,406.355,330.541,410.882z M325.602,287.363
			c4.675,2.991,10.455,0.944,12.111-2.928C333.638,285.42,329.62,286.392,325.602,287.363z M470.816,493.821
			c0.797,0.56,1.594,1.12,2.392,1.68c2.254-3.706,4.508-7.411,6.763-11.117c-0.696-0.435-1.392-0.87-2.088-1.305
			C475.526,486.66,473.171,490.24,470.816,493.821z M362.249,390.852c2.238-1.635,4.792-2.918,4.642-3.491
			c-0.628-2.39-2.069-4.566-3.212-6.821c-0.476,0.2-0.952,0.4-1.43,0.602C362.249,383.912,362.249,386.684,362.249,390.852z
			 M391.525,404.281c4.227,2.877,7.018,4.777,9.81,6.676c0.427-0.34,0.853-0.68,1.279-1.02c-1.699-2.255-3.144-4.806-5.232-6.612
			C396.615,402.663,394.326,403.763,391.525,404.281z M296.803,285.378c-0.111-0.91-0.223-1.821-0.333-2.733
			c-3.868,0.396-7.736,0.79-11.604,1.186c0.099,0.879,0.198,1.758,0.299,2.637C289.044,286.104,292.924,285.741,296.803,285.378z
			 M307.684,154.162c0.035,0.157,0.07,0.314,0.105,0.472c9.185,0,18.369,0,27.554,0c0-0.157,0-0.314,0-0.472
			C326.123,154.162,316.902,154.162,307.684,154.162z M448.385,34.733c4.092,0,6.566,0,9.039,0c0.207-0.508,0.413-1.016,0.62-1.523
			c-1.755-0.923-3.49-2.483-5.274-2.542C451.61,30.63,450.38,32.782,448.385,34.733z M290.246,293.807
			c0.083,0.857,0.166,1.716,0.249,2.573c3.259-0.198,6.518-0.397,9.776-0.597c-0.06-0.89-0.12-1.779-0.181-2.67
			C296.809,293.345,293.527,293.575,290.246,293.807z M393.374,280.839c0.229,0.419,0.459,0.838,0.688,1.256
			c5.447-2.447,10.895-4.894,16.342-7.34c-0.189-0.422-0.379-0.843-0.568-1.265C404.349,275.94,398.861,278.389,393.374,280.839z
			 M480.193,432.339c0.645,0.424,1.289,0.849,1.935,1.271c1.7-2.616,3.4-5.232,5.101-7.85c-0.622-0.408-1.244-0.816-1.866-1.226
			C483.639,427.136,481.916,429.737,480.193,432.339z M402.287,404.898c1.061-0.162,2.122-0.323,3.183-0.484
			c-0.362-1.791-0.523-3.664-1.212-5.318c-0.203-0.488-1.896-0.356-2.906-0.51C401.664,400.69,401.976,402.794,402.287,404.898z
			 M363.845,338.535c1.111-2.411,2.021-3.747,2.246-5.189c0.089-0.572-1.338-1.381-2.074-2.081c-0.927,1.14-2.246,2.167-2.625,3.468
			C361.182,335.449,362.552,336.627,363.845,338.535z M279.763,321.854c-0.28-0.781-0.561-1.563-0.842-2.345
			c-1.868,0.714-3.791,1.326-5.552,2.249c-0.27,0.142,0.21,1.713,0.342,2.623C275.729,323.54,277.745,322.697,279.763,321.854z"/>
		<path fill-rule="evenodd" clip-rule="evenodd" fill="none" d="M494.938,1c-5.58,12.945-11.15,25.895-16.773,38.821
			c-0.228,0.523-0.957,0.828-1.729,1.461c-1.037-0.964-2.016-1.794-2.902-2.713c-5.044-5.226-9.909-10.638-15.169-15.636
			c-2.215-2.105-2.686-3.84-1.424-6.496c2.427-5.102,4.678-10.287,7.001-15.438C474.273,1,484.606,1,494.938,1z"/>
		<path fill-rule="evenodd" clip-rule="evenodd" fill="none" d="M500.938,130.983c-4.355,4.317-8.799,8.55-13.033,12.983
			c-2.561,2.68-4.276,2.374-6.146-0.712c-3.682-6.077-7.569-12.03-11.335-18.056c-3.882-6.21-1.37-11.263,6.061-11.8
			c3.56-0.258,7.188-0.056,10.736,0.353c1.179,0.136,2.21,1.564,3.31,2.402c-0.975,0.628-2.037,1.153-2.903,1.905
			c-2.086,1.806-5.854,3.876-5.706,5.554c0.24,2.73,2.547,6.268,4.975,7.487c1.799,0.904,6.049-0.566,7.619-2.365
			c1.803-2.065,2.107-5.62,2.568-8.604c0.254-1.644-0.506-3.445-0.921-5.813c2.025,0.284,3.4,0.477,4.775,0.67
			C500.938,120.318,500.938,125.651,500.938,130.983z"/>
		<path fill-rule="evenodd" clip-rule="evenodd" fill="none" d="M500.938,50.994c-5.566-0.565-11.134-1.132-17.236-1.752
			c-0.68-1.994,9.481-27.636,17.236-41.243C500.938,22.33,500.938,36.663,500.938,50.994z"/>
		<path fill-rule="evenodd" clip-rule="evenodd" d="M85.989,500.938c-5.736-9.8-11.471-19.6-17.207-29.398
			c0.531-0.334,1.062-0.669,1.592-1.004c3.969,6.475,7.938,12.948,11.974,19.529c2.103-1.757,4.068-3.396,6.404-5.348
			c-3.686-6.214-7.51-12.658-11.333-19.104c0.567-0.349,1.134-0.696,1.7-1.044c4.101,6.739,8.203,13.479,12.543,20.611
			c0.882-1.168,1.295-2.264,2.05-2.605c1.824-0.825,4.202-2.254,5.624-1.667c1.698,0.701,3.829,3.364,3.676,4.979
			c-0.479,5.067-1.943,10.042-3.025,15.052c-3.333,0-6.666,0-9.999,0c-0.007-2.911,0.293-5.875-0.199-8.702
			c-0.159-0.912-2.402-1.462-3.692-2.177c-0.394,1.43-1.369,3.008-1.054,4.26c0.581,2.307,1.921,4.423,2.945,6.619
			C87.322,500.938,86.656,500.938,85.989,500.938z M98.122,496.05c0.497-0.07,0.994-0.14,1.491-0.21
			c-0.215-3.004-0.139-6.076-0.813-8.974c-0.227-0.974-2.364-1.502-3.628-2.233c-0.415,1.428-1.522,3.115-1.104,4.229
			C95.021,491.407,96.723,493.672,98.122,496.05z"/>
		<path fill-rule="evenodd" clip-rule="evenodd" fill="none" d="M479.94,500.938c5.835-9.84,11.622-19.71,17.59-29.468
			c0.535-0.877,2.243-1.036,3.407-1.528c0,6.666,0,13.331,0,19.997c-1.441-3.025-2.882-6.051-4.323-9.077
			c-0.635,0.14-1.27,0.278-1.904,0.417c0.179,1.586,0.357,3.171,0.537,4.757c0.563,4.967,1.127,9.935,1.69,14.902
			C491.271,500.938,485.606,500.938,479.94,500.938z"/>
		<path fill-rule="evenodd" clip-rule="evenodd" fill="none" d="M206.974,500.938c0.163-0.289,0.415-0.56,0.476-0.868
			c1.947-9.965,8.693-12.433,17.621-10.975c1.937,0.315,4.221,1.531,5.351,3.065c1.931,2.621,3.075,5.82,4.549,8.777
			C225.639,500.938,216.306,500.938,206.974,500.938z"/>
		<path fill-rule="evenodd" clip-rule="evenodd" fill="none" d="M440.945,1c-6.217,12.902-3.627,11.27-16.827,7.888
			c-6.497-1.664-13.126-2.816-19.612-4.516c-2.632-0.69-5.043-2.223-7.556-3.372C411.615,1,426.279,1,440.945,1z"/>
		<path fill-rule="evenodd" clip-rule="evenodd" fill="none" d="M500.938,104.987c-8.769-2.139-17.537-4.278-26.422-6.445
			c5.908-5.983,16.876-7.779,24.03-4.129c0.71,0.362,1.591,0.393,2.392,0.576C500.938,98.321,500.938,101.654,500.938,104.987z"/>
		<path fill-rule="evenodd" clip-rule="evenodd" fill="none" d="M188.977,500.938c1.354-2.948,2.985-5.806,3.984-8.869
			c0.96-2.948,1.269-6.108,2.07-10.234c4.076,1.876,8.021,3.691,12.333,5.675c-2.31,4.854-4.349,9.142-6.388,13.429
			C196.976,500.938,192.976,500.938,188.977,500.938z"/>
		<path fill-rule="evenodd" clip-rule="evenodd" fill="none" d="M267.967,500.938c-0.248-1.866-0.75-3.744-0.666-5.595
			c0.071-1.571,0.717-3.154,1.338-4.635c0.153-0.365,1.203-0.355,1.842-0.513c11.367-2.789,12.339-2.514,12.484,10.742
			C277.965,500.938,272.966,500.938,267.967,500.938z"/>
		<path fill-rule="evenodd" clip-rule="evenodd" fill="none" d="M424.947,500.938c-5.526-6.766-5.694-11.518-0.238-18.004
			c3.424,4.729,6.89,9.27,9.999,14.042c0.528,0.812-0.47,2.616-0.763,3.962C430.946,500.938,427.946,500.938,424.947,500.938z"/>
		<path fill-rule="evenodd" clip-rule="evenodd" fill="none" d="M329.959,500.938c1.252-0.896,2.968-2.842,3.683-2.525
			c6.916,3.063,10.765-1.711,15.181-5.373c1.615-1.34,3.513-2.659,5.489-3.147c1.611-0.397,3.532,0.457,5.316,0.757
			c-0.39,2.153-0.132,4.826-1.336,6.325c-1.472,1.835-4.168,2.687-6.336,3.964C344.624,500.938,337.291,500.938,329.959,500.938z"/>
		<path fill-rule="evenodd" clip-rule="evenodd" fill="none" d="M454.943,1c-1.696,4.265-3.203,8.619-5.148,12.767
			c-1.533,3.271-4.166,2.292-6.768,1.137c-2.9-1.29-2.13-3.082-1.207-5.251c1.2-2.817,2.097-5.762,3.124-8.652
			C448.277,1,451.61,1,454.943,1z"/>
		<path fill-rule="evenodd" clip-rule="evenodd" fill="none" d="M500.938,144.982c-3.586,3.281-7.17,6.563-10.919,9.994
			c-2.842-2.249-2.628-4.207-0.514-6.344c3.827-3.867,7.623-7.765,11.433-11.649C500.938,139.649,500.938,142.315,500.938,144.982z"
			/>
		<path fill-rule="evenodd" clip-rule="evenodd" fill="none" d="M297.963,500.938c-1.176-3.609-2.352-7.218-3.527-10.827
			c0.33-0.332,0.659-0.665,0.988-0.998c5.067,2.859,8.945,7.167,12.538,11.825C304.629,500.938,301.295,500.938,297.963,500.938z"/>
		<path fill-rule="evenodd" clip-rule="evenodd" fill="none" d="M500.938,336.958c-4.632-4.461-7.294-9.8-7.843-17.614
			c3.251,1.914,5.547,3.265,7.843,4.615C500.938,328.292,500.938,332.625,500.938,336.958z"/>
		<path fill-rule="evenodd" clip-rule="evenodd" d="M496.938,500.938c-0.563-4.968-1.127-9.936-1.69-14.902
			c-0.18-1.586-0.358-3.171-0.537-4.757c0.635-0.139,1.27-0.277,1.904-0.417c1.441,3.026,2.882,6.052,4.323,9.077
			c0,3.667,0,7.332,0,10.999C499.604,500.938,498.271,500.938,496.938,500.938z"/>
		<path fill-rule="evenodd" clip-rule="evenodd" fill="none" d="M407.949,500.938c1.489-2.884,2.978-5.766,4.843-9.379
			c2.904,3.808,5.03,6.593,7.155,9.379C415.948,500.938,411.948,500.938,407.949,500.938z"/>
		<path fill-rule="evenodd" clip-rule="evenodd" fill="none" d="M87.989,500.938c-1.024-2.196-2.364-4.313-2.945-6.619
			c-0.315-1.252,0.66-2.83,1.054-4.26c1.29,0.715,3.533,1.265,3.692,2.177c0.492,2.827,0.192,5.791,0.199,8.702
			C89.322,500.938,88.656,500.938,87.989,500.938z"/>
		<path fill-rule="evenodd" clip-rule="evenodd" fill="none" d="M392.951,500.938c0.813-4.129,1.625-8.257,2.611-13.263
			c1.594,4.817,2.991,9.04,4.388,13.263C397.617,500.938,395.283,500.938,392.951,500.938z"/>
		<path fill-rule="evenodd" clip-rule="evenodd" fill="none" d="M500.938,172.979c-4.643-5.756-4.643-6.581,0-10.999
			C500.938,165.646,500.938,169.312,500.938,172.979z"/>
		<path fill-rule="evenodd" clip-rule="evenodd" fill="none" d="M363.75,205.262c-1.833,4.827-5.634,9.706-4.527,12.869
			c3.452,9.866-2.938,16.101-6.736,23.19c-1.453,2.711-4.924,4.907-7.962,6.083c-6.081,2.356-8.19,4.253-8.729,10.544
			c-0.398,4.646-3.613,6.195-7.652,7.606c-0.374-1.285-0.85-2.193-0.874-3.114c-0.29-10.572-4.144-19.816-10.687-27.934
			c-2.777-3.447-6.305-6.285-9.148-9.687c-1.77-2.116-4.102-4.755-4.124-7.18c-0.158-16.971,0.227-33.949,0.421-50.924
			c0.04-3.435,1.489-5.138,5.163-5.115c9.655,0.057,19.313-0.196,28.967-0.081c1.409,0.018,2.801,1.376,4.201,2.115
			c-1.334,1.2-2.474,2.917-4.036,3.504c-4.778,1.794-9.991,2.592-14.538,4.799c-9.222,4.477-14.608,12.242-16.85,22.233
			c-1.823,8.123,1.839,15.246,10.729,19.754c2.588,1.312,4.512,2.376,4.143,5.707c-0.138,1.237,0.619,2.563,0.918,3.86
			c0.848,3.668,0.925,8.05,6.072,8.405c4.949,0.341,11.935-3.931,13.287-8.218c0.885-2.806,1.284-5.85,1.376-8.804
			c0.393-12.643,0.549-25.294,0.878-37.938c0.129-4.965,1.708-5.806,6.192-3.928c7.444,3.116,12.091,8.644,14.135,16.307
			c0.411,1.541,0.169,3.718-0.66,5.049C359.905,200.468,359.808,200.804,363.75,205.262z"/>
		<path fill-rule="evenodd" clip-rule="evenodd" fill="none" d="M378.436,157.613c3.47,10.24,8.145,19.442,15.422,27.3
			c0.743,0.804,1.205,2.526,0.888,3.536c-1.033,3.292-2.55,7.235,1.301,8.811c3.707,1.518,8.199,1.31,12.36,1.451
			c2.598,0.088,5.22-0.843,7.834-0.855c5.597-0.026,11.2,0.159,16.792,0.447c1.761,0.091,3.492,0.785,5.853,1.351
			c-2.477,2.844-4.713,4.45-5.298,6.521c-0.263,0.931,2.774,2.792,5.311,5.165c-0.82,2.905-2.005,7.1-2.921,10.343
			c-5.003-1.14-9.792-3.627-13.883-2.774c-4.178,0.871-7.672,5.021-11.483,7.749c-0.003-0.012-0.241-0.997-0.362-1.996
			c-0.618-5.094-3.568-7.897-8.483-8.021c-4.91-0.123-8.495,2.555-8.498,7.698c-0.006,8.361-7.133,6.152-12.48,9.524
			c1.058-3.09,1.501-4.88,2.259-6.524c7.041-15.29,7.216-30.129-2.638-44.427c-0.911-1.321-1.84-2.969-1.884-4.492
			C378.322,171.488,378.436,164.549,378.436,157.613z"/>
		<path fill-rule="evenodd" clip-rule="evenodd" fill="none" d="M231.805,437.028c-3.541,6.989-6.726,13.688-10.358,20.137
			c-0.841,1.495-3.593,1.813-4.776,3.242c-1.62,1.96-4.2,5.234-3.549,6.604c3.035,6.383-1.189,10.31-3.553,15.225
			c-10.814-3.603-17.775-10.772-22.226-20.552c-0.607-1.335-0.561-3.231-0.177-4.701c1.031-3.946,2.173-7.901,3.749-11.652
			c0.77-1.834,2.353-3.569,3.998-4.75c6.492-4.663,10.796-10.264,9.828-18.835c-0.13-1.146,0.788-2.849,1.756-3.604
			c3.508-2.734,7.384-5.003,10.854-7.781c2.77-2.217,4.411-1.705,5.688,1.354c0.129,0.308,0.249,0.618,0.388,0.921
			c3.095,6.758,3.153,6.909-3.7,9.535c-7.296,2.796-12.931,7.377-16.567,14.291c-4.942,9.397-4.85,18.837,0.221,28.144
			c0.489,0.896,1.942,1.269,2.948,1.885c0.225-1.159,1.028-2.638,0.59-3.43C197.953,446.837,215.644,432.274,231.805,437.028z"/>
		<path fill-rule="evenodd" clip-rule="evenodd" fill="none" d="M206.162,392.329c-4.994,4.331-9.503,8.374-14.165,12.233
			c-2.554,2.114-9.099-0.894-10.31-4.721c-3.486-11.021-3.224-22.409-2.05-33.624c0.724-6.918,2.511-14.087,5.537-20.311
			c3.782-7.78,13.783-10.419,21.517-6.763c1.801,0.851,3.39,3.066,4.034,5.002c0.267,0.801-1.98,2.945-3.476,3.736
			c-6.318,3.346-8.939,8.471-8.177,15.56c0.21,1.959-0.91,4.103-1.603,6.098c-0.254,0.731-1.062,1.259-1.575,1.913
			c-3.345,4.271-5.375,8.916-3.192,14.339C194.528,390.328,198.498,392.208,206.162,392.329z"/>
		<path fill-rule="evenodd" clip-rule="evenodd" fill="none" d="M452.286,134.032c-8.658-5.609-16.463-7.513-25.091-5.683
			c-1.097,0.232-2.604-1.247-3.84-2.057c-0.339-0.222-0.386-0.893-0.564-1.358c-7.021-18.284-6.924-19.335,3.335-36.061
			c3.701-6.033,10.407-6.277,14.175-0.391c4.368,6.829,8.705,13.687,12.724,20.722c0.835,1.461,0.886,4.068,0.154,5.601
			C450.417,120.598,449.391,126.404,452.286,134.032z"/>
		<path fill-rule="evenodd" clip-rule="evenodd" fill="none" d="M259.925,251.797c3.361-8.424,2.321-15.551-6.087-20.671
			c7.431-5.26,14.914-5.514,22.611-2.899c0.894,0.303,1.9,2.931,1.498,3.944c-1.87,4.717-0.601,7.919,3.57,10.578
			c1.33,0.847,2.705,2.622,2.884,4.113c1.136,9.494-0.251,18.81-5.239,26.917c-1.803,2.932-7.002,3.582-9.534,6.312
			c-2.333,2.515-2.445,7.166-4.862,9.51c-2.58,2.501-6.62,3.686-10.216,4.853c-1.345,0.437-4.418-0.476-4.65-1.331
			c-0.686-2.521-1.558-5.742,2.432-6.953c2.702-0.819,5.388-1.714,8.027-2.717c7.381-2.804,12.177-8.916,12.165-15.371
			C272.511,260.95,268.165,255.122,259.925,251.797z M266.225,233.259c-1.095,1.894-2.471,3.244-2.207,4.068
			c0.36,1.122,1.973,1.843,3.048,2.735c0.771-1.048,2.185-2.127,2.136-3.137C269.152,235.894,267.668,234.932,266.225,233.259z
			 M266.273,244.66c-1.148,1.99-2.394,3.179-2.266,4.195c0.133,1.049,1.6,1.93,2.482,2.884c0.967-1.086,2.448-2.062,2.715-3.299
			C269.375,247.648,267.751,246.469,266.273,244.66z"/>
		<path fill-rule="evenodd" clip-rule="evenodd" fill="none" d="M132.001,471.202c2.376-5.668,2.364-12.209,10.063-14.25
			c4.354-1.153,5.872-7.818,4.005-13.987c-0.401-1.326-0.815-2.648-1.395-4.528c6.6,2.873,12.49,5.245,18.143,8.088
			c0.955,0.479,1.741,3.79,1.149,4.414c-2.292,2.422-4.937,5.525-7.885,6.083c-5.236,0.993-7.013,3.415-7.017,8.358
			c-0.003,4.885,3.045,5.398,6.839,5.94c6.067,0.867,10.925,5.688,11.292,10.363c0.204,2.591-0.617,4.316-3.377,4.405
			c-6.675,0.217-11.056,4.111-14.482,9.215c-1.962,2.92-4.161,3.309-6.59,1.323c-0.763-0.625-1.041-3.22-0.415-3.961
			c7.084-8.385,5.391-15.608-4.767-19.435C135.882,472.598,134.187,471.998,132.001,471.202z"/>
		<path fill-rule="evenodd" clip-rule="evenodd" fill="none" d="M346.322,304.534c2.356,1.181,4.626,2.875,7.152,3.461
			c4.685,1.087,7.285-1.923,8.248-5.984c0.972-4.093-0.588-7.169-5.17-8.029c-0.632-0.119-1.438-0.396-1.756-0.871
			c-0.599-0.893-0.899-1.984-1.325-2.994c0.998-0.036,2.406-0.52,2.929-0.038c5.164,4.745,11.541,6.081,18.16,7.223
			c6.944,1.198,12.296,14.072,8.594,19.98c-2.284,3.645-8.838,4.367-13.808,1.171c-2.825-1.817-4.634-3.522-6.609,1.207
			c-1.323,3.168-9.974,2.799-12.281,0.04C345.648,313.951,344.637,310.144,346.322,304.534z"/>
		<path fill-rule="evenodd" clip-rule="evenodd" fill="none" d="M404.486,257.248c-9.112,4.387-17.9,8.598-26.648,12.893
			c-0.369,0.182-0.36,1.134-1.026,3.488c-3.54-5.684-6.517-10.134-9.149-14.778c-3.177-5.606,4.736-17.228,13.604-16.707
			C388.901,242.592,400.331,249.653,404.486,257.248z"/>
		<path fill-rule="evenodd" clip-rule="evenodd" fill="none" d="M458.28,249.039c7.374-2.606,10.991,2.531,15.146,6.373
			c2.95,2.727,2.822,7.087-0.195,11.202c-2.188,2.983-4.653,5.153-8.802,2.849c-2.444-1.356-5.203-2.197-7.889-3.056
			c-8.841-2.827-10.979-11.587-4.682-18.487c2.428-2.659,3.939-6.16,6.4-8.777c1.274-1.355,3.713-1.616,5.626-2.372
			c-0.429,1.671-0.525,3.535-1.364,4.964c-1.205,2.054-2.95,3.79-4.465,5.662C458.131,247.944,458.206,248.492,458.28,249.039z"/>
		<path fill-rule="evenodd" clip-rule="evenodd" fill="none" d="M368.951,103.173c2.997,0.481,6.301,0.746,9.453,1.583
			c4.02,1.069,4.689,4.106,1.526,6.886c-6.675,5.868-15.05,7.4-23.454,8.059c-4.319,0.339-8.831-0.596-13.112-1.58
			c-1.559-0.357-3.836-2.589-3.765-3.848c0.104-1.805,1.678-4.289,3.308-5.087c3.802-1.865,7.932-3.252,12.075-4.172
			C359.456,104.019,364.096,103.778,368.951,103.173z"/>
		<path fill-rule="evenodd" clip-rule="evenodd" fill="none" d="M405.132,149.031c1.545,11.37,3.017,22.191,4.512,33.19
			c-11.672-0.299-14.645-2.657-17.892-13.501c-0.425-1.42-0.682-2.915-0.819-4.392C389.701,151.132,392.256,148.54,405.132,149.031z
			"/>
		<path fill-rule="evenodd" clip-rule="evenodd" fill="none" d="M448.077,168.21c3.129-1.146,4.791-1.756,6.453-2.371
			c2.582,5.874-1.319,15.319-8.489,19.922c-1.974-4.884-3.959-9.693-5.86-14.535c-1.642-4.176-2.978-8.486-4.832-12.562
			c-2.147-4.723,0.636-7.071,4.151-8.425c3.559-1.371,7.661-1.098,9.379,2.978c1.067,2.535,0.797,5.719,0.754,8.605
			C449.608,163.508,448.851,165.183,448.077,168.21z"/>
		<path fill-rule="evenodd" clip-rule="evenodd" fill="none" d="M393.273,140.837c6.551-10.224,12.458-19.442,18.365-28.661
			c0.491,0.123,0.982,0.245,1.474,0.368c2.03,5.404,4.22,10.756,5.952,16.254c0.343,1.087-0.735,3.074-1.736,4.057
			C411.983,138.106,403.94,140.921,393.273,140.837z"/>
		<path fill-rule="evenodd" clip-rule="evenodd" fill="none" d="M340.095,194.836c-4.356-6.555-10.568-7.11-17.356-6.332
			c-1.424,0.163-3.635-0.536-4.312-1.59c-0.635-0.988-0.144-3.221,0.588-4.477c4.411-7.564,12.002-9.497,19.897-10.527
			c0.88-0.114,2.832,1.531,2.865,2.413c0.246,6.594,0.134,13.202,0.134,19.804C341.306,194.363,340.7,194.6,340.095,194.836z"/>
		<path fill-rule="evenodd" clip-rule="evenodd" fill="none" d="M392.209,365.593c-3.986-9.784,0.922-26.512,9.521-29.709
			c2.625,9.367,5.223,18.632,8.184,29.19C402.08,359.558,402.08,359.558,392.209,365.593z"/>
		<path fill-rule="evenodd" clip-rule="evenodd" fill="none" d="M273.773,415.004c-2.967-1.158-5.425-1.731-7.464-2.989
			c-5.786-3.567-5.868-5.384-0.629-9.765c3.137-2.622,6.172-5.57,9.747-7.415c6.099-3.148,6.563-2.568,8.078,3.993
			c1.111,4.811,0.092,8.991-3.31,12.32C278.449,412.859,275.911,413.762,273.773,415.004z"/>
		<path fill-rule="evenodd" clip-rule="evenodd" fill="none" d="M179.531,425.695c-5.456-0.934-10.711-1.51-15.754-2.876
			c-1.729-0.469-3.986-2.811-4.151-4.479c-0.424-4.287,0.181-8.58,4.688-11.159c2.79-1.596,4.192,0.055,5.951,1.668
			c2.433,2.23,4.919,4.438,7.599,6.354C183.206,419.025,183.454,420.479,179.531,425.695z"/>
		<path fill-rule="evenodd" clip-rule="evenodd" fill="none" d="M289.326,274.835c0-10.486-0.032-20.336,0.05-30.184
			c0.008-0.97,0.711-1.936,1.092-2.904c0.99,0.602,2.567,0.986,2.88,1.837c2.915,7.931,5.716,15.908,8.321,23.945
			c0.996,3.073-0.278,5.113-3.726,5.624C295.019,273.586,292.133,274.277,289.326,274.835z"/>
		<path fill-rule="evenodd" clip-rule="evenodd" fill="none" d="M413.365,284.406c-4.126,9.839-8.254,19.678-12.38,29.518
			c-0.597,0.057-1.194,0.113-1.791,0.17c-1.159-3.396-2.779-6.712-3.39-10.205c-1.726-9.882-1.502-9.788,7.44-14.272
			c3.188-1.599,6-3.947,8.982-5.952C412.606,283.911,412.985,284.159,413.365,284.406z"/>
		<path fill-rule="evenodd" clip-rule="evenodd" fill="none" d="M297.877,415.459c0.422-1.197,0.703-3.743,2.066-5.398
			c1.553-1.89,4.07-2.987,6.17-4.429c0.946,2.01,2.123,3.946,2.789,6.044c1.354,4.263,2.601,8.576,3.529,12.946
			c0.301,1.417-0.036,3.682-0.981,4.45c-0.922,0.749-3.12,0.449-4.54-0.033C301.032,427.042,298.313,422.615,297.877,415.459z"/>
		<path fill-rule="evenodd" clip-rule="evenodd" fill="none" d="M411.146,175.225c5.787,4.14,10.469,7.442,15.096,10.82
			c3.514,2.563,7.174,2.714,11.194,1.318c0.948-0.328,2.312,0.543,3.484,0.863c-0.569,0.992-0.9,2.512-1.746,2.895
			c-7.718,3.49-15.692,3.75-23.676,1.046c-1.188-0.402-2.62-1.898-2.818-3.077C411.933,184.658,411.649,180.146,411.146,175.225z"/>
		<path fill-rule="evenodd" clip-rule="evenodd" fill="none" d="M488.994,348.46c0,8.363,0.103,16.729-0.132,25.084
			c-0.029,1.03-1.713,2.442-2.909,2.841c-0.65,0.217-2.199-1.134-2.806-2.111c-2.448-3.945-4.791-7.967-6.924-12.088
			c-0.5-0.967-0.545-2.945,0.087-3.594c3.598-3.69,7.464-7.119,11.239-10.638C488.031,348.123,488.513,348.292,488.994,348.46z"/>
		<path fill-rule="evenodd" clip-rule="evenodd" fill="none" d="M307.194,342.751c1.103,1.069,3.019,2.146,3.548,3.696
			c0.396,1.157-0.575,3.459-1.67,4.329c-3.738,2.97-7.804,5.527-11.739,8.247c-3.61,2.494-6.535,0.187-8.91-1.873
			c-2.826-2.45,0.333-4.182,1.528-6.199C293.715,344.599,300.6,345.092,307.194,342.751z"/>
		<path fill-rule="evenodd" clip-rule="evenodd" fill="none" d="M478.02,290.827c-0.984,1.618-1.954,2.777-2.451,4.113
			c-1.408,3.779-3.017,7.552-3.798,11.476c-0.735,3.688-6.926,10.79-10.066,9.562c-2.415-0.945-4.105-4.302-5.508-6.913
			c-0.396-0.736,1.009-3.211,2.171-3.888c6.581-3.837,12.328-8.287,14.892-15.891c0.283-0.84,1.653-1.313,2.52-1.957
			C476.503,288.459,477.227,289.589,478.02,290.827z"/>
		<path fill-rule="evenodd" clip-rule="evenodd" fill="none" d="M373.428,161.466c0,4.679,0,8.729,0,12.477
			c-7.443-2.525-14.504-4.962-21.601-7.294c-1.396-0.459-3.018-0.282-4.362-0.826c-1.025-0.415-1.779-1.506-2.654-2.297
			c0.819-0.687,1.629-1.957,2.459-1.97C356.002,161.411,364.737,161.466,373.428,161.466z"/>
		<path fill-rule="evenodd" clip-rule="evenodd" fill="none" d="M449.325,66.25c-2.883-0.586-5.912-0.815-8.586-1.912
			c-1.283-0.526-2.941-3.038-2.607-4.047c0.877-2.647,2.564-6.877,4.27-7.048c4.894-0.489,10.024,0.388,14.92,1.408
			c2.344,0.488,3.219,2.804,1.279,5.096C456.088,62.716,454.313,66.761,449.325,66.25z"/>
		<path fill-rule="evenodd" clip-rule="evenodd" fill="none" d="M408.762,39.395c7.229,8.179,7.313,8.756,2.593,17.649
			c-2.161,4.075-4.361,8.13-6.734,12.548C400.916,61.757,403.323,45.01,408.762,39.395z"/>
		<path fill-rule="evenodd" clip-rule="evenodd" fill="none" d="M433.547,346.75c-3.037-4.113-5.589-7.46-8.02-10.894
			c-1.613-2.28-3.444-4.53-4.445-7.082c-0.757-1.927-0.353-4.309-0.493-7.025C437.375,328.991,440.007,333.882,433.547,346.75z"/>
		<path fill-rule="evenodd" clip-rule="evenodd" fill="none" d="M231.864,326.462c-9.602-7.474-22.277-9.301-27.977-20.952
			C213.939,303.994,231.172,316.46,231.864,326.462z"/>
		<path fill-rule="evenodd" clip-rule="evenodd" fill="none" d="M199.048,286.236c13.895,1.886,27.856,12.913,27.815,21.972
			C200.104,291.772,200.104,291.772,199.048,286.236z"/>
		<path fill-rule="evenodd" clip-rule="evenodd" fill="none" d="M396.236,474.286c-5.75-3.149-10.959-6.004-16.17-8.858
			c0.181-0.466,0.361-0.93,0.542-1.396c5.534-0.479,9.792-2.856,12.78-7.548c0.477-0.748,3.001-1.148,3.694-0.597
			c1.315,1.046,2.988,3.076,2.755,4.384C398.942,465.282,397.349,470.17,396.236,474.286z"/>
		<path fill-rule="evenodd" clip-rule="evenodd" fill="none" d="M221.524,290.313c-7.7-9.176-22.355-9.474-28.253-21.968
			C206.156,269,220.927,280.389,221.524,290.313z"/>
		<path fill-rule="evenodd" clip-rule="evenodd" fill="none" d="M419.742,55.132c0.392,2.264,1.569,4.736,1.037,6.757
			c-2.169,8.234-6.174,15.601-12.021,22.389c-2.933-3.358-3.516-6.419-1.427-10.118c3.567-6.318,6.91-12.764,10.348-19.157
			C418.366,55.046,419.055,55.089,419.742,55.132z"/>
		<path fill-rule="evenodd" clip-rule="evenodd" fill="none" d="M415.077,446.871c8.037,1.499,14.57,2.717,21.34,3.98
			c-0.513,0.377-1.452,0.967-2.271,1.692c-3.3,2.927-6.529,5.934-9.857,8.827c-1.206,1.048-3.521,2.864-3.793,2.619
			c-2.261-2.032-7.209-1.755-6.502-7.207c1.783,0.831,3.172,1.479,5.943,2.772C418.053,454.639,416.609,450.869,415.077,446.871z"/>
		<path fill-rule="evenodd" clip-rule="evenodd" fill="none" d="M407.012,492.554c-3.077-7.472-0.696-18.711,4.511-27.459
			c2.152,2.717,4.191,5.181,6.075,7.756c0.4,0.548,0.601,1.725,0.285,2.243C414.328,480.955,410.653,486.745,407.012,492.554z"/>
		<path fill-rule="evenodd" clip-rule="evenodd" fill="none" d="M427.876,179.305c-7.673-1.621-9.819-6.385-5.155-13.391
			c1.709-2.566,4.093-4.683,6.313-7.167C435.401,166,434.918,172.651,427.876,179.305z"/>
		<path fill-rule="evenodd" clip-rule="evenodd" fill="none" d="M245.453,458.096c-5.896-0.877-10.935-1.625-16.637-2.473
			c2.418-5.204,4.805-10.34,7.427-15.98C242.474,444.442,244.989,450.264,245.453,458.096z"/>
		<path fill-rule="evenodd" clip-rule="evenodd" fill="none" d="M283.361,329.778c-0.005-7.161,4.313-13.057,9.194-13.358
			c3.292-0.203,4.444,1.177,3.273,4.093c-1.658,4.131-3.476,8.22-5.573,12.141c-0.76,1.421-2.519,2.308-3.822,3.438
			c-0.94-1.45-1.974-2.85-2.776-4.371C283.298,331.037,283.403,330.109,283.361,329.778z"/>
		<path fill-rule="evenodd" clip-rule="evenodd" fill="none" d="M359.87,464.416c0,2.16,0.463,4.47-0.162,6.432
			c-0.419,1.313-2.276,2.689-3.697,2.966c-0.887,0.172-2.85-1.478-3.137-2.61c-0.936-3.689-1.227-7.535-1.942-11.288
			c-0.863-4.525,2.466-4.251,5.175-4.688c3.369-0.545,3.941,1.5,3.836,4.2c-0.065,1.661-0.013,3.326-0.013,4.989
			C359.91,464.416,359.89,464.416,359.87,464.416z"/>
		<path fill-rule="evenodd" clip-rule="evenodd" fill="none" d="M461.928,177.191c6.258-6.439,12.481-12.912,18.841-19.249
			c0.508-0.506,1.955-0.07,2.966-0.072c-0.036,1.361,0.501,3.325-0.198,3.989C477.173,167.909,473.243,177.14,461.928,177.191z"/>
		<path fill-rule="evenodd" clip-rule="evenodd" fill="none" d="M457.325,210.793c1.704-2.592,3.249-5.309,5.148-7.749
			c3.058-3.929,6.351-7.677,9.544-11.5c0.451,0.29,0.902,0.58,1.354,0.87c-0.053,0.665,0.154,1.55-0.195,1.963
			c-5.619,6.616-8.588,14.461-10.806,22.693c-0.268,0.994-1.104,1.835-1.678,2.746c-0.944-0.756-2.287-1.323-2.752-2.307
			c-1.089-2.301-1.757-4.802-2.595-7.222C456.006,210.456,456.666,210.625,457.325,210.793z"/>
		<path fill-rule="evenodd" clip-rule="evenodd" fill="none" d="M271.834,339.041c1.054-2.886,2.107-5.771,3.16-8.656
			c2.027,1.973,4.01,3.994,6.09,5.909c3.014,2.774,2.801,5.227-0.497,7.582c-0.651,0.466-1.018,1.317-1.646,1.834
			c-1.504,1.238-3.085,2.383-4.635,3.565c-0.511-1.98-1.137-3.942-1.488-5.952c-0.225-1.281-0.042-2.634-0.042-3.954
			C272.462,339.26,272.148,339.15,271.834,339.041z"/>
		<path fill-rule="evenodd" clip-rule="evenodd" fill="none" d="M427.799,36.373c2.24-4.154,3.533-8.105,6.153-10.731
			c1.233-1.235,5.129-0.283,7.579,0.461c0.699,0.212,1.205,3.391,0.704,4.828C440.019,37.284,439.874,37.233,427.799,36.373z"/>
		<path fill-rule="evenodd" clip-rule="evenodd" fill="none" d="M430.832,485.694c8.444-3.946,11.411-3.216,14.401,2.566
			c2.168,4.196-0.891,5.609-3.332,7.485c-2.752,2.117-4.101,0.218-5.474-1.888C434.643,491.118,432.736,488.459,430.832,485.694z"/>
		<path fill-rule="evenodd" clip-rule="evenodd" fill="none" d="M480.483,330.675c-3.376,3.356-6.665,6.811-10.18,10.014
			c-1.096,0.998-3.916,2.056-4.062,1.836c-1.218-1.835-2.415-3.897-2.74-6.025c-0.186-1.213,1-3.559,2.034-3.877
			c4.676-1.439,9.518-2.339,14.3-3.433C480.052,329.685,480.268,330.18,480.483,330.675z"/>
		<path fill-rule="evenodd" clip-rule="evenodd" fill="none" d="M385.311,459.971c-1.511-1.313-3.072-2.572-4.52-3.95
			c-1.548-1.475-2.825-3.274-4.506-4.563c-5.307-4.068-5.582-4.891-2.858-12.079c6.548,5.146,11.132,11.433,13.188,19.405
			C386.181,459.18,385.746,459.575,385.311,459.971z"/>
		<path fill-rule="evenodd" clip-rule="evenodd" fill="none" d="M338.623,347.994c-0.32,7.629-14.031,16.987-25.824,17.132
			C321.251,359.519,329.703,353.912,338.623,347.994z"/>
		<path fill-rule="evenodd" clip-rule="evenodd" fill="none" d="M418.485,426.181c2.671-2.352,4.872-2.006,6.886,0.985
			c3.203,4.762,6.525,9.443,10.01,14.466C428.901,441.965,420.996,434.424,418.485,426.181z"/>
		<path fill-rule="evenodd" clip-rule="evenodd" fill="none" d="M473.042,71.513c0.688-2.037,1.077-3.285,1.529-4.51
			c1.199-3.25,3.321-4.248,5.971-1.758c2.742,2.577,5.214,5.468,7.573,8.406c0.619,0.771,0.385,2.228,0.674,4.322
			C482.991,75.594,478.215,73.634,473.042,71.513z"/>
		<path fill-rule="evenodd" clip-rule="evenodd" fill="none" d="M479.294,186.73c2.07-6.337,7.141-9.941,11.71-13.773
			c0.315-0.265,3.831,2.98,5.483,4.913c0.274,0.321-1.106,2.937-2.187,3.39C489.634,183.22,484.795,184.772,479.294,186.73z"/>
		<path fill-rule="evenodd" clip-rule="evenodd" fill="none" d="M438.761,358.149c1.112-8.243,2.071-15.349,3.181-23.575
			C448.408,343.997,447.811,353.849,438.761,358.149z"/>
		<path fill-rule="evenodd" clip-rule="evenodd" fill="none" d="M448.128,374.54c3.381-3.388,6.288-6.267,9.158-9.183
			c3.146-3.193,5.356-2.338,7.02,1.495c0.7,1.616,1.567,3.161,2.435,4.888C460.52,372.676,454.753,373.543,448.128,374.54z"/>
		<path fill-rule="evenodd" clip-rule="evenodd" fill="none" d="M463.204,125.292c2.337,3.628,4.712,7.108,6.812,10.748
			c0.427,0.739-0.022,2.938-0.34,2.997c-1.834,0.339-4.04,0.877-5.585,0.174C458.171,136.519,457.617,130.347,463.204,125.292z"/>
		<path fill-rule="evenodd" clip-rule="evenodd" fill="none" d="M349.642,267.602c0.761,6.279,2.011,11.501,1.76,16.649
			c-0.128,2.611-2.961,5.092-5.744,7.274c0-6.854-0.156-13.714,0.161-20.552C345.868,269.902,348.066,268.932,349.642,267.602z"/>
		<path fill-rule="evenodd" clip-rule="evenodd" fill="none" d="M371.405,488.277c-1.128-5.274-0.599-9.376,4.122-12.089
			c3.319-1.908,5.449-0.315,6.978,2.375c1.729,3.044-0.638,3.935-2.886,5.018C376.965,484.86,374.481,486.497,371.405,488.277z"/>
		<path fill-rule="evenodd" clip-rule="evenodd" fill="none" d="M320.868,342.359c0.805-4.822,1.344-8.91,2.265-12.909
			c0.207-0.898,2.464-2.215,2.569-2.111c1.829,1.801,3.972,3.58,4.934,5.837c0.465,1.092-0.987,3.596-2.243,4.689
			C326.449,339.559,323.932,340.591,320.868,342.359z"/>
		<path fill-rule="evenodd" clip-rule="evenodd" fill="none" d="M453.763,458.727c-1.582-2.962-3.26-4.947-3.616-7.146
			c-0.273-1.689,0.688-4.786,1.865-5.231c1.958-0.74,4.707-0.269,6.733,0.601c0.593,0.255,0.323,3.781-0.379,5.461
			C457.533,454.401,455.805,456.019,453.763,458.727z"/>
		<path fill-rule="evenodd" clip-rule="evenodd" fill="none" d="M273.821,376.73c-1.669-5.684,0.424-9.207,4.119-10.965
			c3.39-1.612,5.633,1.34,7.933,4.772C281.753,372.654,277.965,374.601,273.821,376.73z"/>
		<path fill-rule="evenodd" clip-rule="evenodd" fill="none" d="M454.703,91.947c-2.804-1.899-5.336-3.211-7.273-5.124
			c-0.804-0.793-0.337-2.873-0.447-4.367c3.37,0.048,6.753-0.027,10.094,0.307c0.394,0.039,1.069,2.492,0.725,3.531
			C457.166,88.208,455.871,89.903,454.703,91.947z"/>
		<path fill-rule="evenodd" clip-rule="evenodd" fill="none" d="M350.798,428.22c2.241,3.282,4.483,6.563,7.219,10.57
			c-2.908,0.975-4.825,1.934-6.831,2.185c-1.465,0.182-4.312-0.45-4.355-0.923c-0.184-1.982,0.174-4.144,0.868-6.044
			c0.764-2.084,2.115-3.954,3.211-5.917L350.798,428.22z"/>
		<path fill-rule="evenodd" clip-rule="evenodd" fill="none" d="M476.909,412.823c3.918-2.225,6.568-3.728,10.206-5.793
			c1.19,4.292,2.222,8.008,3.254,11.723c-0.479,0.363-0.96,0.727-1.439,1.09C485.276,417.709,481.621,415.576,476.909,412.823z"/>
		<path fill-rule="evenodd" clip-rule="evenodd" fill="none" d="M395.61,311.868c0.678,1.554,1.497,3.433,2.316,5.311
			c-0.992-0.816-1.984-1.633-2.976-2.45c-3.633,3.927-7.266,7.854-10.897,11.781c-1.527-0.136-2.154-2.03,1.556-4.906
			C389.154,318.854,392.105,315.338,395.61,311.868z"/>
		<path fill-rule="evenodd" clip-rule="evenodd" fill="none" d="M472.793,427.381c-1.973-3.491-7.973-5.648-2.861-10.682
			c3.054-3.009,5.31-0.404,6.543,1.315C479.626,422.409,474.879,424.419,472.793,427.381z"/>
		<path fill-rule="evenodd" clip-rule="evenodd" fill="none" d="M250.074,233.325c5.347,5.832,5.176,14.377,0,19.858
			C250.074,246.507,250.074,240.503,250.074,233.325z"/>
		<path fill-rule="evenodd" clip-rule="evenodd" fill="none" d="M467.252,381.229c-11.422,5.717-13.93,5.474-16.856-1.625
			C456.286,376.715,461.488,379.167,467.252,381.229z"/>
		<path fill-rule="evenodd" clip-rule="evenodd" fill="none" d="M337.022,461.67c0,9.264,0,18.083,0,26.9
			c-0.314,0.05-0.629,0.1-0.942,0.149c-0.367-2.375-0.686-4.759-1.11-7.124c-0.779-4.342-1.188-8.817-2.562-12.969
			C331.057,464.539,332.291,462.736,337.022,461.67z"/>
		<path fill-rule="evenodd" clip-rule="evenodd" fill="none" d="M257.169,489.829c-0.761,1.14-1.12,2.271-1.84,2.588
			c-0.707,0.312-2.248,0.119-2.61-0.41c-2.058-2.998-3.995-6.099-5.658-9.328c-0.318-0.617,0.555-2.199,1.294-2.887
			c0.505-0.47,2.292-0.534,2.554-0.143C253.107,482.938,255.085,486.373,257.169,489.829z"/>
		<path fill-rule="evenodd" clip-rule="evenodd" fill="none" d="M226.602,483.185c-3.243,0.127-6.485,0.253-9.729,0.38
			c0.02-1.197-0.417-2.713,0.15-3.528c1.398-2.01,3.259-3.699,4.933-5.518c1.855,2.061,3.71,4.121,5.565,6.181
			C227.215,481.528,226.908,482.356,226.602,483.185z"/>
		<path fill-rule="evenodd" clip-rule="evenodd" fill="none" d="M486.021,56.337c2.365,0.917,5.295,1.253,6.972,2.88
			c2.78,2.699,2.975,6.363,0.575,11.282c-3.288-4.542-6.027-8.329-8.769-12.116C485.207,57.702,485.614,57.019,486.021,56.337z"/>
		<path fill-rule="evenodd" clip-rule="evenodd" fill="none" d="M299.349,303.866c-7.099,7.036-16.903,4.612-25.195,7.587
			C281.244,304.589,291.381,307.897,299.349,303.866z"/>
		<path fill-rule="evenodd" clip-rule="evenodd" fill="none" d="M412.846,299.793c8.053,6.698,8.112,6.912,3.987,13.855
			c-0.919-1.601-1.453-3.138-2.489-4.17c-1.098-1.096-2.674-1.711-4.531-2.833C410.735,304.559,411.689,302.404,412.846,299.793z"/>
		<path fill-rule="evenodd" clip-rule="evenodd" fill="none" d="M417.183,22.335c4.092,0,7.281,0,11.953,0
			c-1.905,4.183-3.408,7.483-5.317,11.679C421.364,29.694,419.522,26.454,417.183,22.335z"/>
		<path fill-rule="evenodd" clip-rule="evenodd" fill="none" d="M415.229,424.221c-2.056-3.983-4.11-7.966-6.581-12.756
			c6.527-0.677,7.913,3.545,9.686,6.484c0.795,1.319-0.458,3.873-0.78,5.867C416.778,423.951,416.004,424.086,415.229,424.221z"/>
		<path fill-rule="evenodd" clip-rule="evenodd" fill="none" d="M245.165,246.758c-1.711,3.299,2.96,8.422-3.34,10.304
			c-2.777,0.829-3.912-1.006-4.162-3.467C237.161,248.662,239.217,246.069,245.165,246.758z"/>
		<path fill-rule="evenodd" clip-rule="evenodd" fill="none" d="M476.463,86.855c-3.372,1.914-6.743,3.828-10.343,5.87
			c-3.454-2.824-0.975-5.422,0.706-7.445c3.261-3.927,6.353-0.698,9.456,0.204C476.342,85.941,476.402,86.398,476.463,86.855z"/>
		<path fill-rule="evenodd" clip-rule="evenodd" fill="none" d="M302.699,448.984c-7.661,5.171-10.587,3.803-13.245-5.79
			C294.498,445.399,298.599,447.192,302.699,448.984z"/>
		<path fill-rule="evenodd" clip-rule="evenodd" fill="none" d="M350.909,428.091c-1.88,0-3.758,0-6.343,0c0-4.438,0-8.839,0-13.237
			c0.582-0.161,1.163-0.321,1.745-0.481c1.496,4.612,2.994,9.226,4.488,13.843C350.798,428.22,350.909,428.091,350.909,428.091z"/>
		<path fill-rule="evenodd" clip-rule="evenodd" fill="none" d="M493.072,354.629c8.075,10.149,7.336,11.48,0,15.376
			C493.072,364.874,493.072,359.993,493.072,354.629z"/>
		<path fill-rule="evenodd" clip-rule="evenodd" fill="none" d="M321.575,323.665c-2.705-0.377-5.419-0.756-9.912-1.382
			c2.345-3.07,3.695-6.041,5.997-7.416C319.124,313.993,322.219,320.395,321.575,323.665z"/>
		<path fill-rule="evenodd" clip-rule="evenodd" fill="none" d="M338.139,319.477c-1.914-2.603-3.999-5.104-5.647-7.864
			c-0.558-0.934-0.012-2.526,0.03-3.816c1.507,0.272,3.984,0.1,4.351,0.895c1.469,3.2,2.284,6.699,3.34,10.087
			C339.521,319.011,338.83,319.244,338.139,319.477z"/>
		<path fill-rule="evenodd" clip-rule="evenodd" fill="none" d="M441.363,441.419c-3.049-4.882-6.099-9.763-9.147-14.646
			c5.409,3.318,11.835,5.903,10.646,13.774C442.362,440.839,441.862,441.129,441.363,441.419z"/>
		<path fill-rule="evenodd" clip-rule="evenodd" fill="none" d="M295.354,476.955c0.669-5.277,0.729-8.794,1.699-12.036
			c0.442-1.476,2.688-2.412,4.588-3.986c-0.61,5.167-0.798,8.953-1.643,12.585C299.741,474.626,297.671,475.313,295.354,476.955z"/>
		<path fill-rule="evenodd" clip-rule="evenodd" fill="none" d="M474.606,144.88c6.044,6.195,5.597,8.902-2.367,13.501
			C473.105,153.439,473.78,149.595,474.606,144.88z"/>
		<path fill-rule="evenodd" clip-rule="evenodd" fill="none" d="M313.841,480.879c2.28-2.154,4.56-4.31,6.84-6.466
			c0.421,0.103,0.841,0.206,1.262,0.309c-0.349,2.972-0.697,5.943-1.046,8.915c-2.271-0.311-4.543-0.621-6.813-0.932
			C314.002,482.097,313.922,481.488,313.841,480.879z"/>
		<path fill-rule="evenodd" clip-rule="evenodd" fill="none" d="M371.33,472.282c0-3.125,0-6.251,0-9.376
			c0.478-0.234,0.956-0.469,1.434-0.702c1.351,2.096,3.475,4.092,3.76,6.323c0.171,1.338-2.531,3.044-3.941,4.583
			C372.164,472.834,371.747,472.558,371.33,472.282z"/>
		<path fill-rule="evenodd" clip-rule="evenodd" fill="none" d="M407.07,262.53c-8.196,3.661-16.393,7.321-24.59,10.982
			c-0.194-0.428-0.389-0.855-0.583-1.282c8.206-3.687,16.411-7.374,24.617-11.061C406.7,261.623,406.886,262.076,407.07,262.53z"/>
		<path fill-rule="evenodd" clip-rule="evenodd" fill="none" d="M275.341,297.011c3.775-0.345,7.552-0.69,12.026-1.101
			c-2.908,4.16-6.768,4.82-11.842,2.797C275.464,298.142,275.402,297.576,275.341,297.011z"/>
		<path fill-rule="evenodd" clip-rule="evenodd" fill="none" d="M386.956,276.729c6.895-3.075,13.788-6.151,20.682-9.227
			c0.222,0.48,0.442,0.96,0.664,1.44c-6.867,3.06-13.734,6.12-20.601,9.18C387.452,277.658,387.204,277.193,386.956,276.729z"/>
		<path fill-rule="evenodd" clip-rule="evenodd" fill="none" d="M330.541,410.882c1.536-4.526,3.073-9.054,4.61-13.582
			c2.492,5.528-0.482,9.708-2.675,14.077C331.832,411.212,331.187,411.047,330.541,410.882z"/>
		<path fill-rule="evenodd" clip-rule="evenodd" fill="none" d="M325.602,287.363c4.019-0.972,8.036-1.943,12.111-2.928
			C336.057,288.308,330.276,290.354,325.602,287.363z"/>
		<path fill-rule="evenodd" clip-rule="evenodd" fill="none" d="M470.816,493.821c2.354-3.581,4.71-7.161,7.066-10.742
			c0.696,0.435,1.392,0.87,2.088,1.305c-2.255,3.706-4.509,7.411-6.763,11.117C472.41,494.941,471.613,494.381,470.816,493.821z"/>
		<path fill-rule="evenodd" clip-rule="evenodd" fill="none" d="M362.249,390.852c0-4.168,0-6.939,0-9.711
			c0.478-0.201,0.954-0.401,1.43-0.602c1.143,2.255,2.584,4.432,3.212,6.821C367.041,387.934,364.487,389.217,362.249,390.852z"/>
		<path fill-rule="evenodd" clip-rule="evenodd" fill="none" d="M391.525,404.281c2.801-0.519,5.09-1.618,5.856-0.956
			c2.089,1.807,3.533,4.357,5.232,6.612c-0.427,0.34-0.853,0.68-1.279,1.02C398.543,409.059,395.752,407.158,391.525,404.281z"/>
		<path fill-rule="evenodd" clip-rule="evenodd" fill="none" d="M296.803,285.378c-3.879,0.363-7.759,0.727-11.638,1.089
			c-0.101-0.879-0.2-1.758-0.299-2.637c3.867-0.396,7.735-0.79,11.604-1.186C296.58,283.557,296.691,284.468,296.803,285.378z"/>
		<path fill-rule="evenodd" clip-rule="evenodd" fill="none" d="M307.684,154.162c9.219,0,18.439,0,27.659,0
			c0,0.157,0,0.314,0,0.472c-9.185,0-18.369,0-27.554,0C307.754,154.477,307.719,154.319,307.684,154.162z"/>
		<path fill-rule="evenodd" clip-rule="evenodd" fill="none" d="M448.385,34.733c1.995-1.951,3.226-4.103,4.385-4.065
			c1.784,0.059,3.52,1.619,5.274,2.542c-0.207,0.507-0.413,1.015-0.62,1.523C454.951,34.733,452.477,34.733,448.385,34.733z"/>
		<path fill-rule="evenodd" clip-rule="evenodd" fill="none" d="M290.246,293.807c3.281-0.231,6.563-0.462,9.845-0.693
			c0.061,0.891,0.121,1.78,0.181,2.67c-3.259,0.199-6.518,0.398-9.776,0.597C290.412,295.522,290.329,294.664,290.246,293.807z"/>
		<path fill-rule="evenodd" clip-rule="evenodd" fill="none" d="M393.374,280.839c5.487-2.45,10.975-4.898,16.462-7.349
			c0.189,0.422,0.379,0.843,0.568,1.265c-5.447,2.446-10.895,4.893-16.342,7.34C393.833,281.677,393.604,281.258,393.374,280.839z"
			/>
		<path fill-rule="evenodd" clip-rule="evenodd" fill="none" d="M480.193,432.339c1.723-2.602,3.445-5.203,5.169-7.804
			c0.622,0.409,1.244,0.817,1.866,1.226c-1.7,2.617-3.4,5.233-5.101,7.85C481.482,433.188,480.838,432.763,480.193,432.339z"/>
		<path fill-rule="evenodd" clip-rule="evenodd" fill="none" d="M402.287,404.898c-0.312-2.104-0.623-4.208-0.936-6.313
			c1.01,0.153,2.703,0.021,2.906,0.51c0.688,1.654,0.85,3.527,1.212,5.318C404.409,404.575,403.348,404.736,402.287,404.898z"/>
		<path fill-rule="evenodd" clip-rule="evenodd" fill="none" d="M363.845,338.535c-1.293-1.908-2.663-3.086-2.453-3.803
			c0.379-1.301,1.698-2.328,2.625-3.468c0.736,0.7,2.163,1.509,2.074,2.081C365.865,334.788,364.956,336.124,363.845,338.535z"/>
		<path fill-rule="evenodd" clip-rule="evenodd" fill="none" d="M279.763,321.854c-2.018,0.843-4.034,1.686-6.052,2.527
			c-0.132-0.91-0.611-2.481-0.342-2.623c1.761-0.923,3.684-1.535,5.552-2.249C279.202,320.291,279.482,321.073,279.763,321.854z"/>
		<path fill-rule="evenodd" clip-rule="evenodd" fill="none" d="M98.122,496.05c-1.398-2.378-3.1-4.643-4.055-7.188
			c-0.418-1.114,0.689-2.802,1.104-4.229c1.264,0.731,3.402,1.26,3.628,2.233c0.674,2.897,0.598,5.97,0.813,8.974
			C99.116,495.91,98.619,495.979,98.122,496.05z"/>
		<path fill-rule="evenodd" clip-rule="evenodd" d="M266.225,233.259c1.443,1.673,2.928,2.635,2.977,3.666
			c0.049,1.01-1.364,2.089-2.136,3.137c-1.075-0.892-2.688-1.613-3.048-2.735C263.754,236.502,265.13,235.152,266.225,233.259z"/>
		<path fill-rule="evenodd" clip-rule="evenodd" d="M266.273,244.66c1.478,1.81,3.102,2.988,2.932,3.78
			c-0.267,1.237-1.748,2.213-2.715,3.299c-0.883-0.954-2.35-1.835-2.482-2.884C263.88,247.838,265.125,246.65,266.273,244.66z"/>
	</g>
</g>
</svg>
