<?xml version="1.0" encoding="utf-8"?>
<!-- Generator: Adobe Illustrator 16.0.0, SVG Export Plug-In . SVG Version: 6.00 Build 0)  -->
<!DOCTYPE svg PUBLIC "-//W3C//DTD SVG 1.1//EN" "http://www.w3.org/Graphics/SVG/1.1/DTD/svg11.dtd">
<svg version="1.1" id="Layer_1" xmlns="http://www.w3.org/2000/svg" xmlns:xlink="http://www.w3.org/1999/xlink" x="0px" y="0px"
	 width="500px" height="200px" viewBox="0 0 500 200" enable-background="new 0 0 500 200" xml:space="preserve">
<g>
	<g>
		<path fill-rule="evenodd" clip-rule="evenodd" fill="none" d="M506.82,219.724c-179.637,0-359.274,0-538.911,0
			c0-74.938,0-149.876,0-224.815c179.637,0,359.274,0,538.911,0C506.82,69.847,506.82,144.785,506.82,219.724z M67.924,115.358
			l0.049,0.048c-0.802-3.454-1.583-6.915-2.415-10.362c-0.649-2.692-1.364-5.368-2.042-8.02c3.582-1.517,6.177-0.693,8.552,1.182
			c1.12,0.884,2.137,1.899,3.206,2.848c1.231,1.092,2.458,2.206,4.243,1.022c1.708-1.131,2.52-3.243,1.385-5.154
			c-1.156-1.945-2.616-3.931-4.425-5.224c-4.55-3.252-9.634-4.525-15.401-2.176c-2.742-9.333-5.438-18.375-8.031-27.446
			c-0.585-2.047-0.953-4.182-1.176-6.303c-0.333-3.167,0.398-4.28,3.419-3.808c4.723,0.738,9.423,1.913,13.968,3.405
			c3.174,1.041,6.487,2.425,9.011,4.528c5.342,4.452,10.168,9.489,12.984,16.089c0.955,2.239,2.692,3.638,5.513,3.775
			c0.135-0.854,0.422-1.556,0.319-2.194c-1.188-7.352-4.254-14.046-8.217-20.184c-4.658-7.214-11.589-12.037-19.181-15.931
			c-7.906-4.055-15.807-8.129-23.601-12.393c-2.96-1.619-5.625-3.779-8.413-5.711c-0.879-0.609-1.646-1.423-2.592-1.883
			c-1.809-0.878-3.742,0.381-3.711,2.355c0.011,0.698,0.281,1.39,0.423,2.087c2.421,11.883,4.77,23.781,7.279,35.645
			c2.879,13.611,5.9,27.191,8.858,40.784c0.37,1.698,1.178,3.4-0.039,5.255c-1.734-0.522-3.439-1.034-5.143-1.55
			c-6.387-1.933-12.868-2.762-19.498-1.553c-5.621,1.025-10.825,3.128-14.135,7.959c-4.975,7.259-7.593,15.119-5.858,24.235
			c2.604,13.679,9.868,24.527,20.396,32.941c7.725,6.174,17.512,8.503,27.272,8.007c10.954-0.556,19.955-5.222,24.276-16.356
			c1.475-3.801,1.735-7.667,1.496-11.607c-0.149-2.457,0.525-4.262,2.165-6.236c3.826-4.605,5.414-10.017,3.733-16.011
			C80.517,120.016,75.334,116.314,67.924,115.358z M356.011,135.914c-9.891-12.008-18.939-23.059-28.07-34.041
			c-3.202-3.854-6.501-7.638-9.958-11.261c-1.79-1.876-4.132-1.303-5.132,1.08c-0.464,1.108-0.573,2.43-0.576,3.655
			c-0.036,15.948-0.038,31.896,0.004,47.844c0.003,1.219,0.094,2.631,0.704,3.6c0.58,0.923,2.081,2.082,2.844,1.881
			c1.125-0.298,2.347-1.552,2.805-2.69c0.502-1.245,0.213-2.819,0.214-4.251c0.009-11.827-0.005-23.653,0.021-35.48
			c0.003-1.126,0.235-2.251,0.361-3.376c0.362-0.19,0.726-0.381,1.089-0.57c0.446,0.764,0.8,1.605,1.356,2.28
			c6.577,7.982,13.179,15.943,19.786,23.903c2.738,3.298,5.531,6.554,8.246,9.872c2.475,3.022,4.74,6.229,7.359,9.115
			c1.825,2.011,3.936,1.582,5.154-0.809c0.462-0.906,0.644-2.048,0.646-3.083c0.038-16.306,0.027-32.612,0.025-48.919
			c0-0.358,0.023-0.722-0.029-1.074c-0.325-2.178-2.176-4.391-3.572-4.034c-1.895,0.485-3.011,1.896-3.202,3.851
			c-0.139,1.421-0.072,2.863-0.072,4.296C356.01,110.063,356.011,122.423,356.011,135.914z M298.267,104.734
			c-1.828-1.734-2.808-2.77-3.895-3.677c-4.914-4.106-10.71-5.893-16.942-5.125c-11.523,1.42-19.031,8.712-21.892,20.318
			c-2.341,9.499,0.34,17.949,6.511,24.829c8.341,9.3,22.488,10.942,33.182,1.818c0.833-0.711,1.689-1.396,2.709-2.235
			c0.315,2.304,0.216,4.206,0.91,5.751c0.476,1.059,2.116,2.304,3.126,2.216c1.006-0.089,2.127-1.606,2.723-2.745
			c0.446-0.854,0.161-2.101,0.164-3.174c0.01-4.293,0.004-8.587,0.003-12.882c-0.001-11.986,0.026-23.973-0.027-35.96
			c-0.013-2.618-1.287-4.309-2.95-4.409c-1.643-0.098-3.265,1.668-3.56,4.022c-0.133,1.058-0.058,2.144-0.061,3.217
			C298.261,99.005,298.267,101.311,298.267,104.734z M468.665,137.781c8.886-9.449,17.277-18.689,26.045-27.558
			c3.991-4.038,3.168-6.71-1.106-9.375c-6.695-4.175-13.834-6.521-21.802-3.913c-7.956,2.604-13.946,7.659-16.471,15.603
			c-2.803,8.819-1.802,17.275,3.444,25.517c7.508,11.792,25.011,14.742,36.801,4.246c0.945-0.842,1.674-2.445,1.666-3.69
			c-0.008-1.197-0.836-2.76-1.809-3.452c-0.646-0.459-2.288,0.115-3.288,0.617c-1.087,0.546-2.177,1.386-2.867,2.374
			c-2.338,3.35-5.713,3.847-9.396,3.938c-3.642,0.09-7.148-0.196-10.148-2.503C469.221,139.19,469.016,138.394,468.665,137.781z
			 M137.051,122.702c0.018-4.166-1.216-10.546-2.542-12.989c-5.326-9.82-17.054-16.765-29.931-12.622
			c-7.753,2.494-13.576,7.618-16.033,15.37c-2.793,8.816-1.763,17.234,3.315,25.57c4.17,6.848,15.11,11.734,22.454,10.844
			C128.742,147.128,136.792,134.942,137.051,122.702z M417.798,122.602c0.076-4.698-0.674-9.234-2.904-13.412
			c-4.829-9.045-16.529-16.13-29.149-12.217c-7.998,2.48-13.952,7.638-16.475,15.588c-2.799,8.825-1.698,17.24,3.402,25.555
			c4.188,6.829,15.141,11.68,22.494,10.754C409.617,147.052,417.609,134.77,417.798,122.602z M205.83,104.607
			c0-2.549,0.353-4.266-0.112-5.721c-0.367-1.149-1.672-2.659-2.683-2.757c-1.006-0.098-2.483,1.156-3.161,2.203
			c-0.608,0.939-0.546,2.399-0.549,3.63c-0.033,13.614-0.033,27.228,0,40.841c0.003,1.231-0.056,2.692,0.555,3.629
			c0.68,1.043,2.163,2.29,3.167,2.188c1.01-0.104,2.111-1.63,2.699-2.776c0.441-0.86,0.153-2.105,0.154-3.179
			c0.007-5.911,0.09-11.824-0.028-17.732c-0.072-3.636,0.722-6.998,1.79-10.469c3.662-11.899,19.865-15.794,29.006-7.352
			c4.188,3.869,6.207,8.677,6.355,14.225c0.176,6.623,0.041,13.254,0.043,19.883c0.001,1.074-0.068,2.157,0.037,3.222
			c0.248,2.495,1.641,4.357,3.177,4.388c1.701,0.034,3.395-2.094,3.649-4.598c0.036-0.355,0.018-0.717,0.018-1.075
			c-0.001-6.985,0.21-13.98-0.068-20.955c-0.253-6.337-1.662-12.481-6.101-17.369c-6.439-7.09-14.112-10.35-23.952-8.24
			C214.464,97.739,210.516,100.8,205.83,104.607z M185.861,140.134c0.104,2.048,0.074,3.438,0.27,4.795
			c0.268,1.849,1.004,3.531,3.093,3.867c1.541,0.248,3.354-1.784,3.651-3.975c0.143-1.056,0.063-2.143,0.063-3.216
			c0.004-5.189,0.002-10.38,0.002-15.569c0-7.874,0.026-15.747-0.024-23.621c-0.009-1.403,0.043-3.025-0.616-4.145
			c-0.625-1.061-2.104-2.079-3.291-2.185c-0.775-0.069-2.05,1.38-2.464,2.406c-0.51,1.262-0.461,2.79-0.47,4.205
			c-0.041,6.8-0.075,13.601-0.005,20.4c0.086,8.353-5.206,13.524-11.31,17.551c-5.259,3.469-12.508,1.486-17.641-2.662
			c-6.105-4.934-8.597-11.076-8.271-18.768c0.241-5.717,0.051-11.451,0.043-17.177c-0.001-1.072,0.283-2.321-0.164-3.174
			c-0.596-1.14-1.717-2.657-2.723-2.746c-1.01-0.088-2.553,1.162-3.135,2.224c-0.629,1.149-0.536,2.758-0.55,4.168
			c-0.055,5.189,0.19,10.39-0.074,15.566c-0.409,8.009,1.889,15.128,6.367,21.634c5.244,7.617,15.917,10.196,22.188,8.887
			C176.55,147.4,181.546,144.987,185.861,140.134z M437.409,102.671c2.311,0,4.413,0.008,6.515-0.001
			c2.163-0.009,3.282-1.353,3.648-3.244c0.324-1.68-1.586-3.45-3.816-3.583c-2.083-0.123-4.179-0.026-6.364-0.026
			c-0.125-1.505-0.164-2.381-0.277-3.248c-0.241-1.832-1.369-3.222-3.119-2.952c-1.129,0.174-2.282,1.481-3.015,2.56
			c-0.632,0.931-0.682,2.257-1.048,3.63c-1.45,0-2.686-0.035-3.919,0.006c-3.921,0.128-5.534,1.203-5.434,3.579
			c0.092,2.207,1.552,3.124,5.184,3.303c1.53,0.074,3.059,0.208,4.811,0.33c0,1.933,0,3.354,0,4.777
			c0,10.914-0.018,21.827,0.005,32.741c0.016,7.878,0.568,8.4,8.597,8.397c3.398-0.001,6.803,0.081,10.195-0.087
			c1.862-0.093,3.799-1.983,3.583-3.349c-0.31-1.946-1.58-3.185-3.591-3.376c-1.42-0.135-2.865,0.021-4.289-0.086
			c-2.589-0.191-5.293,0.608-7.665-0.587C437.409,128.531,437.409,115.876,437.409,102.671z"/>
		<path fill-rule="evenodd" clip-rule="evenodd" d="M67.924,115.358c7.41,0.956,12.593,4.657,14.669,12.063
			c1.681,5.994,0.093,11.405-3.733,16.011c-1.64,1.975-2.314,3.779-2.165,6.236c0.239,3.94-0.021,7.807-1.496,11.607
			c-4.321,11.135-13.322,15.801-24.276,16.356c-9.76,0.496-19.547-1.833-27.272-8.007c-10.528-8.414-17.793-19.263-20.396-32.941
			c-1.735-9.116,0.883-16.977,5.858-24.235c3.311-4.831,8.514-6.934,14.135-7.959c6.63-1.209,13.111-0.38,19.498,1.553
			c1.704,0.516,3.409,1.027,5.143,1.55c1.217-1.854,0.409-3.557,0.039-5.255c-2.958-13.593-5.979-27.173-8.858-40.784
			c-2.51-11.864-4.858-23.762-7.279-35.645c-0.142-0.697-0.412-1.39-0.423-2.087c-0.031-1.974,1.902-3.233,3.711-2.355
			c0.945,0.46,1.713,1.274,2.592,1.883c2.788,1.932,5.453,4.093,8.413,5.711c7.794,4.264,15.695,8.337,23.601,12.393
			c7.592,3.894,14.523,8.717,19.181,15.931c3.962,6.138,7.028,12.832,8.217,20.184c0.103,0.639-0.185,1.34-0.319,2.194
			c-2.821-0.138-4.558-1.536-5.513-3.775c-2.815-6.6-7.642-11.637-12.984-16.089c-2.524-2.103-5.836-3.488-9.011-4.528
			c-4.545-1.492-9.245-2.667-13.968-3.405c-3.021-0.472-3.752,0.642-3.419,3.808c0.223,2.121,0.59,4.255,1.176,6.303
			c2.594,9.072,5.29,18.114,8.031,27.446c5.768-2.349,10.851-1.076,15.401,2.176c1.809,1.293,3.269,3.279,4.425,5.224
			c1.135,1.912,0.324,4.023-1.385,5.154c-1.786,1.184-3.012,0.069-4.243-1.022c-1.069-0.949-2.086-1.964-3.206-2.848
			c-2.375-1.875-4.97-2.699-8.552-1.182c0.678,2.652,1.393,5.328,2.042,8.02c0.832,3.447,1.612,6.908,2.415,10.362
			c-4.995,1.073-7.077-2.515-8.959-5.933c-1.872-3.401-1.357-6.898,0.862-10.105c2.552-3.689,2.498-4.381-0.644-8.372
			c-8.376,5.847-10.374,13.066-6.316,22.828c2.544,6.122,9.502,9.604,16.447,8.291C68.884,119.865,68.404,117.611,67.924,115.358z
			 M72.231,125.104c-0.138-0.08-0.276-0.159-0.414-0.239c0.157,0.057,0.314,0.113,0.472,0.17c0.693,3.055,1.386,6.109,2.08,9.164
			C75.765,130.535,75.594,127.326,72.231,125.104z M73.983,137.641c-0.317,0.168-0.71,0.259-0.917,0.505
			c-3.761,4.5-8.271,4.632-11.946,0.361c-0.813-0.944-1.593-2.079-2.648-2.613c-1.154-0.583-2.729-1.023-3.906-0.715
			c-1.922,0.505-2.056,2.555-1.592,4.039c0.562,1.803,1.398,3.867,2.784,5.001c5.005,4.093,10.694,5.615,16.998,3.108
			c2.637-1.049,2.879-1.53,2.322-4.478C74.748,141.108,74.351,139.379,73.983,137.641z"/>
		<path fill-rule="evenodd" clip-rule="evenodd" d="M356.011,135.914c0-13.491-0.001-25.851,0.004-38.21
			c0-1.433-0.066-2.875,0.072-4.296c0.191-1.955,1.308-3.366,3.202-3.851c1.396-0.357,3.247,1.856,3.572,4.034
			c0.053,0.352,0.029,0.715,0.029,1.074c0.002,16.307,0.013,32.614-0.025,48.919c-0.003,1.035-0.185,2.177-0.646,3.083
			c-1.219,2.391-3.329,2.819-5.154,0.809c-2.619-2.887-4.885-6.093-7.359-9.115c-2.715-3.318-5.508-6.574-8.246-9.872
			c-6.607-7.96-13.209-15.921-19.786-23.903c-0.557-0.675-0.91-1.517-1.356-2.28c-0.363,0.189-0.727,0.38-1.089,0.57
			c-0.126,1.125-0.358,2.25-0.361,3.376c-0.026,11.827-0.013,23.653-0.021,35.48c-0.001,1.432,0.288,3.006-0.214,4.251
			c-0.458,1.139-1.68,2.393-2.805,2.69c-0.763,0.201-2.264-0.958-2.844-1.881c-0.61-0.969-0.701-2.381-0.704-3.6
			c-0.042-15.948-0.04-31.896-0.004-47.844c0.003-1.226,0.112-2.547,0.576-3.655c1-2.383,3.342-2.956,5.132-1.08
			c3.457,3.623,6.756,7.408,9.958,11.261C337.071,112.855,346.12,123.906,356.011,135.914z"/>
		<path fill-rule="evenodd" clip-rule="evenodd" d="M298.267,104.734c0-3.424-0.006-5.729,0.001-8.036
			c0.003-1.073-0.072-2.159,0.061-3.217c0.295-2.354,1.917-4.12,3.56-4.022c1.663,0.1,2.938,1.791,2.95,4.409
			c0.054,11.987,0.026,23.974,0.027,35.96c0.001,4.295,0.007,8.589-0.003,12.882c-0.003,1.073,0.282,2.319-0.164,3.174
			c-0.596,1.139-1.717,2.656-2.723,2.745c-1.01,0.088-2.65-1.157-3.126-2.216c-0.694-1.545-0.595-3.447-0.91-5.751
			c-1.02,0.84-1.876,1.524-2.709,2.235c-10.693,9.124-24.841,7.481-33.182-1.818c-6.171-6.88-8.852-15.33-6.511-24.829
			c2.86-11.605,10.368-18.897,21.892-20.318c6.232-0.768,12.028,1.019,16.942,5.125C295.459,101.965,296.438,103,298.267,104.734z
			 M279.899,142.663c2.834-0.875,6.053-1.163,8.434-2.727c9.396-6.168,11.701-15.415,8.21-26.138
			c-2.666-8.188-14.367-14.084-23.876-9.826c-9.615,4.305-14.586,17.396-9.469,26.667
			C266.657,136.907,271.286,142.497,279.899,142.663z"/>
		<path fill-rule="evenodd" clip-rule="evenodd" d="M468.665,137.781c0.351,0.612,0.556,1.409,1.069,1.804
			c3,2.307,6.507,2.593,10.148,2.503c3.683-0.092,7.058-0.589,9.396-3.938c0.69-0.988,1.78-1.828,2.867-2.374
			c1-0.502,2.642-1.076,3.288-0.617c0.973,0.692,1.801,2.255,1.809,3.452c0.008,1.245-0.721,2.849-1.666,3.69
			c-11.79,10.496-29.293,7.546-36.801-4.246c-5.246-8.241-6.247-16.697-3.444-25.517c2.524-7.943,8.515-12.999,16.471-15.603
			c7.968-2.607,15.106-0.262,21.802,3.913c4.274,2.665,5.098,5.337,1.106,9.375C485.942,119.092,477.551,128.332,468.665,137.781z
			 M489.759,106.655c-6.649-6.259-18.8-4.654-24.466,1.651c-5.748,6.396-6.493,17.516-1.283,24.059
			c0.433-0.219,0.987-0.348,1.323-0.691C473.421,123.419,481.484,115.141,489.759,106.655z"/>
		<path fill-rule="evenodd" clip-rule="evenodd" d="M137.051,122.702c-0.259,12.24-8.309,24.426-22.736,26.173
			c-7.343,0.891-18.284-3.996-22.454-10.844c-5.078-8.336-6.108-16.754-3.315-25.57c2.457-7.752,8.28-12.876,16.033-15.37
			c12.877-4.143,24.605,2.802,29.931,12.622C135.834,112.156,137.069,118.536,137.051,122.702z M112.267,142.677
			c2.821-0.905,6.044-1.22,8.393-2.819c9.415-6.411,11.585-15.378,8.017-26.203c-2.471-7.492-13.357-13.757-22.945-9.969
			c-10.271,4.06-15.625,17.473-10.272,27.096C98.958,137.069,103.62,142.603,112.267,142.677z"/>
		<path fill-rule="evenodd" clip-rule="evenodd" d="M417.8,122.601c-0.19,12.169-8.183,24.451-22.634,26.269
			c-7.354,0.926-18.306-3.925-22.494-10.754c-5.101-8.314-6.201-16.729-3.402-25.555c2.522-7.95,8.477-13.108,16.475-15.588
			c12.62-3.913,24.32,3.172,29.149,12.217C417.124,113.367,417.874,117.903,417.8,122.601z M392.615,142.646
			c2.848-0.832,6.062-1.084,8.481-2.601c9.588-6.003,12.352-15.566,8.132-26.498c-3.375-8.744-13.584-13.291-22.396-9.977
			c-10.398,3.912-15.999,17.07-10.774,26.876C379.419,136.756,384.006,142.408,392.615,142.646z"/>
		<path fill-rule="evenodd" clip-rule="evenodd" d="M205.83,104.607c4.686-3.808,8.634-6.868,13.996-8.017
			c9.84-2.109,17.513,1.15,23.952,8.24c4.439,4.888,5.848,11.032,6.101,17.369c0.278,6.975,0.067,13.97,0.068,20.955
			c0,0.358,0.018,0.72-0.018,1.075c-0.254,2.504-1.949,4.632-3.649,4.598c-1.536-0.03-2.929-1.893-3.177-4.388
			c-0.105-1.064-0.036-2.147-0.037-3.222c-0.002-6.629,0.133-13.26-0.043-19.883c-0.148-5.548-2.167-10.355-6.355-14.225
			c-9.141-8.442-25.344-4.548-29.006,7.352c-1.068,3.471-1.862,6.833-1.79,10.469c0.118,5.908,0.035,11.821,0.028,17.732
			c-0.001,1.073,0.287,2.318-0.154,3.179c-0.588,1.146-1.688,2.673-2.699,2.776c-1.004,0.103-2.487-1.145-3.167-2.188
			c-0.611-0.937-0.551-2.397-0.555-3.629c-0.033-13.613-0.033-27.227,0-40.841c0.003-1.231-0.06-2.691,0.549-3.63
			c0.678-1.046,2.155-2.3,3.161-2.203c1.01,0.099,2.316,1.608,2.683,2.757C206.183,100.342,205.83,102.059,205.83,104.607z"/>
		<path fill-rule="evenodd" clip-rule="evenodd" d="M185.861,140.134c-4.314,4.854-9.311,7.267-15.061,8.468
			c-6.271,1.31-16.944-1.27-22.188-8.887c-4.479-6.506-6.776-13.625-6.367-21.634c0.264-5.177,0.019-10.377,0.074-15.566
			c0.015-1.41-0.079-3.019,0.55-4.168c0.582-1.062,2.125-2.312,3.135-2.224c1.006,0.088,2.127,1.606,2.723,2.746
			c0.446,0.853,0.162,2.102,0.164,3.174c0.008,5.726,0.197,11.46-0.043,17.177c-0.325,7.691,2.167,13.834,8.271,18.768
			c5.133,4.148,12.382,6.131,17.641,2.662c6.104-4.026,11.396-9.198,11.31-17.551c-0.069-6.8-0.035-13.601,0.005-20.4
			c0.008-1.415-0.04-2.943,0.47-4.205c0.414-1.026,1.689-2.476,2.464-2.406c1.187,0.106,2.666,1.124,3.291,2.185
			c0.659,1.119,0.607,2.741,0.616,4.145c0.05,7.874,0.024,15.747,0.024,23.621c0,5.189,0.002,10.38-0.002,15.569
			c0,1.073,0.08,2.16-0.063,3.216c-0.297,2.19-2.11,4.223-3.651,3.975c-2.089-0.336-2.825-2.019-3.093-3.867
			C185.935,143.571,185.965,142.182,185.861,140.134z"/>
		<path fill-rule="evenodd" clip-rule="evenodd" d="M437.409,102.671c0,13.205,0,25.86,0,38.786
			c2.372,1.195,5.076,0.396,7.665,0.587c1.424,0.106,2.869-0.049,4.289,0.086c2.011,0.191,3.281,1.43,3.591,3.376
			c0.216,1.365-1.721,3.256-3.583,3.349c-3.393,0.168-6.797,0.086-10.195,0.087c-8.028,0.003-8.581-0.52-8.597-8.397
			c-0.022-10.914-0.005-21.827-0.005-32.741c0-1.423,0-2.845,0-4.777c-1.752-0.122-3.28-0.256-4.811-0.33
			c-3.632-0.179-5.092-1.096-5.184-3.303c-0.101-2.376,1.513-3.451,5.434-3.579c1.233-0.041,2.469-0.006,3.919-0.006
			c0.366-1.374,0.416-2.699,1.048-3.63c0.732-1.079,1.886-2.385,3.015-2.56c1.75-0.27,2.878,1.12,3.119,2.952
			c0.113,0.867,0.152,1.743,0.277,3.248c2.186,0,4.281-0.097,6.364,0.026c2.23,0.133,4.141,1.903,3.816,3.583
			c-0.366,1.891-1.485,3.235-3.648,3.244C441.822,102.679,439.72,102.671,437.409,102.671z"/>
		<path fill-rule="evenodd" clip-rule="evenodd" fill="none" d="M67.924,115.358c0.479,2.253,0.959,4.507,1.439,6.757
			c-6.945,1.313-13.903-2.169-16.447-8.291c-4.058-9.762-2.06-16.981,6.316-22.828c3.142,3.991,3.196,4.683,0.644,8.372
			c-2.219,3.207-2.734,6.704-0.862,10.105c1.882,3.418,3.964,7.006,8.959,5.933L67.924,115.358z"/>
		<path fill-rule="evenodd" clip-rule="evenodd" fill="none" d="M73.983,137.641c0.368,1.738,0.765,3.468,1.095,5.209
			c0.557,2.947,0.315,3.429-2.322,4.478c-6.304,2.507-11.992,0.984-16.998-3.108c-1.386-1.134-2.222-3.198-2.784-5.001
			c-0.463-1.484-0.33-3.534,1.592-4.039c1.177-0.309,2.752,0.132,3.906,0.715c1.055,0.534,1.835,1.669,2.648,2.613
			c3.675,4.271,8.185,4.139,11.946-0.361C73.272,137.899,73.666,137.809,73.983,137.641z"/>
		<path fill-rule="evenodd" clip-rule="evenodd" fill="none" d="M72.231,125.104c3.363,2.222,3.534,5.431,2.138,9.095
			c-0.693-3.055-1.387-6.109-2.08-9.164L72.231,125.104z"/>
		<path fill-rule="evenodd" clip-rule="evenodd" fill="none" d="M72.29,125.035c-0.157-0.057-0.314-0.113-0.472-0.17
			c0.138,0.08,0.276,0.159,0.414,0.239L72.29,125.035z"/>
		<path fill-rule="evenodd" clip-rule="evenodd" fill="none" d="M279.899,142.663c-8.613-0.166-13.242-5.756-16.701-12.023
			c-5.117-9.271-0.146-22.362,9.469-26.667c9.509-4.258,21.21,1.639,23.876,9.826c3.491,10.723,1.186,19.97-8.21,26.138
			C285.952,141.5,282.733,141.788,279.899,142.663z"/>
		<path fill-rule="evenodd" clip-rule="evenodd" fill="none" d="M489.759,106.655c-8.274,8.485-16.338,16.764-24.426,25.019
			c-0.336,0.344-0.891,0.473-1.323,0.691c-5.21-6.543-4.465-17.662,1.283-24.059C470.959,102.001,483.109,100.396,489.759,106.655z"
			/>
		<path fill-rule="evenodd" clip-rule="evenodd" fill="none" d="M112.267,142.677c-8.647-0.074-13.31-5.607-16.808-11.896
			c-5.354-9.623,0.001-23.036,10.272-27.096c9.588-3.789,20.474,2.477,22.945,9.969c3.569,10.825,1.398,19.792-8.017,26.203
			C118.311,141.457,115.088,141.771,112.267,142.677z"/>
		<path fill-rule="evenodd" clip-rule="evenodd" fill="none" d="M392.615,142.646c-8.609-0.237-13.196-5.89-16.557-12.199
			c-5.225-9.806,0.376-22.964,10.774-26.876c8.812-3.314,19.021,1.232,22.396,9.977c4.22,10.932,1.456,20.495-8.132,26.498
			C398.677,141.562,395.463,141.813,392.615,142.646z"/>
	</g>
</g>
</svg>
